<?xml version="1.0" standalone="no"?>
<!DOCTYPE svg PUBLIC "-//W3C//DTD SVG 1.1//EN" "http://www.w3.org/Graphics/SVG/1.1/DTD/svg11.dtd" >
<svg xmlns="http://www.w3.org/2000/svg">
<metadata>Generated by IcoMoon</metadata>
<defs>
<font id="icomoon" horiz-adv-x="1024">
<font-face units-per-em="1024" ascent="960" descent="-64" />
<missing-glyph horiz-adv-x="1024" />
<glyph unicode="&#x20;" horiz-adv-x="512" d="" />
<glyph unicode="&#xe900;" d="M971.789 331.789l-343.579-343.579c-35.368-35.368-96-35.368-131.368 0l-429.474 431.158c-28.632 26.947-42.105 60.632-42.105 99.368l3.368 320c0 50.526 42.105 92.632 92.632 92.632l320 3.368c38.737 0 72.421-13.474 99.368-42.105l431.158-429.474c35.368-35.368 35.368-96 0-131.368z" />
<glyph unicode="&#xe901;" d="M377.599 582.402c-47.2-47.2-123.726-47.2-170.926 0s-47.2 123.726 0 170.926c47.2 47.2 123.726 47.2 170.926 0s47.2-123.726 0-170.926z" />
<glyph unicode="&#xe902;" horiz-adv-x="1280" d="M1192.536 719.78h-942.17c-11.53 0-19.766-9.883-19.766-23.060s8.236-23.060 19.766-23.060h942.17c11.53 0 19.766 9.883 19.766 23.060s-8.236 23.060-19.766 23.060z" />
<glyph unicode="&#xe903;" horiz-adv-x="1280" d="M1121.709 535.299h-830.163c-11.53 0-19.766-11.53-19.766-23.060 0-13.177 8.236-23.060 19.766-23.060h830.163c11.53 0 19.766 9.883 19.766 23.060 0 11.53-8.236 23.060-19.766 23.060z" />
<glyph unicode="&#xe904;" horiz-adv-x="1280" d="M1260.069 904.26h-1062.412c-9.883 0-19.766-9.883-19.766-23.060 0-11.53 9.883-23.060 19.766-23.060h1062.412c9.883 0 19.766 11.53 19.766 23.060 0 13.177-9.883 23.060-19.766 23.060z" />
<glyph unicode="&#xe905;" horiz-adv-x="1280" d="M392.022 874.612l-39.532-6.589 54.356-480.968 42.826-9.883z" />
<glyph unicode="&#xe906;" horiz-adv-x="1280" d="M553.442 869.67l-41.179-1.647 29.649-495.792 42.826 8.236z" />
<glyph unicode="&#xe907;" horiz-adv-x="1280" d="M673.684 877.906v-507.322l37.884 1.647 1.647 505.675z" />
<glyph unicode="&#xe908;" horiz-adv-x="1280" d="M858.165 879.553l-75.769-513.911 44.473 16.471 70.827 489.203z" />
<glyph unicode="&#xe909;" horiz-adv-x="1280" d="M1031.116 879.553l-125.183-517.205 44.473 9.883 118.595 494.145z" />
<glyph unicode="&#xe90a;" horiz-adv-x="1280" d="M1199.125 887.789l-164.715-500.733 39.532-19.766 163.068 504.028z" />
<glyph unicode="&#xe90b;" horiz-adv-x="1280" d="M1159.593 421.646h-808.75l-163.068 525.441c-3.294-28.002-28.002-34.59-52.709-37.884l166.362-533.676c4.941-13.177 14.824-21.413 28.002-21.413h830.163c16.471 0 29.649 14.824 29.649 32.943 0 19.766-13.177 34.59-29.649 34.59z" />
<glyph unicode="&#xe90c;" horiz-adv-x="1280" d="M932.287 32.918h-648.977l77.416 359.079 41.179-11.53-64.239-299.781h594.621z" />
<glyph unicode="&#xe90d;" horiz-adv-x="1280" d="M433.2 52.684c0-64.239-52.709-116.948-116.948-116.948s-115.3 52.709-115.3 116.948c0 64.239 51.062 116.948 115.3 116.948s116.948-52.709 116.948-116.948z" />
<glyph unicode="&#xe90e;" horiz-adv-x="1280" d="M403.552 52.684c0-47.767-37.884-87.299-87.299-87.299-47.767 0-87.299 39.532-87.299 87.299s39.532 87.299 87.299 87.299c49.414 0 87.299-39.532 87.299-87.299z" />
<glyph unicode="&#xe90f;" horiz-adv-x="1280" d="M1036.057 52.684c0-64.239-52.709-116.948-116.948-116.948s-115.3 52.709-115.3 116.948c0 64.239 51.062 116.948 115.3 116.948s116.948-52.709 116.948-116.948z" />
<glyph unicode="&#xe910;" horiz-adv-x="1280" d="M1006.408 52.684c0-47.767-37.884-87.299-87.299-87.299-47.767 0-87.299 39.532-87.299 87.299s39.532 87.299 87.299 87.299c49.414 0 87.299-39.532 87.299-87.299z" />
<glyph unicode="&#xe911;" horiz-adv-x="1280" d="M34.59 960.264h148.243l21.413-67.533h-169.656c-19.766 0-34.59 14.824-34.59 34.59v0c0 18.119 14.824 32.943 34.59 32.943z" />
<glyph unicode="&#xe912;" horiz-adv-x="630" d="M515.72 627.139c-2.421 13.314-13.314 22.998-31.47 16.946-2.421-1.21-4.842-2.421-7.262-4.842-1.21 47.206-1.21 31.47-1.21 31.47h-331.65c0 0 0 15.735 0-31.47-3.631 2.421-6.052 3.631-8.473 4.842-18.156 6.052-29.050-3.631-31.47-16.946-7.262-25.418-1.21-54.468 15.735-78.676 6.052-8.473 15.735-14.525 24.208-12.104 0-6.052 0-10.894 0-13.314 0-75.045 78.676-174.298 165.825-174.298 88.359 0 167.035 99.253 167.035 174.298 0 2.421 0 7.262 0 13.314 7.262-2.421 16.946 3.631 22.998 12.104 16.946 24.208 22.998 53.258 15.735 78.676z" />
<glyph unicode="&#xe913;" horiz-adv-x="630" d="M182.859 664.662h-47.206c0-38.733 6.052-72.624 16.946-110.147 2.421 37.522 13.314 77.466 30.26 110.147z" />
<glyph unicode="&#xe914;" horiz-adv-x="630" d="M433.412 664.662h50.837c0-38.733-4.842-72.624-15.735-110.147-3.631 37.522-19.366 79.887-35.102 110.147z" />
<glyph unicode="&#xe915;" horiz-adv-x="630" d="M533.876 697.343h-429.693l-15.735-38.733h461.163z" />
<glyph unicode="&#xe916;" horiz-adv-x="630" d="M395.89 927.319c0-21.787-21.787-48.416-31.47-75.045-13.314-35.102-22.998-72.624-22.998-110.147h-8.473c0 37.522 9.683 76.255 21.787 112.567 9.683 25.418 49.626 68.993 21.787 88.359-14.525 9.683-37.522 16.946-55.678 16.946v0c0 0 0 0-1.21 0 0 0 0 0-1.21 0 0 0 0 0-1.21 0 0 0 0 0-1.21 0v0c-18.156 0-39.943-7.262-54.468-16.946-29.050-19.366 10.894-62.941 20.577-88.359 13.314-36.312 21.787-75.045 21.787-112.567h-7.262c0 37.522-9.683 75.045-22.998 110.147-8.473 24.208-32.681 53.258-31.47 75.045-71.414-35.102-122.251-117.409-125.882-221.504h404.274c-3.631 104.095-53.258 186.402-124.671 221.504z" />
<glyph unicode="&#xe917;" horiz-adv-x="630" d="M612.552 153.872c0 70.203-60.52 125.882-125.882 140.407l-96.832 15.735 3.631 136.775-159.773-1.21v-136.775l-91.991-14.525c-70.203-18.156-124.671-70.203-124.671-140.407l-14.525-216.662h625.778l-15.735 216.662z" />
<glyph unicode="&#xe918;" horiz-adv-x="630" d="M613.762 152.662c0 70.203-60.52 128.303-125.882 144.038l-95.622 14.525-1.21 18.156c-24.208-9.683-48.416-15.735-76.255-15.735s-56.889 4.842-81.097 13.314v-16.946l-91.991-13.314c-71.414-18.156-127.092-73.835-127.092-144.038l-14.525-215.452h629.409l-15.735 215.452z" />
<glyph unicode="&#xe919;" horiz-adv-x="630" d="M312.372-48.265l32.681 66.572-26.629 231.187h4.842l14.525 15.735-20.577 47.206c-1.21 0-3.631 0-4.842 0-2.421 0-6.052 0-8.473 0l-19.366-45.995 12.104-15.735h4.842c-6.052-65.362-19.366-234.818-19.366-234.818l30.26-64.151z" />
<glyph unicode="&#xe91a;" horiz-adv-x="630" d="M613.762 152.662c0 70.203-60.52 128.303-125.882 144.038l-84.728 12.104-88.359-282.024-88.359 282.024-84.728-12.104c-71.414-18.156-127.092-73.835-127.092-144.038l-14.525-215.452h629.409l-15.735 215.452z" />
<glyph unicode="&#xe91b;" horiz-adv-x="630" d="M441.885 202.288l-15.735 104.095-22.998 2.421-73.835-237.239-14.525-45.995-13.314 45.995-75.045 237.239-21.787-3.631-16.946-102.884 59.31-13.314-47.206-38.733 101.674-214.241h8.473v1.21h19.366l101.674 213.031-48.416 39.943z" />
<glyph unicode="&#xe91c;" horiz-adv-x="630" d="M445.516 70.355h14.525v29.050h-14.525z" />
<glyph unicode="&#xe91d;" horiz-adv-x="630" d="M475.776 514.572c0 0 0 0 0 0s0 0 0 0zM475.776 515.783c0 0 0 0 0 0s0 0 0 0zM475.776 515.783c0 0 0 0 0 0s0 0 0 0zM475.776 515.783c0 0 0 0 0 0s0 0 0 0zM475.776 515.783c0 0 0 0 0 0s0 0 0 0zM475.776 515.783c0 0 0 0 0 0s0 0 0 0zM475.776 516.993c0 0 0 0 0 0s0 0 0 0zM475.776 516.993c0 0 0 0 0 0s0 0 0 0zM475.776 516.993c0 0 0 0 0 0s0 0 0 0zM475.776 516.993c0 0 0 0 0 0s0 0 0 0zM475.776 516.993c0 0 0 0 0 0s0 0 0 0zM475.776 516.993c0 0 0 0 0 0s0 0 0 0zM476.987 518.203c0 0 0 0 0 0s0 0 0 0zM476.987 518.203c0 0 0 0 0 0s0 0 0 0zM476.987 518.203c0 0 0 0 0 0s0 0 0 0zM476.987 518.203c0 0 0 0 0 0s0 0 0 0zM476.987 518.203c0 0 0 0 0 0s0 0 0 0zM476.987 518.203c0 1.21 0 1.21 0 1.21s0 0 0-1.21zM476.987 519.414c0 0 0 0 0 0s0 0 0 0zM476.987 519.414c0 0 0 0 0 0s0 0 0 0zM476.987 519.414c0 0 0 0 0 0s0 0 0 0zM476.987 519.414c0 0 0 0 0 0s0 0 0 0zM476.987 519.414c0 0 0 0 0 0s0 0 0 0zM476.987 520.624c0 0 0 0 0 0s0 0 0 0zM476.987 520.624c0 0 0 0 0 0s0 0 0 0zM476.987 520.624c0 0 0 0 0 0s0 0 0 0zM476.987 520.624c0 0 0 0 0 0s0 0 0 0zM476.987 520.624c0 0 0 0 0 0s0 0 0 0zM476.987 520.624c0 0 0 1.21 0 1.21s0-1.21 0-1.21zM476.987 521.835c0 0 0 0 0 0s0 0 0 0zM476.987 521.835c0 0 0 0 0 0s0 0 0 0zM476.987 521.835c0 0 0 0 0 0s0 0 0 0zM476.987 521.835c0 0 0 0 0 0s0 0 0 0zM476.987 521.835c0 0 0 0 0 1.21v0c0-1.21 0-1.21 0-1.21zM519.351 606.563c0 7.262-1.21 14.525-3.631 20.577-1.21 8.473-7.262 15.735-15.735 18.156 8.473-2.421 14.525-9.683 15.735-18.156 2.421-6.052 3.631-13.314 3.631-20.577z" />
<glyph unicode="&#xe91e;" horiz-adv-x="630" d="M392.259 376.586l1.21 70.203-77.466-1.21v213.031h119.83c15.735-30.26 29.050-68.993 32.681-104.095 8.473 30.26 13.314 58.099 15.735 89.57 0 0 0 0 0 0 3.631 1.21 7.262 1.21 10.894 1.21 1.21 0 3.631 0 4.842 0 8.473-2.421 14.525-9.683 15.735-18.156 2.421-6.052 3.631-13.314 3.631-20.577 0-16.946-4.842-33.891-14.525-48.416-1.21-3.631-3.631-6.052-4.842-9.683-6.052-7.262-13.314-13.314-20.577-13.314-1.21 0-2.421 1.21-2.421 1.21v0c0-4.842 0-8.473 0-12.104 0 0 0 0 0 0s0 0 0 0 0 0 0 0 0 0 0 0 0 0 0-1.21c0 0 0 0 0 0s0 0 0 0 0 0 0 0 0 0 0 0 0 0 0 0 0 0 0 0 0 0 0 0 0 0 0 0 0 0 0 0 0 0 0 0 0 0 0 0c0-1.21 0-1.21 0-1.21s0 0 0 0 0 0 0 0 0 0 0 0 0 0 0 0 0 0 0 0 0 0 0 0 0 0 0 0 0 0 0 0 0 0 0 0 0-1.21 0-1.21c0 0 0 0 0 0s0 0 0 0 0 0 0 0 0 0 0 0 0 0 0 0 0 0 0 0 0 0 0 0 0 0 0 0 0 0 0 0 0 0 0 0 0 0 0-1.21c0 0 0 0 0 0s0 0 0 0 0 0 0 0 0 0 0 0 0 0 0 0 0 0 0 0 0 0 0 0 0 0 0 0 0 0 0 0 0 0 0 0 0 0 0-1.21c0 0 0 0 0 0s0 0 0 0 0 0 0 0 0 0 0 0 0 0 0 0 0 0 0 0 0 0 0 0 0 0 0 0 0 0 0 0 0 0 0 0c-1.21 0-1.21 0-1.21-1.21 0 0 0 0 0 0s0 0 0 0 0 0 0 0 0 0 0 0 0 0 0 0 0 0 0 0 0 0 0 0 0 0 0 0 0 0 0 0 0 0 0 0 0 0 0 0c0-1.21 0-1.21 0-1.21s0 0 0 0 0 0 0 0 0 0 0 0 0 0 0 0 0 0 0 0 0 0 0 0 0 0 0 0 0 0 0 0 0 0 0 0 0 0 0-1.21c0 0 0 0 0 0-2.421-47.206-36.312-104.095-83.518-137.986z" />
<glyph unicode="&#xe91f;" horiz-adv-x="630" d="M468.514 554.515c-3.631 35.102-16.946 73.835-32.681 104.095h48.416c-1.21-36.312-6.052-68.993-15.735-104.095z" />
<glyph unicode="&#xe920;" horiz-adv-x="630" d="M549.611 658.61h-233.608v38.733h217.872z" />
<glyph unicode="&#xe921;" horiz-adv-x="630" d="M515.72 754.232c-15.735 81.097-60.52 142.827-119.83 173.087 0 0 0 0 0 0 59.31-30.26 104.095-91.991 119.83-173.087zM318.424 960v0c1.21 0 1.21 0 1.21 0s0 0-1.21 0zM318.424 960c0 0 0 0 0 0v0 0c0 0 0 0 0 0z" />
<glyph unicode="&#xe922;" horiz-adv-x="630" d="M520.561 705.816h-204.558v254.184h2.421c0 0 0 0 0 0s0 0 0 0 0 0 0 0v0 0c1.21 0 1.21 0 1.21 0v0c0 0 1.21 0 1.21 0s0 0 0 0v0c18.156 0 41.154-7.262 55.678-16.946 7.262-4.842 9.683-12.104 9.683-19.366 0-20.577-24.208-49.626-31.47-68.993-12.104-36.312-21.787-75.045-21.787-112.567h8.473c0 37.522 9.683 75.045 22.998 110.147 9.683 26.629 31.47 53.258 31.47 75.045 59.31-30.26 104.095-91.991 119.83-173.087 2.421-15.735 4.842-31.47 4.842-48.416z" />
<glyph unicode="&#xe923;" horiz-adv-x="630" d="M316.003 445.579v0l77.466 1.21z" />
<glyph unicode="&#xe924;" horiz-adv-x="630" d="M316.003 313.645v131.934l77.466 1.21-2.421-118.619c0 0 0 0 0 0s0 0 0 0c-1.21 0-1.21 0-1.21 0s0 0 0 0 0 0 0 0c-22.998-8.473-47.206-14.525-73.835-14.525v0z" />
<glyph unicode="&#xe925;" horiz-adv-x="630" d="M389.838 328.17c0 0 0 0 0 0s0 0 0 0zM389.838 328.17c0 0 0 0 1.21 0 0 0-1.21 0-1.21 0zM391.048 328.17c0 0 0 0 0 0v0c0 0 0 0 0 0z" />
<glyph unicode="&#xe926;" horiz-adv-x="630" d="M391.048 328.17c0 0 0 0 0 0s0 0 0 0z" />
<glyph unicode="&#xe927;" horiz-adv-x="630" d="M316.003 313.645v0c26.629 0 50.837 6.052 73.835 14.525-22.998-8.473-47.206-14.525-73.835-14.525zM389.838 328.17c0 0 0 0 0 0s0 0 0 0zM391.048 328.17c0 0 0 0 0 0s0 0 0 0z" />
<glyph unicode="&#xe928;" horiz-adv-x="630" d="M336.58 95.773l-18.156 153.721h4.842l14.525 15.735-20.577 47.206h-1.21v1.21c26.629 0 50.837 6.052 73.835 14.525 0 0 0 0 0 0s0 0 0 0 1.21 0 1.21 0c0 0 0 0 0 0s0 0 0 0 0 0 0 0 0 0 0 0c0 1.21 0 1.21 0 1.21l1.21-18.156 10.894-2.421-66.572-213.031z" />
<glyph unicode="&#xe929;" horiz-adv-x="630" d="M336.58 95.773l-18.156 153.721v0l18.156-153.721zM316.003 312.435v0h1.21c0 0 0 0-1.21 0z" />
<glyph unicode="&#xe92a;" horiz-adv-x="630" d="M316.003 31.622v280.813c1.21 0 1.21 0 1.21 0v0l20.577-47.206-14.525-15.735h-4.842l18.156-153.721-7.262-24.208-1.21-2.421-12.104-37.522z" />
<glyph unicode="&#xe92b;" horiz-adv-x="630" d="M629.497-62.79h-300.18l101.674 213.031-48.416 39.943 59.31 12.104-15.735 104.095-22.998 2.421 84.728-12.104c65.362-15.735 125.882-73.835 125.882-144.038l15.735-215.452zM409.204-39.792h87.149v117.409h-36.312v21.787h-14.525v-21.787h-36.312v-117.409z" />
<glyph unicode="&#xe92c;" horiz-adv-x="630" d="M329.318-62.79h-13.314v93.201l12.104 38.733 1.21 2.421 7.262 24.208 66.572 213.031 22.998-2.421 15.735-104.095-59.31-12.104 48.416-39.943z" />
<glyph unicode="&#xe92d;" horiz-adv-x="630" d="M445.516 70.355h14.525v29.050h-14.525z" />
<glyph unicode="&#xe92e;" horiz-adv-x="791" d="M724.762 410.1c-5.513 22.051-22.051 37.211-50.993 27.564-5.513-1.378-9.647-4.135-13.782-6.891 0 74.423 0 237.050 0 237.050h-537.497c0 0 0-162.627 0-237.050-4.135 2.756-8.269 5.513-13.782 6.891-28.942 9.647-45.48-5.513-50.993-27.564-11.026-41.346 0-88.205 26.186-126.794 11.026-13.782 26.186-24.808 38.59-20.673 0-9.647 0-16.538 0-22.051 0-121.281 126.794-281.152 268.748-281.152s268.748 159.871 268.748 281.152c0 5.513 0 12.404 0 22.051 12.404-4.135 27.564 6.891 38.59 20.673 26.186 38.59 37.211 85.448 26.186 126.794z" />
<glyph unicode="&#xe92f;" horiz-adv-x="791" d="M522.167-64l4.135 181.922-257.723-1.378v-180.544z" />
<glyph unicode="&#xe930;" horiz-adv-x="791" d="M659.987 228.178c0 0 0 0 0 0s0 0 0 0zM659.987 229.556c0 0 0 0 0 0s0 0 0 0zM659.987 229.556c0 0 0 0 0 0s0 0 0 0zM659.987 229.556c0 0 0 0 0 0s0 0 0 0zM659.987 229.556c0 0 0 0 0 0s0 0 0 0zM659.987 230.934c0 0 0 0 0 0s0 0 0 0zM659.987 230.934c0 0 0 0 0 0s0 0 0 0zM659.987 230.934c0 0 0 0 0 0s0 0 0 0zM659.987 230.934c0 0 0 0 0 0s0 0 0 0zM659.987 232.312c0 0 0 0 0 0s0 0 0 0zM659.987 232.312c0 0 0 0 0 0s0 0 0 0zM659.987 232.312c0 0 0 0 0 0s0 0 0 0zM659.987 232.312c0 0 0 0 0 1.378 0-1.378 0-1.378 0-1.378zM659.987 233.69c0 0 0 0 0 0s0 0 0 0zM659.987 233.69c0 0 0 0 0 0s0 0 0 0zM659.987 233.69c0 0 0 0 0 0s0 0 0 0zM659.987 233.69c0 0 0 1.378 0 1.378s0-1.378 0-1.378zM659.987 235.069c0 0 0 0 0 0s0 0 0 0zM659.987 235.069c0 0 0 0 0 0s0 0 0 0zM659.987 235.069c0 0 0 0 0 0s0 0 0 0zM659.987 235.069c0 0 0 1.378 0 1.378s0-1.378 0-1.378zM659.987 236.447c0 0 0 0 0 0s0 0 0 0zM659.987 236.447c0 0 0 0 0 0s0 0 0 0zM659.987 236.447c0 0 0 0 0 0s0 0 0 0zM659.987 236.447c0 1.378 0 1.378 0 1.378s0 0 0-1.378zM659.987 237.825c0 0 0 0 0 0s0 0 0 0zM659.987 237.825c0 0 0 0 0 0s0 0 0 0zM659.987 237.825c0 0 0 0 0 0s0 0 0 0zM659.987 237.825c0 1.378 0 1.378 0 1.378s0 0 0-1.378zM659.987 239.203c0 0 0 0 0 0s0 0 0 0zM659.987 239.203c0 0 0 0 0 0s0 0 0 0zM659.987 239.203c0 0 0 0 0 0s0 0 0 0zM659.987 240.581c0 0 0 0 0 0s0 0 0 0zM659.987 240.581c0 0 0 0 0 0v0c0 0 0 0 0 0zM728.897 377.023c0 11.026-1.378 22.051-4.135 33.077-2.756 13.782-12.404 26.186-26.186 28.942 13.782-2.756 23.429-15.16 26.186-28.942 2.756-11.026 4.135-22.051 4.135-33.077z" />
<glyph unicode="&#xe931;" horiz-adv-x="791" d="M523.545 4.91l2.756 113.012-125.416-1.378v547.144l252.21 4.135c24.808-48.237-11.026-318.363-6.891-376.248 15.16 50.993 23.429 95.096 26.186 146.089 0 0 1.378 0 1.378 0 5.513 1.378 11.026 2.756 16.538 2.756 2.756 0 5.513 0 8.269-1.378 13.782-2.756 23.429-15.16 26.186-28.942 2.756-11.026 4.135-22.051 4.135-33.077 0-27.564-6.891-55.128-22.051-79.935-2.756-4.135-5.513-9.647-8.269-13.782-9.647-12.404-22.051-22.051-31.699-22.051-2.756 0-4.135 1.378-6.891 1.378v0c0-6.891 0-13.782 0-19.295 0 0 0 0 0 0s0 0 0 0 0 0 0 0 0 0 0-1.378c0 0 0 0 0 0s0 0 0 0 0 0 0 0 0 0 0 0 0 0 0 0 0 0 0 0 0 0 0 0 0 0 0 0 0 0 0-1.378c0 0 0 0 0 0s0 0 0 0 0 0 0 0 0 0 0 0 0 0 0 0 0 0 0 0c0-1.378 0-1.378 0-1.378s0 0 0 0 0 0 0 0 0 0 0 0 0 0 0 0 0 0 0 0 0 0 0 0 0 0 0-1.378c0 0 0 0 0 0s0 0 0 0 0 0 0 0 0 0 0 0 0 0 0 0 0 0 0 0 0 0 0 0 0 0 0-1.378c0 0 0 0 0 0s0 0 0 0 0 0 0 0 0 0 0 0 0 0 0 0 0 0 0 0 0 0 0 0 0-1.378 0-1.378c0 0 0 0 0 0s0 0 0 0 0 0 0 0 0 0 0 0 0 0 0 0 0 0 0 0 0 0 0 0 0-1.378 0-1.378c0 0 0 0 0 0s0 0 0 0 0 0 0 0 0 0 0 0 0 0 0 0 0 0 0 0 0 0 0 0c0-1.378 0-1.378 0-1.378s0 0 0 0 0 0 0 0 0 0 0 0 0 0 0 0 0 0 0 0 0 0 0 0 0 0 0-1.378c0 0 0 0 0 0s0 0 0 0 0 0 0 0 0 0 0 0 0 0 0 0 0 0 0 0 0 0 0 0 0 0 0-1.378c0 0 0 0 0 0s0 0 0 0 0 0 0 0 0 0 0 0 0 0 0 0 0 0 0 0 0 0 0 0 0-1.378 0-1.378c0 0 0 0 0 0-5.513-77.179-60.641-169.518-136.441-223.268z" />
<glyph unicode="&#xe932;" horiz-adv-x="791" d="M400.886 116.544v0l125.416 1.378z" />
<glyph unicode="&#xe933;" horiz-adv-x="791" d="M400.886-64v180.544l125.416 1.378-4.135-181.922z" />
<glyph unicode="&#xe934;" horiz-adv-x="791" d="M529.058 652.662c-46.859-70.288-248.075-104.743-330.767-103.365 89.583 30.32 159.871 155.736 159.871 155.736s86.826-24.808 170.896-52.371z" />
<glyph unicode="&#xe935;" horiz-adv-x="791" d="M139.029 466.606c6.891-53.75 5.513-90.961-5.513-158.493-20.673 6.891-34.455 117.147 5.513 158.493z" />
<glyph unicode="&#xe936;" horiz-adv-x="791" d="M639.314 466.606c-5.513-55.128-4.135-90.961 6.891-158.493 20.673 6.891 34.455 117.147-6.891 158.493z" />
<glyph unicode="&#xe937;" horiz-adv-x="791" d="M518.033 682.983c16.538-177.787-165.384-219.133-165.384-137.82 4.135-17.917 82.692-45.48 110.256 101.987l55.128 35.833z" />
<glyph unicode="&#xe938;" horiz-adv-x="791" d="M125.247 316.382c-67.532 22.051-199.838 268.748-71.666 439.645 126.794 170.896 379.004 310.094 595.381 90.961 214.999-219.133 148.845-429.997 39.968-508.555-39.968-24.808-37.211-23.429-30.32 30.32 12.404 85.448-106.121 248.075-285.287 279.774-170.896-121.281-245.319-187.435-248.075-234.293-2.756-37.211 0-97.852 0-97.852z" />
<glyph unicode="&#xe939;" horiz-adv-x="791" d="M318.194 918.654c0 0 0 0 0-1.378 0 0 1.378-1.378 1.378-2.756 1.378-2.756 5.513-6.891 12.404-9.647 12.404-5.513 33.077-8.269 57.884-11.026 23.429-2.756 53.75-5.513 85.448-15.16 8.269-2.756 16.538-5.513 24.808-9.647 8.269-2.756 16.538-6.891 23.429-12.404 6.891-6.891 15.16-12.404 19.295-20.673 5.513-8.269 9.647-19.295 9.647-28.942-1.378-11.026-4.135-20.673-8.269-28.942-5.513-8.269-11.026-16.538-16.538-23.429-12.404-13.782-24.808-24.808-38.59-35.833-26.186-20.673-50.993-35.833-73.044-48.237-20.673-13.782-38.59-23.429-50.993-30.32s-17.917-11.026-19.295-11.026c0 1.378 6.891 5.513 17.917 13.782 12.404 6.891 28.942 17.917 49.615 31.699s46.859 28.942 71.666 49.615c12.404 11.026 26.186 22.051 37.211 35.833 5.513 6.891 11.026 13.782 15.16 22.051 4.135 6.891 6.891 15.16 6.891 24.808 0 17.917-11.026 33.077-24.808 42.724-6.891 5.513-15.16 9.647-22.051 13.782-8.269 2.756-15.16 5.513-23.429 8.269-31.699 9.647-60.641 12.404-85.448 16.538s-45.48 8.269-57.884 13.782c-6.891 2.756-11.026 8.269-12.404 11.026 0 2.756 0 4.135 0 4.135 0 1.378 0 1.378 0 1.378z" />
<glyph unicode="&#xe93a;" horiz-adv-x="791" d="M123.868 404.587c-1.378 0-2.756 5.513-6.891 15.16 0 2.756-1.378 5.513-2.756 8.269 0 2.756-1.378 6.891-1.378 9.647-1.378 8.269-4.135 16.538-4.135 26.186-1.378 4.135-1.378 9.647-1.378 15.16-1.378 4.135 0 9.647-1.378 15.16 1.378 5.513 0 11.026 1.378 17.917 0 5.513 1.378 11.026 1.378 17.917 4.135 24.808 9.647 52.371 20.673 78.557 9.647 27.564 22.051 52.371 35.833 73.044s27.564 38.59 39.968 52.371c4.135 4.135 6.891 6.891 9.647 11.026 2.756 2.756 5.513 5.513 8.269 6.891 5.513 5.513 11.026 9.647 15.16 13.782 8.269 5.513 13.782 9.647 13.782 8.269 0 0-17.917-15.16-42.724-42.724-12.404-13.782-24.808-33.077-38.59-53.75-12.404-20.673-24.808-44.102-34.455-71.666-11.026-26.186-16.538-52.371-20.673-77.179 0-5.513-1.378-11.026-1.378-17.917-1.378-5.513-1.378-11.026-1.378-16.538s0-11.026 0-15.16c0-5.513 0-11.026 0-15.16 1.378-9.647 2.756-17.917 4.135-24.808 0-4.135 0-6.891 1.378-9.647 0-4.135 1.378-6.891 1.378-8.269 2.756-11.026 4.135-16.538 4.135-16.538z" />
<glyph unicode="&#xe93b;" horiz-adv-x="791" d="M664.122 341.19c0 1.378 0 1.378 1.378 4.135s4.135 5.513 5.513 9.647c4.135 9.647 9.647 22.051 13.782 39.968 2.756 16.538 4.135 37.211 4.135 60.641-1.378 23.429-5.513 48.237-11.026 74.423-12.404 52.371-31.699 97.852-49.615 128.172-8.269 15.16-16.538 26.186-23.429 34.455-5.513 6.891-9.647 11.026-9.647 11.026s5.513-2.756 12.404-9.647c6.891-6.891 16.538-17.917 26.186-33.077 17.917-30.32 38.59-75.801 50.993-129.55 6.891-26.186 9.647-52.371 11.026-75.801 0-23.429-2.756-45.48-6.891-62.019-4.135-17.917-9.647-31.699-15.16-39.968-2.756-4.135-5.513-6.891-6.891-9.647-1.378-1.378-2.756-2.756-2.756-2.756z" />
<glyph unicode="&#xe93c;" horiz-adv-x="791" d="M739.922 466.606c0 0 0 4.135 1.378 13.782 0 1.378 1.378 4.135 1.378 6.891s0 5.513 0 8.269c1.378 6.891 1.378 13.782 1.378 20.673 0 31.699-6.891 75.801-24.808 119.903-8.269 22.051-17.917 42.724-28.942 60.641-4.135 9.647-9.647 17.917-15.16 26.186-5.513 6.891-9.647 13.782-15.16 20.673-9.647 12.404-17.917 22.051-24.808 27.564-5.513 5.513-9.647 9.647-9.647 9.647 1.378 1.378 5.513-1.378 12.404-6.891s16.538-15.16 26.186-27.564c5.513-5.513 11.026-12.404 16.538-20.673 5.513-6.891 11.026-15.16 16.538-24.808 11.026-17.917 20.673-38.59 28.942-62.019 17.917-45.48 24.808-89.583 23.429-122.659 0-6.891-1.378-15.16-1.378-20.673-1.378-2.756-1.378-6.891-1.378-9.647-1.378-1.378-1.378-4.135-2.756-6.891-1.378-8.269-4.135-12.404-4.135-12.404z" />
<glyph unicode="&#xe93d;" horiz-adv-x="653" d="M652.45 645.86c-6.088 174.117-149.765 314.14-326.316 314.14-180.205 0-326.316-146.112-326.316-326.316 35.31-204.556 133.936-228.908 187.51-441.988 116.889-77.926 108.366-59.662 295.876-15.829 26.787 196.033 170.464 314.14 170.464 457.817 0 3.653 0 8.523-1.218 12.176z" />
<glyph unicode="&#xe93e;" horiz-adv-x="653" d="M653.668 633.684c0 3.653 0 8.523-1.218 12.176-6.088 171.681-144.894 309.27-316.576 314.14v-819.444c32.875 6.088 75.491 18.264 147.329 35.31 26.787 196.033 170.464 314.14 170.464 457.817z" />
<glyph unicode="&#xe93f;" horiz-adv-x="653" d="M222.638 93.070v-101.061c0-30.44 20.699-56.010 45.051-56.010h135.153c24.352 0 45.051 25.57 45.051 56.010v101.061h-225.256z" />
<glyph unicode="&#xe940;" horiz-adv-x="653" d="M222.638 93.070v-101.061c0-30.44 20.699-56.010 45.051-56.010h66.968v157.070h-112.019z" />
<glyph unicode="&#xe941;" horiz-adv-x="653" d="M447.893-7.99v101.061h-113.237v-157.070h68.185c24.352 0 45.051 25.57 45.051 56.010z" />
<glyph unicode="&#xe942;" horiz-adv-x="653" d="M170.281 567.933c0 0 3.653-8.523 9.741-23.134 9.741-21.917 24.352-54.792 37.746-86.449 13.394-32.875 26.787-65.75 32.875-85.232v0 0c4.87-12.176 8.523-29.222 10.958-48.704 3.653-28.005 6.088-59.662 7.306-84.014 0-13.394 0-23.134 1.218-30.44 0-3.653 0-7.306 0-9.741 0-1.218 0-2.435 0-2.435 0-4.87 3.653-8.523 8.523-8.523s8.523 3.653 8.523 8.523c0 0 0 31.658-2.435 70.621-1.218 18.264-2.435 38.963-4.87 58.445-3.653 20.699-7.306 37.746-12.176 52.357v0c-9.741 26.787-29.222 75.491-47.486 118.107-17.046 41.398-32.875 77.926-32.875 77.926-2.435 3.653-7.306 6.088-12.176 3.653-4.87-1.218-6.088-6.088-4.87-10.958z" />
<glyph unicode="&#xe943;" horiz-adv-x="653" d="M488.074 575.239c0 0-14.611-36.528-32.875-77.926-18.264-42.616-37.746-91.32-47.486-118.107-4.87-14.611-8.523-31.658-10.958-52.357-8.523-58.445-8.523-129.065-8.523-129.065 0-4.87 3.653-8.523 8.523-8.523s8.523 3.653 8.523 8.523c0 0 0 1.218 0 4.87 1.218 12.176 1.218 43.834 3.653 77.926 2.435 17.046 3.653 35.31 6.088 51.139s6.088 30.44 9.741 41.398c8.523 25.57 29.222 75.491 47.486 116.889 8.523 20.699 17.046 40.181 23.134 54.792s9.741 23.134 9.741 23.134c1.218 4.87 0 9.741-4.87 10.958-4.87 2.435-9.741 0-12.176-3.653z" />
<glyph unicode="&#xe944;" horiz-adv-x="653" d="M167.846 216.048v-163.158c0-30.44 24.352-56.010 56.010-56.010h224.038c30.44 0 56.010 25.57 56.010 56.010v163.158h-336.057z" />
<glyph unicode="&#xe945;" horiz-adv-x="653" d="M272.559 519.229h-7.306c0-9.741-3.653-19.482-8.523-25.57s-10.958-9.741-17.046-9.741c-6.088 0-12.176 3.653-17.046 9.741s-7.306 15.829-7.306 25.57c0 9.741 2.435 19.482 7.306 25.57s10.958 9.741 17.046 9.741c6.088 0 12.176-3.653 17.046-9.741s8.523-15.829 8.523-25.57h14.611c0 13.394-3.653 25.57-10.958 35.31-7.306 8.523-17.046 14.611-29.222 14.611-10.958 0-21.917-6.088-29.222-14.611-6.088-9.741-10.958-21.917-10.958-35.31s4.87-25.57 10.958-34.093c7.306-9.741 18.264-15.829 29.222-15.829 12.176 0 21.917 6.088 29.222 15.829 7.306 8.523 10.958 20.699 10.958 34.093h-7.306z" />
<glyph unicode="&#xe946;" horiz-adv-x="653" d="M338.31 519.229h-8.523c0-9.741-2.435-19.482-7.306-25.57s-10.958-9.741-17.046-9.741c-6.088 0-12.176 3.653-17.046 9.741s-8.523 15.829-8.523 25.57c0 9.741 3.653 19.482 8.523 25.57s10.958 9.741 17.046 9.741c6.088 0 12.176-3.653 17.046-9.741s7.306-15.829 7.306-25.57h15.829c0 13.394-4.87 25.57-10.958 35.31-7.306 8.523-18.264 14.611-29.222 14.611-12.176 0-21.917-6.088-29.222-14.611-7.306-9.741-10.958-21.917-10.958-35.31s3.653-25.57 10.958-34.093c7.306-9.741 17.046-15.829 29.222-15.829 10.958 0 21.917 6.088 29.222 15.829 6.088 8.523 10.958 20.699 10.958 34.093h-7.306z" />
<glyph unicode="&#xe947;" horiz-adv-x="653" d="M402.842 519.229h-7.306c0-9.741-3.653-19.482-8.523-25.57s-10.958-9.741-17.046-9.741c-6.088 0-12.176 3.653-17.046 9.741s-7.306 15.829-7.306 25.57c0 9.741 2.435 19.482 7.306 25.57s10.958 9.741 17.046 9.741c6.088 0 12.176-3.653 17.046-9.741s8.523-15.829 8.523-25.57h14.611c0 13.394-3.653 25.57-10.958 35.31-7.306 8.523-17.046 14.611-29.222 14.611-10.958 0-21.917-6.088-28.005-14.611-7.306-9.741-12.176-21.917-12.176-35.31s4.87-25.57 12.176-34.093c6.088-9.741 17.046-15.829 28.005-15.829 12.176 0 21.917 6.088 29.222 15.829 7.306 8.523 10.958 20.699 10.958 34.093h-7.306z" />
<glyph unicode="&#xe948;" horiz-adv-x="653" d="M468.593 519.229h-7.306c0-9.741-3.653-19.482-8.523-25.57s-10.958-9.741-17.046-9.741c-6.088 0-12.176 3.653-17.046 9.741s-8.523 15.829-8.523 25.57c0 9.741 3.653 19.482 8.523 25.57s10.958 9.741 17.046 9.741c6.088 0 12.176-3.653 17.046-9.741s8.523-15.829 8.523-25.57h14.611c0 13.394-4.87 25.57-10.958 35.31-7.306 8.523-17.046 14.611-29.222 14.611s-21.917-6.088-29.222-14.611c-7.306-9.741-10.958-21.917-10.958-35.31s3.653-25.57 10.958-34.093c7.306-9.741 17.046-15.829 29.222-15.829s21.917 6.088 29.222 15.829c6.088 8.523 10.958 20.699 10.958 34.093h-7.306z" />
<glyph unicode="&#xe949;" horiz-adv-x="653" d="M514.861 167.344c0-4.87-3.653-8.523-7.306-8.523h-345.798c-3.653 0-7.306 3.653-7.306 8.523v14.611c0 3.653 3.653 7.306 7.306 7.306h345.798c3.653 0 7.306-3.653 7.306-7.306v-14.611z" />
<glyph unicode="&#xe94a;" horiz-adv-x="653" d="M514.861 118.64c0-3.653-3.653-7.306-7.306-7.306h-345.798c-3.653 0-7.306 3.653-7.306 7.306v14.611c0 4.87 3.653 8.523 7.306 8.523h345.798c3.653 0 7.306-3.653 7.306-8.523v-14.611z" />
<glyph unicode="&#xe94b;" horiz-adv-x="653" d="M516.079 71.153c0-4.87-3.653-8.523-7.306-8.523h-345.798c-4.87 0-7.306 3.653-7.306 8.523v13.394c0 4.87 2.435 8.523 7.306 8.523h345.798c3.653 0 7.306-3.653 7.306-8.523v-13.394z" />
<glyph unicode="&#xe94c;" horiz-adv-x="1025" d="M365.149 707.865c57.207-53.555 119.282-47.469 165.534 3.651-52.338 51.121-113.196 48.687-165.534-3.651zM155.797 572.759c71.813-12.172 126.585 25.56 135.105 99.807-74.247 10.954-124.151-26.778-135.105-99.807zM598.845 650.658c-13.389 3.651-25.56 8.52-37.732 10.954-42.601 6.086-76.681-13.389-94.939-54.772-10.954-23.126-20.692-45.035-31.646-68.161-1.217-2.434-6.086-6.086-8.52-6.086-57.207 8.52-96.156-14.606-124.151-63.293-15.823-24.343-23.126-52.338-27.995-81.55 0-2.434 0-6.086 0-8.52 19.475 19.475 38.949 38.949 59.641 57.207s43.818 32.863 70.596 36.515c-15.823-55.99-32.863-113.196-49.904-172.837-18.257 8.52-38.949 15.823-58.424 25.56-53.555 26.778-96.156 66.944-132.671 113.196-62.075 77.899-103.459 166.752-137.54 259.256-7.303 17.040-13.389 34.081-20.692 51.121-9.737 24.343-6.086 34.081 15.823 46.252 54.772 31.646 109.545 64.51 165.534 93.722 52.338 27.995 109.545 40.166 167.969 49.904 45.035 7.303 91.287 13.389 136.322 19.475 2.434 0 6.086 0 8.52 1.217 20.692 1.217 29.212-3.651 35.298-24.343 9.737-27.995 18.257-57.207 26.778-85.201 18.257-62.075 31.646-126.585 37.732-192.312 1.217-2.434 0-4.869 0-7.303z" />
<glyph unicode="&#xe94d;" horiz-adv-x="1025" d="M227.61 908.697l149.711-377.321c-31.646-7.303-57.207-29.212-75.464-62.075-15.823-24.343-23.126-52.338-27.995-81.55 0-2.434 0-6.086 0-8.52 19.475 19.475 38.949 38.949 59.641 57.207 19.475 17.040 41.384 31.646 66.944 36.515l2.434-6.086-48.687-166.752c-18.257 8.52-38.949 15.823-58.424 25.56-53.555 26.778-96.156 66.944-132.671 113.196-62.075 77.899-103.459 166.752-137.54 259.256-7.303 17.040-13.389 34.081-20.692 51.121-9.737 24.343-6.086 34.081 15.823 46.252 54.772 31.646 109.545 64.51 165.534 93.722 13.389 7.303 27.995 13.389 41.384 19.475zM155.797 572.759c71.813-12.172 126.585 25.56 135.105 99.807-74.247 10.954-124.151-26.778-135.105-99.807z" />
<glyph unicode="&#xe94e;" horiz-adv-x="1025" d="M508.775 381.665c27.995-66.944 85.201-92.504 149.711-73.030-26.778 68.161-86.419 92.504-149.711 73.030zM709.607 283.074c27.995-69.378 86.419-93.722 150.928-74.247-26.778 68.161-85.201 93.722-150.928 74.247zM489.3 239.256c-2.434-43.818 1.217-85.201 19.475-125.368 25.56-52.338 71.813-73.030 127.802-60.858 30.429 7.303 55.99 20.692 80.333 37.732 9.737 6.086 19.475 14.606 29.212 21.909-26.778-1.217-51.121-3.651-76.681-3.651-34.081 1.217-68.161 4.869-96.156 27.995-14.606 12.172-29.212 26.778-41.384 41.384-15.823 19.475-27.995 40.166-42.601 60.858zM407.75 191.787c0 69.378 13.389 136.322 35.298 202.049 14.606 41.384 31.646 82.767 48.687 122.934 8.52 21.909 18.257 41.384 27.995 63.293 9.737 20.692 19.475 26.778 38.949 20.692 64.51-19.475 129.019-37.732 192.312-59.641s118.065-59.641 171.62-98.59c29.212-20.692 57.207-41.384 85.201-62.075 18.257-14.606 20.692-25.56 9.737-45.035-29.212-53.555-58.424-108.328-91.287-161.883-42.601-65.727-92.504-124.151-155.797-170.403-42.601-30.429-87.636-53.555-138.757-62.075-27.995-6.086-55.99-6.086-83.984-1.217-35.298 4.869-58.424 25.56-79.116 52.338-40.166 51.121-57.207 110.762-60.858 174.054 0 8.52 0 17.040 0 25.56z" />
<glyph unicode="&#xe94f;" horiz-adv-x="1025" d="M508.775 381.665c27.995-66.944 85.201-92.504 149.711-73.030-26.778 68.161-86.419 92.504-149.711 73.030zM798.46 520.421c-35.298-75.464-130.237-255.604-205.701-396.796-6.086 3.651-13.389 8.52-19.475 13.389-14.606 12.172-29.212 26.778-41.384 41.384-15.823 19.475-27.995 40.166-42.601 60.858-2.434-43.818 1.217-85.201 19.475-125.368 13.389-24.343 30.429-42.601 51.121-53.555-24.343-45.035-43.818-81.55-55.99-103.459-13.389 9.737-24.343 21.909-35.298 35.298-40.166 51.121-57.207 110.762-60.858 174.054 0 8.52 0 17.040 0 25.56v0c0 69.378 13.389 136.322 35.298 202.049 14.606 41.384 31.646 82.767 48.687 122.934 8.52 21.909 18.257 41.384 27.995 63.293 9.737 20.692 19.475 26.778 38.949 20.692 64.51-19.475 129.019-37.732 192.312-59.641 17.040-6.086 32.863-13.389 47.469-20.692z" />
<glyph unicode="&#xe950;" horiz-adv-x="982" d="M290.859 417.294c-21.423-54.271-74.265-92.831-135.676-92.831-62.84 0-115.682 38.561-135.676 92.831h271.353z" />
<glyph unicode="&#xe951;" horiz-adv-x="982" d="M290.859 435.861c-1.428 0-4.285 1.428-4.285 2.856l-131.392 251.358-131.392-251.358c-1.428-1.428-4.285-2.856-7.141-1.428s-2.856 4.285-1.428 7.141l135.676 258.499c1.428 2.856 5.713 2.856 8.569 0l135.676-258.499c1.428-2.856 0-5.713-2.856-7.141l-1.428-1.428z" />
<glyph unicode="&#xe952;" horiz-adv-x="982" d="M155.183 424.435c-2.856 0-5.713 2.856-5.713 4.285v271.353c0 2.856 2.856 5.713 5.713 5.713s4.285-2.856 4.285-5.713v-271.353c0-1.428-1.428-4.285-4.285-4.285z" />
<glyph unicode="&#xe953;" horiz-adv-x="982" d="M-0.488 417.294h309.914v24.279h-309.914z" />
<glyph unicode="&#xe954;" horiz-adv-x="982" d="M155.183 324.463v0 92.831h135.676c-21.423-54.271-74.265-92.831-135.676-92.831z" />
<glyph unicode="&#xe955;" horiz-adv-x="982" d="M290.859 417.294h-135.676v24.279h154.243v-24.279h-18.566c0 0 0 0 0 0z" />
<glyph unicode="&#xe956;" horiz-adv-x="982" d="M962.101 417.294c-19.994-54.271-72.837-92.831-135.676-92.831-61.411 0-114.254 38.561-135.676 92.831h271.353z" />
<glyph unicode="&#xe957;" horiz-adv-x="982" d="M962.101 435.861c-1.428 0-2.856 1.428-4.285 2.856l-131.392 251.358-131.392-251.358c-1.428-1.428-4.285-2.856-7.141-1.428-1.428 1.428-2.856 4.285-1.428 7.141l135.676 258.499c1.428 2.856 7.141 2.856 8.569 0l135.676-258.499c1.428-2.856 0-5.713-1.428-7.141l-2.856-1.428z" />
<glyph unicode="&#xe958;" horiz-adv-x="982" d="M826.424 424.435c-2.856 0-4.285 2.856-4.285 4.285v271.353c0 2.856 1.428 5.713 4.285 5.713s4.285-2.856 4.285-5.713v-271.353c0-1.428-1.428-4.285-4.285-4.285z" />
<glyph unicode="&#xe959;" horiz-adv-x="982" d="M670.753 417.294h311.342v24.279h-311.342z" />
<glyph unicode="&#xe95a;" horiz-adv-x="982" d="M826.424 324.463v92.831h135.676c-21.423-54.271-74.265-92.831-135.676-92.831z" />
<glyph unicode="&#xe95b;" horiz-adv-x="982" d="M962.101 417.294h-135.676v24.279h155.671v-24.279h-19.994c0 0 0 0 0 0z" />
<glyph unicode="&#xe95c;" horiz-adv-x="982" d="M489.375 782.907v-49.986c-51.414-1.428-108.541-28.563-154.243-54.271-32.848-17.138-71.409-24.279-97.116-21.423-38.561 4.285-75.693 22.851-112.826 45.702v28.563c37.132-24.279 68.552-37.132 109.969-38.561 38.561-1.428 68.552 17.138 99.972 35.704 45.702 28.563 102.828 52.842 154.243 54.271z" />
<glyph unicode="&#xe95d;" horiz-adv-x="982" d="M155.183 720.067c0-15.71-12.854-28.563-28.563-28.563s-28.563 12.854-28.563 28.563c0 15.71 12.854 28.563 28.563 28.563s28.563-12.854 28.563-28.563z" />
<glyph unicode="&#xe95e;" horiz-adv-x="982" d="M489.375 782.907v-49.986c49.986-1.428 108.541-28.563 154.243-54.271 32.848-17.138 71.409-24.279 97.116-21.423 37.132 4.285 75.693 22.851 112.826 45.702v28.563c-37.132-24.279-68.552-37.132-111.397-38.561-37.132-1.428-68.552 17.138-98.544 35.704-45.702 28.563-104.257 52.842-154.243 54.271z" />
<glyph unicode="&#xe95f;" horiz-adv-x="982" d="M826.424 720.067c0-15.71 12.854-28.563 28.563-28.563s28.563 12.854 28.563 28.563c0 15.71-12.854 28.563-28.563 28.563s-28.563-12.854-28.563-28.563z" />
<glyph unicode="&#xe960;" horiz-adv-x="982" d="M453.671 128.803h71.409v741.222h-71.409z" />
<glyph unicode="&#xe961;" horiz-adv-x="982" d="M550.787 748.63c0-34.276-27.135-61.411-61.411-61.411s-61.411 27.135-61.411 61.411c0 34.276 27.135 61.411 61.411 61.411s61.411-27.135 61.411-61.411z" />
<glyph unicode="&#xe962;" horiz-adv-x="982" d="M536.505 912.87c0-25.707-21.423-47.13-47.13-47.13s-47.13 21.423-47.13 47.13c0 25.707 21.423 47.13 47.13 47.13s47.13-21.423 47.13-47.13z" />
<glyph unicode="&#xe963;" horiz-adv-x="982" d="M517.939 748.63c0-15.71-12.854-28.563-28.563-28.563s-28.563 12.854-28.563 28.563c0 15.71 12.854 28.563 28.563 28.563s28.563-12.854 28.563-28.563z" />
<glyph unicode="&#xe964;" horiz-adv-x="982" d="M290.859 10.265h397.032v118.538h-397.032z" />
<glyph unicode="&#xe965;" horiz-adv-x="982" d="M128.048-64h721.227v81.406h-721.227z" />
<glyph unicode="&#xe966;" horiz-adv-x="982" d="M290.859 80.245h397.032v27.135h-397.032z" />
<glyph unicode="&#xe967;" horiz-adv-x="982" d="M543.646 865.741c0-9.997-8.569-19.994-19.994-19.994h-68.552c-11.425 0-19.994 9.997-19.994 19.994 0 11.425 8.569 19.994 19.994 19.994h68.552c11.425 0 19.994-8.569 19.994-19.994z" />
<glyph unicode="&#xe968;" horiz-adv-x="982" d="M687.891 17.406h-198.516v62.84h198.516v-62.84zM687.891 107.381h-198.516v21.423h198.516v-21.423z" />
<glyph unicode="&#xe969;" horiz-adv-x="982" d="M687.891 80.245h-198.516v27.135h198.516z" />
<glyph unicode="&#xe96a;" horiz-adv-x="982" d="M525.080 128.803v0z" />
<glyph unicode="&#xe96b;" horiz-adv-x="982" d="M149.47 441.573v0 238.505z" />
<glyph unicode="&#xe96c;" horiz-adv-x="982" d="M285.147 441.573v0l-125.679 238.505z" />
<glyph unicode="&#xe96d;" horiz-adv-x="982" d="M155.183 324.463c-38.561 0-72.837 14.282-98.544 38.561l-1.428 1.428c25.707-25.707 59.983-39.989 99.972-39.989v0z" />
<glyph unicode="&#xe96e;" horiz-adv-x="982" d="M309.425 417.294v0 24.279z" />
<glyph unicode="&#xe96f;" horiz-adv-x="982" d="M290.859 128.803v0z" />
<glyph unicode="&#xe970;" horiz-adv-x="601" d="M11.358 906.426c0 24.352 8.523 43.834 28.005 49.922v-253.26c0-8.523 7.306-15.829 17.046-15.829 8.523 0 17.046 7.306 17.046 15.829v231.344c0 0-1.218 1.218-1.218 2.435 0 12.176 6.088 21.917 13.394 21.917s13.394-9.741 13.394-21.917v-233.779c0-8.523 7.306-14.611 15.829-14.611l1.218-1.218v1.218c9.741 0 15.829 6.088 15.829 14.611v231.344h1.218l-1.218 2.435c0 12.176 6.088 21.917 13.394 21.917s13.394-9.741 13.394-21.917c0-1.218 0-2.435 0-2.435v-231.344c0-8.523 7.306-15.829 17.046-15.829 8.523 0 15.829 7.306 15.829 15.829v253.26c19.482-6.088 28.005-25.57 28.005-49.922l12.176-265.436c0-28.005-23.134-52.357-52.357-52.357h-42.616l29.222-579.577h-1.218c0-1.218 1.218-2.435 1.218-4.87 0-36.528-21.917-66.968-49.922-68.185v0 0h-1.218c-26.787 1.218-48.704 31.658-48.704 68.185 0 2.435 0 3.653 0 4.87v0l29.222 579.577h-42.616c-29.222 0-52.357 24.352-52.357 52.357l10.958 265.436z" />
<glyph unicode="&#xe971;" horiz-adv-x="601" d="M330.369 763.967c0 96.19 60.88 196.033 135.153 196.033 75.491 0 136.371-99.843 136.371-196.033 0-87.667-49.922-159.505-114.454-172.899l29.222-582.012c0-1.218 0-2.435 0-4.87 0-37.746-23.134-68.185-51.139-68.185-26.787 0-49.922 30.44-49.922 68.185 0 1.218 0 2.435 0 3.653v0l29.222 583.229c-64.533 13.394-114.454 85.232-114.454 172.899z" />
<glyph unicode="&#xe972;" horiz-adv-x="601" d="M466.74 619.073c60.88 0 110.801 54.792 110.801 141.241 0 85.232-47.486 166.811-108.366 166.811-62.098 0-114.454-81.579-114.454-166.811 0-86.449 51.139-141.241 112.019-141.241z" />
<glyph unicode="&#xe973;" horiz-adv-x="981" d="M627.238-51.824h297.094v260.566h-297.094z" />
<glyph unicode="&#xe974;" horiz-adv-x="981" d="M862.234 71.153h32.875v105.931h-32.875z" />
<glyph unicode="&#xe975;" horiz-adv-x="981" d="M220.56-51.824h348.233v450.511h-348.233z" />
<glyph unicode="&#xe976;" horiz-adv-x="981" d="M247.347 309.803h24.352v65.75h-24.352z" />
<glyph unicode="&#xe977;" horiz-adv-x="981" d="M292.398 309.803h24.352v65.75h-24.352z" />
<glyph unicode="&#xe978;" horiz-adv-x="981" d="M337.45 309.803h25.57v65.75h-25.57z" />
<glyph unicode="&#xe979;" horiz-adv-x="981" d="M383.718 309.803h24.352v65.75h-24.352z" />
<glyph unicode="&#xe97a;" horiz-adv-x="981" d="M428.769 309.803h24.352v65.75h-24.352z" />
<glyph unicode="&#xe97b;" horiz-adv-x="981" d="M473.821 309.803h24.352v65.75h-24.352z" />
<glyph unicode="&#xe97c;" horiz-adv-x="981" d="M520.089 309.803h24.352v65.75h-24.352z" />
<glyph unicode="&#xe97d;" horiz-adv-x="981" d="M247.347 225.788h24.352v65.75h-24.352z" />
<glyph unicode="&#xe97e;" horiz-adv-x="981" d="M292.398 225.788h24.352v65.75h-24.352z" />
<glyph unicode="&#xe97f;" horiz-adv-x="981" d="M337.45 225.788h25.57v65.75h-25.57z" />
<glyph unicode="&#xe980;" horiz-adv-x="981" d="M383.718 225.788h24.352v65.75h-24.352z" />
<glyph unicode="&#xe981;" horiz-adv-x="981" d="M428.769 225.788h24.352v65.75h-24.352z" />
<glyph unicode="&#xe982;" horiz-adv-x="981" d="M473.821 225.788h24.352v65.75h-24.352z" />
<glyph unicode="&#xe983;" horiz-adv-x="981" d="M520.089 225.788h24.352v65.75h-24.352z" />
<glyph unicode="&#xe984;" horiz-adv-x="981" d="M428.769 141.774h24.352v64.533h-24.352z" />
<glyph unicode="&#xe985;" horiz-adv-x="981" d="M473.821 141.774h24.352v64.533h-24.352z" />
<glyph unicode="&#xe986;" horiz-adv-x="981" d="M520.089 141.774h24.352v64.533h-24.352z" />
<glyph unicode="&#xe987;" horiz-adv-x="981" d="M289.963 168.561v90.102l-103.496-90.102h-1.218v90.102l-104.713-90.102v-220.385h314.14v310.488z" />
<glyph unicode="&#xe988;" horiz-adv-x="981" d="M394.677 100.376h211.862l52.357-152.2h-264.219z" />
<glyph unicode="&#xe989;" horiz-adv-x="981" d="M834.23-51.824c0 0-35.31 275.177-35.31 403.025s0 282.483 0 282.483h-104.713c0 0 0-154.635 0-282.483s-35.31-403.025-35.31-403.025h175.334z" />
<glyph unicode="&#xe98a;" horiz-adv-x="981" d="M834.23-51.824h-87.667v685.508h52.357c0 0 0 0 0-1.218s0-3.653 0-7.306c0-3.653 0-8.523 0-13.394 0-3.653 0-8.523 0-13.394 0-40.181 0-110.801 0-181.422 0-4.87 0-10.958 0-15.829 0-17.046 0-34.093 0-49.922v0c0-127.848 35.31-403.025 35.31-403.025z" />
<glyph unicode="&#xe98b;" horiz-adv-x="981" d="M0.175-64h980.166v24.352h-980.166z" />
<glyph unicode="&#xe98c;" horiz-adv-x="981" d="M417.811 54.107h170.464v24.352h-170.464z" />
<glyph unicode="&#xe98d;" horiz-adv-x="981" d="M421.464 398.687h-60.88c0 7.306 1.218 14.611 1.218 21.917 1.218 18.264 1.218 36.528 2.435 54.792 1.218 28.005 1.218 56.010 2.435 84.014 1.218 18.264 1.218 36.528 2.435 54.792l2.435 51.139c0 18.264 1.218 37.746 1.218 56.010 1.218 12.176 1.218 24.352 2.435 37.746h32.875c0-13.394 1.218-25.57 1.218-37.746 1.218-18.264 1.218-37.746 2.435-56.010l1.218-51.139c1.218-18.264 1.218-36.528 2.435-54.792 1.218-28.005 2.435-56.010 3.653-84.014 0-18.264 1.218-36.528 1.218-54.792 1.218-7.306 1.218-14.611 1.218-21.917z" />
<glyph unicode="&#xe98e;" horiz-adv-x="981" d="M505.478 398.687h-60.88c0 7.306 0 14.611 1.218 21.917 0 18.264 1.218 36.528 1.218 54.792 1.218 28.005 2.435 56.010 3.653 84.014 1.218 18.264 1.218 36.528 2.435 54.792 0 17.046 1.218 34.093 1.218 51.139 1.218 18.264 1.218 37.746 2.435 56.010 0 12.176 1.218 24.352 1.218 37.746h34.093l1.218-37.746c0-18.264 1.218-37.746 1.218-56.010 1.218-17.046 1.218-34.093 2.435-51.139 1.218-18.264 1.218-36.528 2.435-54.792 1.218-28.005 1.218-56.010 2.435-84.014 1.218-18.264 2.435-36.528 2.435-54.792 0-7.306 1.218-14.611 1.218-21.917z" />
<glyph unicode="&#xe98f;" horiz-adv-x="981" d="M555.4 398.687h-15.829v129.065h154.635v-15.829h-138.806z" />
<glyph unicode="&#xe990;" horiz-adv-x="981" d="M616.28 276.927l-160.723-176.552h65.75l116.889 127.848h49.922c1.218 17.046 2.435 32.875 3.653 48.704h-75.491z" />
<glyph unicode="&#xe991;" horiz-adv-x="981" d="M568.793 368.247h125.413v15.829h-125.413z" />
<glyph unicode="&#xe992;" horiz-adv-x="981" d="M870.758 208.742h-15.829v159.505h-56.010v15.829h71.838z" />
<glyph unicode="&#xe993;" horiz-adv-x="981" d="M907.286 208.742h-24.352v37.746h-80.361v24.352h104.713z" />
<glyph unicode="&#xe994;" horiz-adv-x="981" d="M675.942 599.591h141.241v15.829h-141.241z" />
<glyph unicode="&#xe995;" horiz-adv-x="981" d="M675.942 458.35h141.241v17.046h-141.241z" />
<glyph unicode="&#xe996;" horiz-adv-x="981" d="M675.942 315.891h141.241v15.829h-141.241z" />
<glyph unicode="&#xe997;" horiz-adv-x="981" d="M675.942 172.214h141.241v17.046h-141.241z" />
<glyph unicode="&#xe998;" horiz-adv-x="981" d="M658.895 16.361h175.334v15.829h-175.334z" />
<glyph unicode="&#xe999;" horiz-adv-x="981" d="M409.288 721.351c1.218-18.264 1.218-37.746 2.435-56.010h-40.181c0 18.264 1.218 37.746 1.218 56.010h36.528z" />
<glyph unicode="&#xe99a;" horiz-adv-x="981" d="M494.52 665.341h-40.181c1.218 18.264 1.218 37.746 2.435 56.010h36.528c0-18.264 1.218-37.746 1.218-56.010z" />
<glyph unicode="&#xe99b;" horiz-adv-x="981" d="M412.941 614.202c1.218-18.264 1.218-36.528 2.435-54.792h-48.704c1.218 18.264 1.218 36.528 2.435 54.792h43.834z" />
<glyph unicode="&#xe99c;" horiz-adv-x="981" d="M499.39 559.41h-48.704c1.218 18.264 1.218 36.528 2.435 54.792h43.834c1.218-18.264 1.218-36.528 2.435-54.792z" />
<glyph unicode="&#xe99d;" horiz-adv-x="981" d="M420.246 420.604h-58.445c1.218 18.264 1.218 36.528 2.435 54.792h54.792c0-18.264 1.218-36.528 1.218-54.792z" />
<glyph unicode="&#xe99e;" horiz-adv-x="981" d="M504.261 420.604h-58.445c0 18.264 1.218 36.528 1.218 54.792h54.792c1.218-18.264 2.435-36.528 2.435-54.792z" />
<glyph unicode="&#xe99f;" horiz-adv-x="981" d="M59.837-51.824h-17.046v147.329h37.746v-17.046h-20.699z" />
<glyph unicode="&#xe9a0;" horiz-adv-x="981" d="M109.759 50.454h36.528v82.797h-36.528z" />
<glyph unicode="&#xe9a1;" horiz-adv-x="981" d="M166.986 50.454h36.528v82.797h-36.528z" />
<glyph unicode="&#xe9a2;" horiz-adv-x="981" d="M224.213 50.454h36.528v82.797h-36.528z" />
<glyph unicode="&#xe9a3;" horiz-adv-x="981" d="M281.44 50.454h36.528v82.797h-36.528z" />
<glyph unicode="&#xe9a4;" horiz-adv-x="981" d="M337.45 50.454h37.746v82.797h-37.746z" />
<glyph unicode="&#xe9a5;" horiz-adv-x="981" d="M417.811 7.838h170.464v24.352h-170.464z" />
<glyph unicode="&#xe9a6;" horiz-adv-x="981" d="M237.607 398.687h18.264v93.755h-18.264z" />
<glyph unicode="&#xe9a7;" horiz-adv-x="981" d="M271.699 398.687h18.264v93.755h-18.264z" />
<glyph unicode="&#xe9a8;" horiz-adv-x="981" d="M750.215 683.605c35.31 17.046 17.046 64.533-18.264 64.533 37.746 23.134 45.051 90.102-18.264 98.625 35.31 59.662-65.75 141.241-119.325 81.579-15.829 53.574-92.537 29.222-86.449-6.088-46.269 18.264-75.491-80.361 0-99.843-14.611-12.176 3.653-36.528 25.57-25.57-42.616-28.005-12.176-121.76 59.662-86.449-4.87-34.093 66.968-43.834 73.056 9.741 7.306-35.31 32.875-23.134 34.093-18.264 2.435 3.653-13.394-18.264 12.176-23.134-1.218-66.968 75.491-15.829 37.746 4.87z" />
<glyph unicode="&#xe9a9;" horiz-adv-x="1170" d="M712.098 882.294c35.892 0 67.477-33.021 67.477-68.913v-55.992h78.962v55.992c0 80.398-66.041 146.44-146.44 146.44h-127.776v-77.527h127.776z" />
<glyph unicode="&#xe9aa;" horiz-adv-x="1170" d="M389.070 813.381c0 35.892 31.585 68.913 67.477 68.913h127.776v77.527h-127.776c-78.962 0-145.004-66.041-145.004-146.44v-55.992h77.527v55.992z" />
<glyph unicode="&#xe9ab;" horiz-adv-x="1170" d="M0 112.768v-30.149c0-80.398 66.041-146.44 146.44-146.44h437.883v176.589h-584.322z" />
<glyph unicode="&#xe9ac;" horiz-adv-x="1170" d="M584.322-63.82h439.319c80.398 0 146.44 66.041 146.44 146.44v30.149h-585.758v-176.589z" />
<glyph unicode="&#xe9ad;" horiz-adv-x="1170" d="M584.322 757.389h-437.883c-80.398 0-146.44-55.992-146.44-136.39v-51.685h584.322v188.074z" />
<glyph unicode="&#xe9ae;" horiz-adv-x="1170" d="M1023.641 757.389h-439.319v-188.074h585.758v51.685c0 80.398-66.041 136.39-146.44 136.39z" />
<glyph unicode="&#xe9af;" horiz-adv-x="1170" d="M584.322 194.602h-45.942v93.319h-94.755v117.726h94.755v93.319h45.942v70.348h-584.322v-456.547h584.322z" />
<glyph unicode="&#xe9b0;" horiz-adv-x="1170" d="M584.322 498.967h47.377v-93.319h93.319v-117.726h-93.319v-93.319h-47.377v-81.834h585.758v456.547h-585.758z" />
<glyph unicode="&#xe9b1;" horiz-adv-x="1170" d="M538.381 405.647h-94.755v-117.726h94.755v-93.319h45.942v304.364h-45.942z" />
<glyph unicode="&#xe9b2;" horiz-adv-x="1170" d="M631.7 194.602v93.319h93.319v117.726h-93.319v93.319h-47.377v-304.364z" />
<glyph unicode="&#xe9b3;" horiz-adv-x="1025" d="M126.585 371.927c25.56-8.52 86.419 58.424 96.156 122.934 8.52 54.772 13.389 119.282-10.954 136.322-24.343 18.257-178.923-228.827-85.201-259.256z" />
<glyph unicode="&#xe9b4;" horiz-adv-x="1025" d="M165.534 404.791c0 0 19.475-9.737 58.424 64.51s42.601 122.934 24.343 132.671c-17.040 10.954-87.636-127.802-82.767-189.878v-7.303z" />
<glyph unicode="&#xe9b5;" horiz-adv-x="1025" d="M893.399 371.927c-25.56-7.303-81.55 64.51-87.636 129.019-4.869 54.772-7.303 119.282 18.257 136.322 24.343 15.823 164.317-239.781 69.378-265.342z" />
<glyph unicode="&#xe9b6;" horiz-adv-x="1025" d="M858.101 408.442c0 0-20.692-9.737-54.772 66.944-35.298 76.681-36.515 124.151-18.257 133.888s81.55-132.671 73.030-193.529v-7.303z" />
<glyph unicode="&#xe9b7;" horiz-adv-x="1025" d="M760.728 425.482c-27.995-15.823-42.601-38.949-64.51-51.121s-153.363 74.247-153.363 74.247l6.086 30.429 60.858 31.646c0 0 161.883-79.116 150.928-85.201z" />
<glyph unicode="&#xe9b8;" horiz-adv-x="1025" d="M228.827 609.274c0 0 87.636-65.727 127.802-70.596 41.384-4.869 97.373 0 122.934-8.52 24.343-8.52 71.813-58.424 104.676-75.464 34.081-15.823 94.939-46.252 107.11-62.075 13.389-15.823 14.606-36.515 13.389-54.772s-31.646-35.298-31.646-35.298c0 0 2.434-15.823-10.954-31.646s-35.298-12.172-35.298-12.172c0 0 6.086-15.823-7.303-27.995-14.606-13.389-34.081-8.52-34.081-8.52s-3.651-8.52-17.040-21.909c-13.389-13.389-23.126-14.606-48.687-3.651s-172.837 91.287-194.746 108.328c-23.126 15.823-120.499 99.807-177.706 126.585l81.55 177.706z" />
<glyph unicode="&#xe9b9;" horiz-adv-x="1025" d="M335.937 323.241c0 0 21.909 21.909 43.818 12.172 20.692-9.737 20.692-37.732 19.475-40.166-1.217-1.217 30.429 18.257 47.469 4.869 17.040-14.606 12.172-35.298 12.172-35.298l25.56 9.737c0 0 32.863-10.954 19.475-41.384l27.995 3.651c0 0 23.126-21.909 13.389-38.949 0 0-167.969 54.772-209.352 125.368z" />
<glyph unicode="&#xe9ba;" horiz-adv-x="1025" d="M573.284 460.78c-15.823 10.954-32.863 25.56-49.904 38.949l-42.601-144.843c0 0 3.651-34.081 31.646-35.298s58.424 21.909 53.555 55.99c-4.869 32.863-8.52 49.904-7.303 62.075 1.217 6.086 8.52 15.823 14.606 23.126z" />
<glyph unicode="&#xe9bb;" horiz-adv-x="1025" d="M619.537 230.736c-21.909-4.869-37.732 13.389-57.207 30.429-19.475 15.823-42.601 18.257-42.601 18.257s21.909-25.56 40.166-30.429c18.257-4.869 25.56-26.778 25.56-26.778s19.475-4.869 34.081 8.52z" />
<glyph unicode="&#xe9bc;" horiz-adv-x="1025" d="M147.277 431.568c57.207-26.778 154.58-110.762 177.706-126.585 21.909-17.040 169.186-97.373 194.746-108.328s35.298-9.737 48.687 3.651c-18.257-3.651-43.818 9.737-43.818 9.737s-97.373 59.641-143.625 91.287c-46.252 30.429-93.722 76.681-138.757 118.065-31.646 30.429-48.687 75.464-54.772 98.59l-40.166-86.419z" />
<glyph unicode="&#xe9bd;" horiz-adv-x="1025" d="M662.137 270.903c-8.52-6.086-15.823-7.303-26.778 6.086-12.172 13.389-17.040 25.56-35.298 27.995-17.040 3.651-42.601 19.475-42.601 19.475 3.651-8.52 10.954-19.475 26.778-25.56 14.606-6.086 35.298-25.56 42.601-40.166 0 0 21.909-3.651 35.298 12.172z" />
<glyph unicode="&#xe9be;" horiz-adv-x="1025" d="M648.749 339.064c18.257-14.606 24.343-36.515 24.343-36.515s27.995 15.823 31.646 32.863c-1.217 0-2.434-1.217-3.651-3.651-10.954-15.823-24.343-17.040-32.863-1.217-7.303 15.823-24.343 30.429-38.949 31.646-14.606 2.434-31.646 20.692-31.646 20.692 6.086-18.257 31.646-29.212 51.121-43.818z" />
<glyph unicode="&#xe9bf;" horiz-adv-x="1025" d="M351.76 258.731c1.217 2.434 18.257 1.217 25.56-3.651 6.086-4.869 35.298-30.429 35.298-30.429s15.823 6.086 26.778-3.651c10.954-9.737 27.995-17.040 27.995-15.823-1.217 1.217 18.257 3.651 26.778-2.434 7.303-7.303 18.257 9.737 18.257 9.737s-30.429 30.429-36.515 30.429c-4.869-1.217-49.904 23.126-52.338 23.126s-40.166 21.909-42.601 24.343c-2.434 2.434-29.212-31.646-29.212-31.646z" />
<glyph unicode="&#xe9c0;" horiz-adv-x="1025" d="M354.195 336.629c-15.823-3.651-26.778-25.56-30.429-43.818-3.651-17.040 15.823-32.863 26.778-34.081 10.954 0 31.646 14.606 38.949 30.429 6.086 15.823 6.086 58.424-35.298 47.469z" />
<glyph unicode="&#xe9c1;" horiz-adv-x="1025" d="M374.887 325.675c-14.606 10.954-27.995-4.869-31.646-12.172-2.434-7.303 20.692-19.475 25.56-24.343 6.086-6.086 27.995 20.692 6.086 36.515z" />
<glyph unicode="&#xe9c2;" horiz-adv-x="1025" d="M384.624 331.761c3.651-9.737 12.172-32.863-3.651-47.469-19.475-18.257-32.863-19.475-43.818-19.475 4.869-3.651 9.737-6.086 13.389-6.086 10.954 0 31.646 14.606 38.949 30.429 3.651 9.737 4.869 31.646-4.869 42.601z" />
<glyph unicode="&#xe9c3;" horiz-adv-x="1025" d="M507.558 241.691c-12.172-3.651-21.909-20.692-24.343-35.298s12.172-26.778 21.909-27.995c8.52 0 25.56 10.954 31.646 24.343 4.869 12.172 4.869 47.469-29.212 38.949z" />
<glyph unicode="&#xe9c4;" horiz-adv-x="1025" d="M524.598 233.171c-12.172 8.52-23.126-4.869-25.56-10.954-1.217-6.086 17.040-15.823 20.692-19.475 4.869-4.869 23.126 17.040 4.869 30.429z" />
<glyph unicode="&#xe9c5;" horiz-adv-x="1025" d="M531.901 236.822c3.651-7.303 9.737-25.56-2.434-37.732-14.606-14.606-26.778-15.823-35.298-15.823 3.651-2.434 7.303-4.869 10.954-4.869 8.52 0 25.56 10.954 31.646 24.343 3.651 8.52 3.651 25.56-4.869 34.081z" />
<glyph unicode="&#xe9c6;" horiz-adv-x="1025" d="M461.305 276.988c-14.606-3.651-25.56-24.343-29.212-42.601-3.651-17.040 14.606-31.646 26.778-32.863 10.954-1.217 30.429 13.389 37.732 29.212 6.086 14.606 4.869 57.207-35.298 46.252z" />
<glyph unicode="&#xe9c7;" horiz-adv-x="1025" d="M481.997 266.034c-14.606 10.954-27.995-4.869-30.429-12.172s19.475-18.257 25.56-23.126c4.869-4.869 26.778 19.475 4.869 35.298z" />
<glyph unicode="&#xe9c8;" horiz-adv-x="1025" d="M490.517 272.12c4.869-9.737 12.172-31.646-2.434-46.252-18.257-17.040-31.646-19.475-42.601-18.257 3.651-3.651 8.52-6.086 13.389-6.086 10.954-1.217 30.429 13.389 37.732 29.212 3.651 9.737 4.869 30.429-6.086 41.384z" />
<glyph unicode="&#xe9c9;" horiz-adv-x="1025" d="M802.111 605.623c0 0-81.55-17.040-105.893-23.126-23.126-4.869-35.298-2.434-66.944-6.086-30.429-3.651-80.333 4.869-104.676-10.954s-65.727-85.201-71.813-110.762c-6.086-24.343 1.217-36.515 10.954-59.641 9.737-21.909 8.52-70.596 43.818-65.727 36.515 4.869 48.687 47.469 47.469 69.378-1.217 23.126-13.389 43.818-13.389 43.818s7.303 12.172 15.823 23.126c0 0 23.126 14.606 42.601 24.343s133.888-69.378 157.014-65.727c21.909 3.651 103.459 27.995 103.459 27.995s-6.086 119.282-58.424 153.363z" />
<glyph unicode="&#xe9ca;" horiz-adv-x="1025" d="M475.911 378.013c-3.651 8.52 13.389 0 25.56 4.869 10.954 4.869 14.606 9.737 20.692 4.869s15.823-42.601-10.954-49.904c-26.778-7.303-29.212 18.257-35.298 40.166z" />
<glyph unicode="&#xe9cb;" horiz-adv-x="1025" d="M849.581 524.073c-9.737-12.172-23.126-31.646-29.212-41.384-12.172-17.040-47.469-37.732-49.904-18.257-2.434 18.257-34.081 66.944-31.646 60.858 3.651-6.086 12.172-27.995 9.737-42.601s-7.303-24.343-41.384-17.040c-35.298 7.303-86.419 80.333-90.070 71.813-4.869-8.52-23.126-27.995-40.166-38.949-17.040-9.737-31.646-1.217-31.646-1.217s1.217-14.606-7.303-31.646c-7.303-17.040-30.429-21.909-30.429-21.909s6.086-4.869 12.172-9.737c7.303-3.651 23.126-20.692 23.126-64.51-1.217-13.389-4.869-23.126-10.954-29.212 18.257 14.606 24.343 41.384 23.126 58.424-1.217 23.126-13.389 43.818-13.389 43.818s7.303 12.172 15.823 23.126c0 0 23.126 14.606 42.601 24.343s133.888-69.378 157.014-65.727c21.909 3.651 103.459 27.995 103.459 27.995s-1.217 35.298-10.954 71.813z" />
<glyph unicode="&#xe9cc;" horiz-adv-x="1025" d="M406.533 304.983c-18.257-3.651-32.863-26.778-36.515-46.252s18.257-35.298 31.646-36.515c13.389-1.217 38.949 15.823 46.252 31.646 8.52 17.040 7.303 63.293-41.384 51.121z" />
<glyph unicode="&#xe9cd;" horiz-adv-x="1025" d="M432.093 294.029c-18.257 12.172-35.298-6.086-37.732-13.389-3.651-8.52 23.126-20.692 30.429-26.778 6.086-4.869 32.863 23.126 7.303 40.166z" />
<glyph unicode="&#xe9ce;" horiz-adv-x="1025" d="M441.831 300.115c4.869-9.737 14.606-34.081-3.651-51.121-21.909-18.257-38.949-20.692-52.338-20.692 6.086-3.651 10.954-6.086 15.823-6.086 13.389-1.217 38.949 15.823 46.252 31.646 6.086 10.954 7.303 34.081-6.086 46.252z" />
<glyph unicode="&#xe9cf;" horiz-adv-x="1025" d="M1024.852 471.735c-58.424-21.909-158.231-59.641-166.752-63.293-2.434 24.343-19.475 138.757-73.030 200.832 0 0 105.893 47.469 197.181 77.899 26.778-62.075 42.601-130.237 42.601-202.049 0-4.869 0-8.52 0-13.389z" />
<glyph unicode="&#xe9d0;" horiz-adv-x="1025" d="M858.101 408.442c8.52 3.651 108.328 41.384 166.752 63.293 0 4.869 0 8.52 0 13.389 0 14.606-1.217 29.212-2.434 43.818-65.727-36.515-133.888-43.818-178.923-45.035 9.737-35.298 13.389-64.51 14.606-75.464z" />
<glyph unicode="&#xe9d1;" horiz-adv-x="1025" d="M824.020 637.269c0 0 69.378-114.413 69.378-265.342 0 0 69.378 18.257 125.368 35.298 3.651 24.343 6.086 51.121 6.086 77.899 0 80.333-19.475 157.014-52.338 225.175-59.641-26.778-135.105-60.858-148.494-73.030z" />
<glyph unicode="&#xe9d2;" horiz-adv-x="1025" d="M1024.852 479.038c-15.823-8.52-31.646-15.823-48.687-20.692-41.384-10.954-70.596-9.737-88.853-6.086 3.651-25.56 6.086-52.338 6.086-80.333 0 0 69.378 18.257 125.368 35.298 3.651 23.126 4.869 47.469 6.086 71.813z" />
<glyph unicode="&#xe9d3;" horiz-adv-x="1025" d="M0 477.821c55.99-24.343 157.014-68.161 165.534-73.030 3.651 24.343 26.778 137.54 82.767 197.181 0 0-110.762 57.207-203.266 92.504-29.212-64.51-45.035-135.105-45.035-209.352 0-2.434 0-4.869 0-7.303z" />
<glyph unicode="&#xe9d4;" horiz-adv-x="1025" d="M165.534 404.791c-8.52 4.869-109.545 48.687-165.534 73.030 0 2.434 0 4.869 0 7.303 0 17.040 1.217 35.298 2.434 52.338 64.51-42.601 136.322-54.772 181.357-57.207-10.954-34.081-17.040-64.51-18.257-75.464z" />
<glyph unicode="&#xe9d5;" horiz-adv-x="1025" d="M211.787 631.183c0 0-77.899-108.328-85.201-259.256 0 0-66.944 20.692-121.716 37.732-2.434 24.343-4.869 49.904-4.869 75.464 0 83.984 20.692 163.1 55.99 232.478 58.424-29.212 142.408-71.813 155.797-86.419z" />
<glyph unicode="&#xe9d6;" horiz-adv-x="1025" d="M49.904 461.997c-17.040 4.869-34.081 13.389-49.904 21.909 0-25.56 2.434-49.904 4.869-74.247 54.772-17.040 121.716-37.732 121.716-37.732 1.217 27.995 4.869 53.555 10.954 79.116-19.475-3.651-48.687-2.434-87.636 10.954z" />
<glyph unicode="&#xe9d7;" d="M765.487 608.135h117.767v205.374h-117.767z" />
<glyph unicode="&#xe9d8;" d="M720.965 806.328h206.811v110.586h-206.811z" />
<glyph unicode="&#xe9d9;" d="M89.043 407.069v-471.069h837.296v471.069c-165.161 165.161-257.077 257.077-419.366 417.93v0c-160.853-163.725-252.769-255.641-417.93-417.93z" />
<glyph unicode="&#xe9da;" d="M927.776 407.069c-163.725 165.161-255.641 257.077-417.93 417.93-83.299-80.426-147.927-145.055-211.119-208.247-64.628-64.628-127.82-127.82-209.683-209.683v-96.224c165.161 165.161 257.077 257.077 417.93 419.366 165.161-165.161 257.077-257.077 419.366-419.366v-11.489 107.714h1.436z" />
<glyph unicode="&#xe9db;" d="M633.358-64h-251.332v247.024c0 70.373 57.447 126.384 124.948 126.384v0c71.809 0 126.384-57.447 126.384-126.384v-247.024z" />
<glyph unicode="&#xe9dc;" d="M1005.33 494.676l-446.654 446.654c-12.926 12.926-30.16 18.67-47.394 18.67-18.67 0-35.905-5.745-48.83-18.67l-443.781-446.654c-12.926-12.926-18.67-30.16-18.67-47.394s5.745-35.905 18.67-48.83c25.851-24.415 70.373-24.415 96.224 0l396.387 397.823 397.823-397.823c25.851-24.415 70.373-24.415 96.224 0 11.489 14.362 18.67 31.596 18.67 48.83s-7.181 34.468-18.67 47.394z" />
<glyph unicode="&#xe9dd;" horiz-adv-x="862" d="M120.452 62.63c-13.394 0-26.787-1.218-40.181-2.435v-34.093c13.394 1.218 26.787 2.435 40.181 2.435v34.093zM120.452 129.598c-13.394 0-26.787-1.218-40.181-2.435v-34.093c13.394 1.218 26.787 2.435 40.181 2.435v34.093zM120.452 197.784c-13.394-1.218-26.787-2.435-40.181-3.653v-34.093c13.394 1.218 26.787 2.435 40.181 2.435v35.31zM120.452 264.751c-13.394-1.218-26.787-2.435-40.181-3.653v-34.093c13.394 1.218 26.787 2.435 40.181 3.653v34.093zM120.452 331.719c-13.394-1.218-26.787-2.435-40.181-3.653v-34.093c13.394 2.435 26.787 2.435 40.181 3.653v34.093zM120.452 398.687c-13.394 0-26.787-2.435-40.181-4.87v-32.875c13.394 2.435 26.787 2.435 40.181 3.653v34.093zM120.452 465.655c-13.394 0-26.787-2.435-40.181-4.87v-32.875c13.394 2.435 26.787 3.653 40.181 3.653v34.093zM120.452 533.841c-13.394-1.218-26.787-3.653-40.181-6.088v-32.875c13.394 2.435 26.787 3.653 40.181 3.653v35.31zM120.452 600.809c-13.394-1.218-26.787-3.653-40.181-6.088v-32.875c13.394 2.435 26.787 3.653 40.181 3.653v35.31zM120.452 667.776c-13.394-1.218-26.787-3.653-40.181-6.088v-32.875c13.394 2.435 26.787 3.653 40.181 4.87v34.093zM120.452 734.744c-13.394-1.218-26.787-3.653-40.181-6.088v-34.093c13.394 3.653 26.787 4.87 40.181 6.088v34.093zM120.452 801.712c-13.394-1.218-26.787-3.653-40.181-7.306v-32.875c13.394 3.653 26.787 4.87 40.181 6.088v34.093zM120.452 868.68c-13.394-1.218-26.787-3.653-40.181-7.306v-32.875c13.394 3.653 26.787 4.87 40.181 6.088v34.093zM74.184 60.195c-9.741-1.218-19.482-2.435-28.005-4.87v-32.875c8.523 1.218 18.264 2.435 28.005 3.653v34.093zM74.184 125.945c-9.741-1.218-19.482-2.435-28.005-3.653v-34.093c8.523 2.435 18.264 3.653 28.005 4.87v32.875zM74.184 192.913c-9.741-1.218-19.482-3.653-28.005-4.87v-32.875c8.523 1.218 18.264 3.653 28.005 4.87v32.875zM74.184 259.881c-9.741-1.218-19.482-3.653-28.005-6.088v-32.875c8.523 2.435 18.264 3.653 28.005 4.87v34.093zM74.184 326.849c-9.741-2.435-19.482-4.87-28.005-7.306v-31.658c8.523 2.435 18.264 3.653 28.005 4.87v34.093zM74.184 392.599c-9.741-1.218-19.482-3.653-28.005-7.306v-31.658c8.523 2.435 18.264 4.87 28.005 6.088v32.875zM74.184 459.567c-9.741-2.435-19.482-4.87-28.005-8.523v-31.658c8.523 3.653 18.264 6.088 28.005 7.306v32.875zM74.184 526.535c-9.741-2.435-19.482-4.87-28.005-8.523v-31.658c8.523 2.435 18.264 4.87 28.005 7.306v32.875zM74.184 593.503c-9.741-2.435-19.482-6.088-28.005-9.741v-31.658c8.523 3.653 18.264 6.088 28.005 8.523v32.875zM74.184 659.253c-9.741-2.435-19.482-6.088-28.005-9.741v-31.658c8.523 3.653 18.264 7.306 28.005 8.523v32.875zM74.184 726.221c-9.741-2.435-19.482-6.088-28.005-10.958v-30.44c8.523 3.653 18.264 6.088 28.005 8.523v32.875zM74.184 793.189c-9.741-3.653-19.482-7.306-28.005-12.176v-30.44c8.523 3.653 18.264 7.306 28.005 9.741v32.875zM74.184 860.157c-9.741-3.653-19.482-7.306-28.005-12.176v-31.658c8.523 4.87 18.264 8.523 28.005 10.958v32.875zM40.091 54.107c-7.306-1.218-13.394-2.435-19.482-3.653v-32.875c6.088 1.218 12.176 2.435 19.482 3.653v32.875zM40.091 119.857c-7.306-1.218-13.394-2.435-19.482-4.87v-32.875c6.088 2.435 12.176 3.653 19.482 4.87v32.875zM40.091 185.608c-7.306-1.218-13.394-3.653-19.482-6.088v-31.658c6.088 2.435 12.176 3.653 19.482 6.088v31.658zM40.091 251.358c-7.306-1.218-13.394-3.653-19.482-6.088v-31.658c6.088 2.435 12.176 3.653 19.482 6.088v31.658zM40.091 317.108c-7.306-1.218-13.394-4.87-19.482-7.306v-31.658c6.088 2.435 12.176 4.87 19.482 7.306v31.658zM40.091 382.859c-7.306-2.435-13.394-4.87-19.482-8.523v-30.44c6.088 2.435 12.176 4.87 19.482 7.306v31.658zM40.091 448.609c-7.306-2.435-13.394-4.87-19.482-8.523v-31.658c6.088 3.653 12.176 6.088 19.482 8.523v31.658zM40.091 514.359c-7.306-2.435-13.394-6.088-19.482-9.741v-30.44c6.088 3.653 12.176 7.306 19.482 9.741v30.44zM40.091 581.327c-7.306-3.653-13.394-7.306-19.482-10.958v-30.44c6.088 3.653 12.176 7.306 19.482 9.741v31.658zM40.091 647.077c-7.306-3.653-13.394-7.306-19.482-12.176v-30.44c6.088 4.87 12.176 8.523 19.482 10.958v31.658zM40.091 712.828c-7.306-3.653-13.394-8.523-19.482-13.394v-29.222c6.088 4.87 12.176 8.523 19.482 10.958v31.658zM40.091 778.578c-7.306-4.87-13.394-8.523-19.482-13.394v-29.222c6.088 3.653 12.176 8.523 19.482 12.176v30.44zM40.091 844.328c-7.306-4.87-13.394-9.741-19.482-14.611v-29.222c6.088 4.87 12.176 9.741 19.482 13.394v30.44zM-0.090-22.602v31.658c4.87 2.435 9.741 4.87 14.611 6.088v32.875c-4.87-2.435-9.741-3.653-14.611-6.088v31.658c4.87 2.435 9.741 4.87 14.611 7.306v31.658c-4.87-2.435-9.741-4.87-14.611-7.306v31.658c4.87 3.653 9.741 6.088 14.611 8.523v31.658c-4.87-2.435-9.741-4.87-14.611-8.523v32.875c4.87 3.653 9.741 6.088 14.611 8.523v31.658c-4.87-2.435-9.741-6.088-14.611-8.523v31.658c4.87 3.653 9.741 7.306 14.611 10.958v30.44c-4.87-2.435-9.741-6.088-14.611-9.741v32.875c4.87 3.653 9.741 7.306 14.611 10.958v30.44c-4.87-2.435-9.741-6.088-14.611-10.958v32.875c4.87 4.87 9.741 8.523 14.611 12.176v31.658c-4.87-4.87-9.741-8.523-14.611-13.394v34.093c4.87 4.87 9.741 9.741 14.611 13.394v30.44c-4.87-4.87-9.741-8.523-14.611-13.394v34.093c4.87 4.87 9.741 9.741 14.611 13.394v30.44c-4.87-4.87-9.741-9.741-14.611-14.611v34.093c4.87 6.088 9.741 10.958 14.611 14.611v30.44c-4.87-4.87-9.741-9.741-14.611-15.829v35.31c4.87 6.088 9.741 10.958 14.611 15.829v29.222c-4.87-4.87-9.741-9.741-14.611-15.829v34.093c4.87 6.088 9.741 12.176 14.611 17.046v29.222c-4.87-4.87-9.741-10.958-14.611-17.046v35.31c3.653 6.088 8.523 12.176 14.611 17.046v29.222c-6.088-4.87-10.958-10.958-14.611-18.264v88.885c28.005 49.922 92.537 65.75 141.241 65.75v-1024h-141.241v41.398z" />
<glyph unicode="&#xe9de;" horiz-adv-x="862" d="M361.537 858.939v-187.51c2.435 0 6.088-1.218 6.088-1.218l245.955-102.278c6.088-1.218 9.741-7.306 9.741-13.394v-118.107l132.718-30.44c6.088-1.218 10.958-7.306 10.958-14.611v-88.885l80.361-3.653c7.306 0 14.611-7.306 14.611-14.611v-171.681c0-6.088-4.87-10.958-10.958-13.394l-483.386-161.941c0 0-2.435 0-3.653 0v-1.218h-215.515v1024l213.080-101.061z" />
<glyph unicode="&#xe9df;" horiz-adv-x="862" d="M760.909 152.732c0-1.218 1.218-2.435 2.435-3.653l2.435-1.218h1.218l70.621 15.829c2.435 0 3.653 2.435 3.653 4.87v28.005c0 2.435 0 3.653-1.218 4.87-1.218 0-2.435 1.218-3.653 0l-70.621-9.741c-2.435 0-4.87-2.435-4.87-4.87v-34.093z" />
<glyph unicode="&#xe9e0;" horiz-adv-x="862" d="M760.909 220.918c0-2.435 1.218-3.653 2.435-3.653 0-1.218 1.218-1.218 2.435-1.218v0l71.838 4.87c2.435 1.218 3.653 2.435 3.653 4.87v29.222c0 1.218 0 2.435-1.218 3.653s-2.435 1.218-3.653 1.218l-70.621-1.218c-2.435 0-4.87-2.435-4.87-4.87v-32.875z" />
<glyph unicode="&#xe9e1;" horiz-adv-x="862" d="M701.247 178.302c0-1.218 0-3.653 1.218-3.653 1.218-1.218 2.435-1.218 3.653-1.218v0l31.658 4.87c2.435 0 4.87 2.435 4.87 4.87v70.621c0 1.218-1.218 2.435-1.218 3.653-1.218 0-2.435 1.218-3.653 1.218l-31.658-1.218c-3.653 0-4.87-2.435-4.87-4.87v-74.273z" />
<glyph unicode="&#xe9e2;" horiz-adv-x="862" d="M701.247 290.321c0-2.435 1.218-4.87 4.87-4.87l31.658-1.218c1.218 0 2.435 0 3.653 1.218 0 1.218 1.218 2.435 1.218 3.653v70.621c0 2.435-2.435 3.653-4.87 4.87l-31.658 4.87c-1.218 0-2.435 0-3.653-1.218s-1.218-2.435-1.218-3.653v-74.273z" />
<glyph unicode="&#xe9e3;" horiz-adv-x="862" d="M625.756 167.344c0-1.218 0-3.653 1.218-3.653 1.218-1.218 2.435-1.218 3.653-1.218v0l40.181 6.088c2.435 0 4.87 1.218 4.87 4.87v79.144c0 1.218-1.218 2.435-2.435 2.435 0 1.218-1.218 2.435-3.653 2.435l-38.963-1.218c-3.653 0-4.87-2.435-4.87-4.87v-84.014z" />
<glyph unicode="&#xe9e4;" horiz-adv-x="862" d="M630.626 287.886l40.181-1.218c1.218 0 2.435 0 2.435 1.218 1.218 1.218 2.435 2.435 2.435 3.653v79.144c0 2.435-2.435 4.87-4.87 4.87l-40.181 6.088c-1.218 1.218-2.435 0-3.653 0-1.218-1.218-1.218-2.435-1.218-4.87v-84.014c0-2.435 1.218-4.87 4.87-4.87z" />
<glyph unicode="&#xe9e5;" horiz-adv-x="862" d="M396.847 133.251c0-1.218 1.218-2.435 2.435-3.653 1.218 0 1.218-1.218 2.435-1.218h1.218l182.64 26.787c2.435 1.218 3.653 2.435 3.653 4.87v90.102c0 1.218 0 2.435-1.218 3.653s-2.435 1.218-3.653 1.218l-182.64-3.653c-2.435 0-4.87-2.435-4.87-4.87v-113.237z" />
<glyph unicode="&#xe9e6;" horiz-adv-x="862" d="M396.847 302.497c0-2.435 2.435-4.87 4.87-4.87l182.64-7.306c1.218 0 2.435 0 3.653 1.218s1.218 2.435 1.218 3.653v90.102c0 2.435-1.218 3.653-3.653 4.87l-182.64 30.44c-1.218 0-2.435 0-3.653-1.218s-2.435-2.435-2.435-3.653v-113.237z" />
<glyph unicode="&#xe9e7;" horiz-adv-x="862" d="M396.847 471.743c0-2.435 2.435-4.87 4.87-4.87l181.422-41.398h1.218c1.218 0 2.435 0 3.653 0 1.218 1.218 1.218 2.435 1.218 4.87v88.885c0 2.435-1.218 4.87-2.435 4.87l-182.64 64.533c-2.435 1.218-3.653 1.218-4.87 0s-2.435-2.435-2.435-4.87v-112.019z" />
<glyph unicode="&#xe9e8;" horiz-adv-x="862" d="M299.439 22.449c12.176 0 24.352-1.218 36.528-1.218 0 8.523 0 17.046-1.218 25.57-10.958 1.218-23.134 3.653-35.31 6.088v-30.44z" />
<glyph unicode="&#xe9e9;" horiz-adv-x="862" d="M299.439 88.2c12.176-1.218 24.352-2.435 36.528-2.435 0 8.523 0 17.046-1.218 25.57-10.958 2.435-23.134 4.87-35.31 6.088v-29.222z" />
<glyph unicode="&#xe9ea;" horiz-adv-x="862" d="M299.439 152.732c12.176-1.218 24.352-2.435 36.528-2.435 0 8.523 0 17.046 0 25.57-12.176 2.435-24.352 4.87-36.528 7.306v-30.44z" />
<glyph unicode="&#xe9eb;" horiz-adv-x="862" d="M299.439 218.483c12.176-1.218 24.352-2.435 36.528-4.87 0 9.741 0 18.264 0 26.787-12.176 2.435-24.352 4.87-36.528 8.523v-30.44z" />
<glyph unicode="&#xe9ec;" horiz-adv-x="862" d="M299.439 284.233l36.528-6.088c0 9.741 0 18.264 0 26.787-12.176 2.435-24.352 6.088-36.528 8.523v-29.222z" />
<glyph unicode="&#xe9ed;" horiz-adv-x="862" d="M299.439 348.766c12.176-1.218 24.352-3.653 36.528-6.088v26.787c-12.176 3.653-24.352 6.088-36.528 9.741v-30.44z" />
<glyph unicode="&#xe9ee;" horiz-adv-x="862" d="M299.439 414.516l36.528-7.306c0 8.523 0 18.264 0 26.787-12.176 3.653-24.352 7.306-36.528 10.958v-30.44z" />
<glyph unicode="&#xe9ef;" horiz-adv-x="862" d="M299.439 480.266l36.528-8.523c0 8.523 0 18.264 0 26.787-12.176 3.653-24.352 7.306-36.528 10.958v-29.222z" />
<glyph unicode="&#xe9f0;" horiz-adv-x="862" d="M299.439 544.799c12.176-2.435 24.352-6.088 36.528-8.523v26.787l-36.528 12.176v-30.44z" />
<glyph unicode="&#xe9f1;" horiz-adv-x="862" d="M299.439 610.549c12.176-3.653 24.352-6.088 36.528-9.741 0 8.523 0 17.046 0 26.787-12.176 3.653-24.352 8.523-36.528 13.394v-30.44z" />
<glyph unicode="&#xe9f2;" horiz-adv-x="862" d="M299.439 675.082l36.528-9.741c0 8.523 0 17.046 0 26.787-12.176 4.87-24.352 9.741-36.528 14.611v-31.658z" />
<glyph unicode="&#xe9f3;" horiz-adv-x="862" d="M299.439 740.832c12.176-3.653 24.352-7.306 36.528-10.958 0 8.523 0 17.046 0 26.787-12.176 4.87-24.352 9.741-36.528 14.611v-30.44z" />
<glyph unicode="&#xe9f4;" horiz-adv-x="862" d="M299.439 806.583l36.528-12.176v26.787l-36.528 15.829z" />
<glyph unicode="&#xe9f5;" horiz-adv-x="862" d="M232.471 26.102c17.046-1.218 34.093-1.218 51.139-2.435v31.658c-17.046 2.435-34.093 4.87-51.139 8.523v-37.746z" />
<glyph unicode="&#xe9f6;" horiz-adv-x="862" d="M232.471 93.070l51.139-3.653v31.658c-17.046 2.435-34.093 6.088-51.139 9.741v-37.746z" />
<glyph unicode="&#xe9f7;" horiz-adv-x="862" d="M232.471 160.038l51.139-4.87v31.658c-17.046 3.653-34.093 7.306-51.139 10.958v-37.746z" />
<glyph unicode="&#xe9f8;" horiz-adv-x="862" d="M232.471 227.006c17.046-2.435 34.093-4.87 51.139-6.088v31.658c-17.046 3.653-34.093 7.306-51.139 12.176v-37.746z" />
<glyph unicode="&#xe9f9;" horiz-adv-x="862" d="M232.471 293.974c17.046-2.435 34.093-4.87 51.139-7.306v31.658c-17.046 3.653-34.093 8.523-51.139 13.394v-37.746z" />
<glyph unicode="&#xe9fa;" horiz-adv-x="862" d="M232.471 360.942c17.046-3.653 34.093-6.088 51.139-8.523v31.658l-51.139 14.611v-37.746z" />
<glyph unicode="&#xe9fb;" horiz-adv-x="862" d="M232.471 427.91c17.046-3.653 34.093-7.306 51.139-10.958v32.875c-17.046 4.87-34.093 9.741-51.139 14.611v-36.528z" />
<glyph unicode="&#xe9fc;" horiz-adv-x="862" d="M232.471 494.878l51.139-12.176v32.875c-17.046 4.87-34.093 10.958-51.139 15.829v-36.528z" />
<glyph unicode="&#xe9fd;" horiz-adv-x="862" d="M232.471 560.628c17.046-3.653 34.093-7.306 51.139-12.176v32.875c-17.046 6.088-34.093 10.958-51.139 17.046v-37.746z" />
<glyph unicode="&#xe9fe;" horiz-adv-x="862" d="M232.471 627.596c17.046-3.653 34.093-8.523 51.139-13.394v32.875l-51.139 18.264v-37.746z" />
<glyph unicode="&#xe9ff;" horiz-adv-x="862" d="M232.471 694.564c17.046-4.87 34.093-9.741 51.139-14.611v32.875l-51.139 19.482v-37.746z" />
<glyph unicode="&#xea00;" horiz-adv-x="862" d="M232.471 761.532c17.046-4.87 34.093-10.958 51.139-15.829v32.875c-17.046 7.306-34.093 13.394-51.139 20.699v-37.746z" />
<glyph unicode="&#xea01;" horiz-adv-x="862" d="M232.471 828.499l51.139-17.046v32.875l-51.139 21.917z" />
<glyph unicode="&#xea02;" horiz-adv-x="1216" d="M413.965 525.314c0 0 109.579-15.828 125.407-31.656 8.523-9.74 21.916-62.095 32.874-110.797-64.53-46.267-143.67-74.27-228.898-74.27v211.853l70.618 4.87z" />
<glyph unicode="&#xea03;" horiz-adv-x="1216" d="M286.123 475.395h114.449v125.407h-114.449z" />
<glyph unicode="&#xea04;" horiz-adv-x="1216" d="M343.348 959.978c54.79 0 143.67-31.656 143.67-180.197 0-85.228-28.004-141.235-40.179-157.063-10.958-13.393-74.27-43.832-103.491-43.832 0 149.758 0 381.092 0 381.092z" />
<glyph unicode="&#xea05;" horiz-adv-x="1216" d="M513.804 744.472c2.435 24.351-8.523 45.049-24.351 47.484-17.046 2.435-31.656-15.828-34.091-38.961s8.523-45.049 24.351-46.267c17.046-2.435 31.656 14.611 34.091 37.744z" />
<glyph unicode="&#xea06;" horiz-adv-x="1216" d="M343.348 959.978c-56.007 0-143.67-31.656-143.67-180.197 0-85.228 28.004-141.235 40.179-157.063 10.958-13.393 74.27-43.832 103.491-43.832 0 149.758 0 381.092 0 381.092z" />
<glyph unicode="&#xea07;" horiz-adv-x="1216" d="M171.674 744.472c-2.435 24.351 8.523 45.049 25.568 47.484 15.828 2.435 31.656-15.828 34.091-38.961s-8.523-45.049-25.568-46.267c-15.828-2.435-31.656 14.611-34.091 37.744z" />
<glyph unicode="&#xea08;" horiz-adv-x="1216" d="M267.86 929.539c0 0-48.702-58.442-29.221-112.014 2.435-64.53-3.653-85.228-24.351-103.491 4.87 62.095-1.218 82.793-23.133 75.488-9.74 48.702 9.74 180.197 76.705 140.018z" />
<glyph unicode="&#xea09;" horiz-adv-x="1216" d="M417.618 929.539c0 0 48.702-58.442 30.439-112.014-3.653-64.53 2.435-85.228 23.133-103.491-4.87 62.095 1.218 82.793 24.351 75.488 8.523 48.702-10.958 180.197-77.923 140.018z" />
<glyph unicode="&#xea0a;" horiz-adv-x="1216" d="M271.513 525.314c0 0-108.362-15.828-124.19-31.656-8.523-9.74-23.133-63.312-34.091-112.014 64.53-46.267 143.67-73.053 228.898-73.053v0h1.218v211.853l-71.835 4.87z" />
<glyph unicode="&#xea0b;" horiz-adv-x="1216" d="M415.183 528.967l-71.835-8.523-73.053 8.523 73.053-220.376z" />
<glyph unicode="&#xea0c;" horiz-adv-x="1216" d="M336.042 498.528l-14.611-148.54 21.916-41.397 21.916 41.397-14.611 148.54z" />
<glyph unicode="&#xea0d;" horiz-adv-x="1216" d="M290.993 433.998l-58.442 85.228c15.828 6.088 32.874 9.74 51.137 12.175l59.66-222.811-84.011 119.319 31.656 6.088z" />
<glyph unicode="&#xea0e;" horiz-adv-x="1216" d="M395.702 433.998l57.225 85.228c-15.828 6.088-32.874 9.74-49.919 12.175l-59.66-222.811 82.793 119.319-30.439 6.088z" />
<glyph unicode="&#xea0f;" horiz-adv-x="1216" d="M362.828 499.746l-19.481-19.481-19.481 19.481 19.481 19.481z" />
<glyph unicode="&#xea10;" horiz-adv-x="1216" d="M343.348 520.444l-58.442 23.133-14.611-14.611 29.221-64.53z" />
<glyph unicode="&#xea11;" horiz-adv-x="1216" d="M343.348 520.444l57.225 23.133 14.611-14.611-29.221-64.53z" />
<glyph unicode="&#xea12;" horiz-adv-x="1216" d="M343.348 670.202v-14.611l-42.614-8.523h-8.523z" />
<glyph unicode="&#xea13;" horiz-adv-x="1216" d="M343.348 670.202v-14.611l42.614-8.523h8.523z" />
<glyph unicode="&#xea14;" horiz-adv-x="1216" d="M967.948 486.353c0 0 105.926-15.828 121.754-31.656 8.523-8.523 21.916-62.095 32.874-108.362-63.312-46.267-140.018-73.053-224.028-73.053v193.59l69.4 19.481z" />
<glyph unicode="&#xea15;" horiz-adv-x="1216" d="M842.541 433.998h112.014v122.972h-112.014z" />
<glyph unicode="&#xea16;" horiz-adv-x="1216" d="M898.548 911.276c53.572 0 140.018-31.656 140.018-176.544 0-82.793-26.786-137.583-38.961-153.411-10.958-13.393-71.835-43.832-101.056-43.832 0 146.105 0 373.786 0 373.786z" />
<glyph unicode="&#xea17;" horiz-adv-x="1216" d="M1065.352 700.641c2.435 23.133-8.523 43.832-24.351 46.267-15.828 1.218-30.439-15.828-32.874-38.961s8.523-43.832 24.351-45.049c15.828-2.435 30.439 14.611 32.874 37.744z" />
<glyph unicode="&#xea18;" horiz-adv-x="1216" d="M898.548 911.276c-54.79 0-140.018-31.656-140.018-176.544 0-82.793 26.786-137.583 38.961-153.411 10.958-13.393 71.835-43.832 101.056-43.832 0 146.105 0 373.786 0 373.786z" />
<glyph unicode="&#xea19;" horiz-adv-x="1216" d="M730.527 700.641c-2.435 23.133 8.523 43.832 25.568 46.267 15.828 1.218 30.439-15.828 32.874-38.961s-8.523-43.832-24.351-45.049c-15.828-2.435-31.656 14.611-34.091 37.744z" />
<glyph unicode="&#xea1a;" horiz-adv-x="1216" d="M825.495 880.837c0 0-47.484-57.225-29.221-109.579 2.435-62.095-3.653-84.011-24.351-101.056 6.088 60.877 0 81.576-23.133 74.27-8.523 47.484 10.958 175.326 76.705 136.365z" />
<glyph unicode="&#xea1b;" horiz-adv-x="1216" d="M971.601 880.837c0 0 47.484-57.225 29.221-109.579-3.653-62.095 2.435-84.011 23.133-101.056-4.87 60.877 1.218 81.576 23.133 74.27 8.523 47.484-10.958 175.326-75.488 136.365z" />
<glyph unicode="&#xea1c;" horiz-adv-x="1216" d="M829.148 486.353c0 0-107.144-15.828-122.972-31.656-7.305-8.523-21.916-62.095-32.874-108.362 63.312-46.267 141.235-73.053 225.246-73.053v193.59l-69.4 19.481z" />
<glyph unicode="&#xea1d;" horiz-adv-x="1216" d="M969.166 488.788l-70.618-14.611-70.618 14.611 70.618-215.505z" />
<glyph unicode="&#xea1e;" horiz-adv-x="1216" d="M892.46 444.956l-12.175-144.888 18.263-26.786 17.046 26.786-10.958 144.888z" />
<glyph unicode="&#xea1f;" horiz-adv-x="1216" d="M847.411 396.254l-56.007 82.793c14.611 6.088 31.656 9.74 48.702 13.393l58.442-219.158-81.576 116.884 30.439 6.088z" />
<glyph unicode="&#xea20;" horiz-adv-x="1216" d="M949.685 396.254l56.007 82.793c-15.828 6.088-31.656 9.74-48.702 13.393l-58.442-219.158 81.576 116.884-30.439 6.088z" />
<glyph unicode="&#xea21;" horiz-adv-x="1216" d="M918.029 454.696l-19.481-19.481-19.481 19.481 19.481 19.481z" />
<glyph unicode="&#xea22;" horiz-adv-x="1216" d="M898.548 474.177l57.225 29.221 29.221-17.046-60.877-48.702z" />
<glyph unicode="&#xea23;" horiz-adv-x="1216" d="M898.548 474.177l-57.225 29.221-29.221-17.046 59.66-48.702z" />
<glyph unicode="&#xea24;" horiz-adv-x="1216" d="M1032.478 855.269c-21.916 92.533-158.281 164.369-254.467 20.698-6.088-29.221 20.698-42.614 20.698-42.614s18.263 42.614 99.839 23.133c41.397 8.523 80.358 15.828 98.621-21.916s35.309 20.698 35.309 20.698z" />
<glyph unicode="&#xea25;" horiz-adv-x="1216" d="M978.906 599.584c-28.004 0-48.702 23.133-80.358 23.133-32.874 0-52.354-23.133-80.358-23.133-31.656 0-51.137 53.572-56.007 71.835 7.305-53.572 25.568-88.881 35.309-99.839 10.958-14.611 71.835-43.832 101.056-43.832v0c29.221 0 90.098 29.221 101.056 43.832 8.523 10.958 26.786 46.267 35.309 99.839-6.088-18.263-25.568-71.835-56.007-71.835z" />
<glyph unicode="&#xea26;" horiz-adv-x="1216" d="M898.548 574.016c9.74 0 17.046 3.653 17.046 9.74h-34.091c0-6.088 7.305-9.74 17.046-9.74z" />
<glyph unicode="&#xea27;" horiz-adv-x="1216" d="M456.579 553.318c0-57.225-31.656-58.442-29.221-96.186 2.435-41.397 35.309-41.397 35.309-70.618 0-28.004-30.439-60.877-3.653-91.316 116.884 0 129.060 0 129.060 0v348.218l-131.495-90.098z" />
<glyph unicode="&#xea28;" horiz-adv-x="1216" d="M718.352 553.318c0-57.225 31.656-58.442 29.221-96.186-2.435-41.397-35.309-41.397-35.309-70.618 0-28.004 30.439-60.877 3.653-91.316-116.884 0-127.842 0-127.842 0v348.218l130.277-90.098z" />
<glyph unicode="&#xea29;" horiz-adv-x="1216" d="M736.615 611.76c0 82.793-65.747 148.54-148.54 148.54-81.576 0-148.54-65.747-148.54-148.54 0-81.576 66.965-148.54 148.54-148.54 82.793 0 148.54 66.965 148.54 148.54z" />
<glyph unicode="&#xea2a;" horiz-adv-x="1216" d="M637.994 293.981l-49.919-141.235h-1.218l-48.702 141.235v108.362h99.839z" />
<glyph unicode="&#xea2b;" horiz-adv-x="1216" d="M588.074 705.511c-48.702 0-124.19-28.004-124.19-157.063 0-74.27 28.004-108.362 38.961-121.754 9.74-13.393 59.66-52.354 85.228-52.354 0 129.060 0 331.172 0 331.172z" />
<glyph unicode="&#xea2c;" horiz-adv-x="1216" d="M439.534 518.009c-2.435 20.698 7.305 38.961 21.916 41.397 14.611 1.218 26.786-13.393 29.221-34.091s-7.305-38.961-21.916-40.179c-13.393-2.435-26.786 12.175-29.221 32.874z" />
<glyph unicode="&#xea2d;" horiz-adv-x="1216" d="M588.074 705.511c47.484 0 124.19-28.004 124.19-157.063 0-74.27-29.221-108.362-38.961-121.754s-59.66-52.354-85.228-52.354c0 129.060 0 331.172 0 331.172z" />
<glyph unicode="&#xea2e;" horiz-adv-x="1216" d="M736.615 518.009c2.435 20.698-7.305 38.961-21.916 41.397-13.393 1.218-26.786-13.393-29.221-34.091s7.305-38.961 21.916-40.179c14.611-2.435 26.786 12.175 29.221 32.874z" />
<glyph unicode="&#xea2f;" horiz-adv-x="1216" d="M588.074 152.745v135.147c0 0-37.744 9.74-46.267 40.179-3.653 13.393-3.653 25.568-3.653 25.568s-80.358-28.004-98.621-56.007c-8.523-25.568-14.611-69.4-17.046-102.274 48.702-26.786 104.709-42.614 165.586-42.614v0z" />
<glyph unicode="&#xea30;" horiz-adv-x="1216" d="M588.074 152.745v135.147c0 0 36.526 9.74 45.049 40.179 3.653 13.393 3.653 25.568 3.653 25.568s81.576-28.004 98.621-56.007c9.74-25.568 14.611-69.4 17.046-102.274-48.702-26.786-104.709-42.614-164.369-42.614z" />
<glyph unicode="&#xea31;" horiz-adv-x="1216" d="M588.074 419.388c19.481 0 34.091 10.958 34.091 25.568h-68.183c0-14.611 15.828-25.568 34.091-25.568z" />
<glyph unicode="&#xea32;" horiz-adv-x="1216" d="M588.074 205.1c0 0-36.526 90.098-49.919 148.54-13.393-4.87-24.351-8.523-32.874-13.393-28.004-59.66-37.744-129.060-40.179-164.369 37.744-14.611 79.14-23.133 122.972-23.133v0 52.354z" />
<glyph unicode="&#xea33;" horiz-adv-x="1216" d="M588.074 205.1c0 0 35.309 90.098 48.702 148.54 13.393-4.87 25.568-8.523 34.091-13.393 28.004-59.66 36.526-129.060 40.179-164.369-37.744-14.611-79.14-23.133-122.972-23.133v52.354z" />
<glyph unicode="&#xea34;" horiz-adv-x="1216" d="M580.769 742.037c-87.663 0-114.449-76.705-114.449-113.232-32.874-43.832 2.435-84.011 26.786-97.404 0 7.305 0 10.958 0 21.916 0 28.004 28.004 54.79 69.4 49.919 36.526-3.653 59.66 17.046 79.14 52.354 24.351 47.484-6.088 86.446-60.877 86.446z" />
<glyph unicode="&#xea35;" horiz-adv-x="1216" d="M637.994 670.202c0 0 20.698-82.793 76.705-110.797 10.958 75.488 15.828 59.66 0 98.621-15.828 40.179-76.705 69.4-76.705 69.4v-57.225z" />
<glyph unicode="&#xea36;" horiz-adv-x="1216" d="M253.249 188.054c0 0-31.656 47.484-41.397 58.442v0c7.305-4.87 13.393-10.958 20.698-15.828 31.656-23.133 66.965-40.179 103.491-49.919v0l-35.309-19.481-47.484 26.786z" />
<glyph unicode="&#xea37;" horiz-adv-x="1216" d="M508.934-48.15c0 0-49.919 115.667-58.442 121.754-8.523 7.305-214.288 120.537-253.249 153.411-38.961 34.091-197.242 272.73-197.242 272.73s25.568 35.309 59.66 12.175c35.309-23.133 188.719-208.2 188.719-208.2l69.4-36.526c0 0-24.351 3.653-126.625 133.93 0 0 28.004 53.572 93.751 1.218 65.747-53.572 124.19-92.533 124.19-92.533s62.095-7.305 115.667-73.053c43.832-54.79 29.221-82.793 29.221-82.793l53.572-108.362-98.621-93.751z" />
<glyph unicode="&#xea38;" horiz-adv-x="1216" d="M4.87 492.44c0 0 18.263 12.175 30.439 7.305 13.393-4.87 28.004-29.221 28.004-29.221s-10.958-17.046-28.004-23.133l-30.439 45.049z" />
<glyph unicode="&#xea39;" horiz-adv-x="1216" d="M253.249 188.054l183.849-127.842 56.007-124.19 15.828 15.828-54.79 124.19z" />
<glyph unicode="&#xea3a;" horiz-adv-x="1216" d="M4.87 492.44c0 0 29.221 25.568 57.225-20.698 0 0-23.133 51.137-57.225 20.698z" />
<glyph unicode="&#xea3b;" horiz-adv-x="1216" d="M963.078 188.054c0 0 31.656 47.484 40.179 58.442v0c-6.088-4.87-13.393-10.958-19.481-15.828-31.656-23.133-66.965-40.179-103.491-49.919v0l35.309-19.481 47.484 26.786z" />
<glyph unicode="&#xea3c;" horiz-adv-x="1216" d="M706.176-48.15c0 0 51.137 115.667 59.66 121.754 7.305 7.305 214.288 120.537 253.249 153.411 38.961 34.091 197.242 272.73 197.242 272.73s-26.786 35.309-60.877 12.175c-34.091-23.133-187.502-208.2-187.502-208.2l-69.4-36.526c0 0 23.133 3.653 126.625 133.93 0 0-28.004 53.572-94.969 1.218-64.53-53.572-122.972-92.533-122.972-92.533s-63.312-7.305-116.884-73.053c-43.832-54.79-28.004-82.793-28.004-82.793l-54.79-108.362 98.621-93.751z" />
<glyph unicode="&#xea3d;" horiz-adv-x="1216" d="M1211.457 492.44c0 0-18.263 12.175-31.656 7.305-12.175-4.87-26.786-29.221-26.786-29.221s9.74-17.046 28.004-23.133l30.439 45.049z" />
<glyph unicode="&#xea3e;" horiz-adv-x="1216" d="M963.078 188.054l-183.849-127.842-57.225-124.19-15.828 15.828 56.007 124.19z" />
<glyph unicode="&#xea3f;" horiz-adv-x="1216" d="M1211.457 492.44c0 0-29.221 25.568-58.442-20.698 0 0 24.351 51.137 58.442 20.698z" />
<glyph unicode="&#xea40;" horiz-adv-x="1375" d="M1241.55 190.385h-1109.618c-5.555 0-11.11-4.166-13.888-9.721l-118.045-188.871h1374.871l-119.433 188.871c-1.389 5.555-6.944 9.721-13.888 9.721z" />
<glyph unicode="&#xea41;" horiz-adv-x="1375" d="M804.091 43.177h-233.311c-1.389 0-2.778-1.389-2.778-1.389l-20.831-33.33c-1.389-1.389 0-2.778 2.778-2.778h274.974c2.778 0 2.778 1.389 2.778 2.778l-20.831 33.33c0 0-1.389 1.389-2.778 1.389z" />
<glyph unicode="&#xea42;" horiz-adv-x="1375" d="M0-63.758h1374.871v55.55h-1374.871z" />
<glyph unicode="&#xea43;" horiz-adv-x="1375" d="M143.042 190.385h1094.342v11.11h-1094.342z" />
<glyph unicode="&#xea44;" horiz-adv-x="1375" d="M163.874 145.945h1047.124l-12.499 19.443h-1022.127z" />
<glyph unicode="&#xea45;" horiz-adv-x="1375" d="M143.042 108.448h1087.398l-12.499 19.443h-1062.401z" />
<glyph unicode="&#xea46;" horiz-adv-x="1375" d="M116.656 66.786h1133.227l-12.499 20.831h-1108.23z" />
<glyph unicode="&#xea47;" horiz-adv-x="1375" d="M1231.829 201.495h-1088.787c-11.11 0-20.831 9.721-20.831 20.831v717.988c0 11.11 9.721 19.443 20.831 19.443h1088.787c11.11 0 20.831-8.333 20.831-19.443v-717.988c0-11.11-9.721-20.831-20.831-20.831z" />
<glyph unicode="&#xea48;" horiz-adv-x="1375" d="M195.815 287.598v587.445c0 5.555 5.555 11.11 11.11 11.11h959.632c6.944 0 12.499-5.555 12.499-11.11v-587.445c0-6.944-5.555-12.499-12.499-12.499h-959.632c-5.555 0-11.11 5.555-11.11 12.499z" />
<glyph unicode="&#xea49;" horiz-adv-x="1375" d="M1231.829 201.495h-1088.787c0 0 0 0 0 0s-1.389 0-1.389 0c0 0 0 0 0 0-4.166 1.389-8.333 2.778-11.11 5.555l102.768 68.049h933.246c6.944 0 12.499 5.555 12.499 12.499v587.445c0 5.555-5.555 11.11-12.499 11.11h-30.553l105.546 70.827c5.555-2.778 9.721-9.721 9.721-16.665 0 0 0 0 0 0s0 0 0 0 0 0 0 0 0 0 0 0 0 0 0 0 1.389 0 1.389 0c0 0 0 0 0 0v-717.988c0-11.11-9.721-20.831-20.831-20.831z" />
<glyph unicode="&#xea4a;" horiz-adv-x="1375" d="M1166.557 275.1h-933.246l902.693 611.054h30.553c6.944 0 12.499-5.555 12.499-11.11v-587.445c0-6.944-5.555-12.499-12.499-12.499z" />
<glyph unicode="&#xea4b;" horiz-adv-x="1375" d="M701.323 922.261c0-8.333-5.555-13.888-13.888-13.888s-15.276 5.555-15.276 13.888c0 8.333 6.944 15.276 15.276 15.276s13.888-6.944 13.888-15.276z" />
<glyph unicode="&#xea4c;" horiz-adv-x="1375" d="M697.157 922.261c0-5.555-4.166-9.721-9.721-9.721s-9.721 4.166-9.721 9.721c0 5.555 4.166 9.721 9.721 9.721s9.721-4.166 9.721-9.721z" />
<glyph unicode="&#xea4d;" horiz-adv-x="1025" d="M747.339 644.572v-182.575l153.363 9.737 2.434 20.692-42.601 136.322z" />
<glyph unicode="&#xea4e;" horiz-adv-x="1025" d="M920.176 304.983h80.333v48.687h-80.333z" />
<glyph unicode="&#xea4f;" horiz-adv-x="1025" d="M639.011 754.117h-612.234c-13.389 0-24.343-10.954-24.343-24.343v-349.326c0-13.389 10.954-23.126 24.343-23.126h612.234c13.389 0 24.343 9.737 24.343 23.126v349.326c0 13.389-10.954 24.343-24.343 24.343z" />
<glyph unicode="&#xea50;" horiz-adv-x="1025" d="M816.717 219.782c-4.869-4.869-12.172-8.52-19.475-8.52-8.52 0-14.606 3.651-20.692 8.52s-9.737 13.389-9.737 21.909c0 1.217 1.217 3.651 1.217 4.869 2.434 14.606 14.606 24.343 29.212 24.343s26.778-9.737 29.212-24.343c0-1.217 0-3.651 0-4.869 0-8.52-3.651-17.040-9.737-21.909zM797.243 341.498c-54.772 0-99.807-45.035-99.807-99.807s45.035-99.807 99.807-99.807c54.772 0 99.807 45.035 99.807 99.807s-45.035 99.807-99.807 99.807z" />
<glyph unicode="&#xea51;" horiz-adv-x="1025" d="M139.974 219.782c-4.869-4.869-12.172-8.52-19.475-8.52-8.52 0-15.823 3.651-20.692 8.52-6.086 4.869-9.737 13.389-9.737 21.909 0 1.217 0 3.651 0 4.869 1.217 4.869 2.434 8.52 4.869 12.172 6.086 7.303 14.606 12.172 25.56 12.172 9.737 0 18.257-4.869 24.343-12.172 2.434-3.651 3.651-7.303 4.869-12.172 0-1.217 0-3.651 0-4.869 0-8.52-3.651-17.040-9.737-21.909zM120.499 341.498h-1.217c-48.687 0-90.070-36.515-97.373-82.767-1.217-6.086-1.217-10.954-1.217-17.040 0-54.772 43.818-99.807 99.807-99.807 54.772 0 98.59 45.035 98.59 99.807 0 6.086 0 10.954-1.217 17.040-7.303 46.252-48.687 82.767-97.373 82.767z" />
<glyph unicode="&#xea52;" horiz-adv-x="1025" d="M83.984 341.498h-83.984v-82.767h15.823c0 0 0 0 0 1.217 6.086 37.732 32.863 69.378 68.161 81.55z" />
<glyph unicode="&#xea53;" horiz-adv-x="1025" d="M999.292 307.418c-26.778-1.217-52.338-1.217-77.899-1.217-1.217 15.823-1.217 31.646 0 46.252 25.56 1.217 51.121 1.217 76.681 0 1.217-14.606 1.217-30.429 1.217-45.035zM760.728 488.775c0 45.035-1.217 88.853 0 132.671 30.429 0 59.641 1.217 90.070 0 10.954-43.818 25.56-87.636 37.732-131.454-42.601-1.217-85.201-1.217-127.802-1.217zM1004.161 309.852c-1.217 46.252 0 91.287-1.217 136.322-14.606 7.303-29.212 13.389-43.818 20.692-10.954 4.869-20.692 9.737-30.429 14.606-1.217 0-2.434 1.217-3.651 1.217-20.692 10.954-20.692 38.949-27.995 58.424-8.52 34.081-21.909 66.944-30.429 99.807-4.869 21.909-8.52 42.601-6.086 65.727-59.641 0-119.282 0-177.706 0 0 0 0 0-1.217 0v0 0-74.247c0-96.156 0-193.529 0-290.902h-525.815c35.298-12.172 62.075-43.818 68.161-81.55 0-1.217 0-1.217 0-1.217h458.871c14.606 46.252 51.121 91.287 103.459 93.722 57.207 8.52 110.762-35.298 124.151-91.287 37.732 0 75.464 0 113.196 0 0 15.823 1.217 31.646 1.217 47.469-7.303 1.217-14.606 1.217-20.692 1.217z" />
<glyph unicode="&#xea54;" horiz-adv-x="1025" d="M704.738 489.992h-60.858l-8.52-31.646h60.858l8.52 31.646zM603.713 489.992h-62.075l-8.52-31.646h62.075l8.52 31.646zM501.472 489.992h-60.858l-8.52-31.646h60.858l8.52 31.646zM400.447 489.992h-62.075l-8.52-31.646h62.075l8.52 31.646zM1023.635 395.053c0 0-2.434-21.909-79.116-24.343-68.161-3.651-36.515-2.434-70.596-3.651-1.217 0-1.217 0-2.434 0h-228.827l-243.433-111.979h-119.282l139.974 111.979h-118.065c-15.823-1.217-143.625 0-182.575 4.869l-38.949 87.636-20.692 46.252-3.651 7.303-8.52-4.869h-45.035l38.949 38.949-3.651 7.303-34.081 75.464-3.651 10.954h81.55l41.384-38.949 26.778-25.56 51.121-48.687h300.64l-35.298 63.293h87.636l94.939-63.293h155.797c14.606 0 37.732-3.651 59.641-10.954-14.606 1.217-26.778 0-26.778-14.606 0-24.343 19.475-43.818 43.818-43.818h58.424c3.651 0 7.303 0 10.954-1.217 3.651 0 15.823-3.651 29.212-9.737 51.121-21.909 45.035-40.166 43.818-52.338z" />
<glyph unicode="&#xea55;" horiz-adv-x="1025" d="M267.776 414.528c-4.869-8.52-8.52-20.692-8.52-36.515 0-3.651 0-7.303 1.217-10.954 1.217-9.737 3.651-18.257 7.303-24.343-68.161 1.217-120.499 12.172-141.191 24.343-2.434 1.217-4.869 3.651-6.086 4.869-2.434 2.434-3.651 4.869-3.651 6.086v1.217c1.217 15.823 62.075 32.863 150.928 35.298z" />
<glyph unicode="&#xea56;" horiz-adv-x="1025" d="M256.822 367.059c-1.217 3.651-1.217 7.303-1.217 10.954 0 17.040 4.869 29.212 9.737 34.081 1.217 1.217 2.434 2.434 3.651 2.434v0c1.217-1.217 3.651-1.217 4.869-3.651 3.651-4.869 8.52-17.040 8.52-32.863 0-3.651 0-7.303-1.217-10.954-1.217-9.737-4.869-17.040-7.303-21.909-1.217-1.217-3.651-2.434-4.869-2.434v0c-1.217 0-2.434 0-3.651 1.217-3.651 3.651-7.303 12.172-8.52 23.126z" />
<glyph unicode="&#xea57;" horiz-adv-x="1025" d="M501.472 527.724l-35.298 63.293h87.636l94.939-63.293z" />
<glyph unicode="&#xea58;" horiz-adv-x="1025" d="M862.969 516.77c-14.606 1.217-27.995 0-27.995-14.606 0-23.126 20.692-43.818 46.252-43.818h57.207c3.651 0 8.52-1.217 12.172-1.217 0 0-23.126 49.904-87.636 59.641z" />
<glyph unicode="&#xea59;" glyph-name="CERRAR-SESION" d="M776.977 704.31c-15.478 14.239-17.335 39.004-2.476 54.481 14.239 16.097 39.004 17.335 54.481 3.096l9.287-8.667 8.667-8.667v0.619c92.866-92.866 139.299-214.21 139.299-335.555s-46.433-242.689-139.299-334.936c-92.247-92.866-213.591-138.68-334.936-138.68s-242.689 45.814-334.936 138.68c-92.866 92.247-138.68 213.591-138.68 334.936s45.814 242.689 138.68 335.555l8.667 8.048 9.287 8.667c16.097 14.239 40.242 13.001 55.1-3.096 14.239-15.478 13.001-40.242-3.096-54.481l-7.429-6.81-7.429-7.429c-77.388-77.388-116.392-178.921-116.392-280.455s39.004-202.447 116.392-279.836c77.388-77.388 178.302-116.392 279.836-116.392s203.067 39.004 280.455 116.392c76.769 77.388 115.773 178.302 115.773 279.836s-39.004 203.067-115.773 280.455v0l-7.429 7.429-8.048 6.81zM551.004 409.615c0-21.669-17.335-39.004-39.004-39.004s-39.004 17.335-39.004 39.004v511.381c0 21.669 17.335 39.004 39.004 39.004s39.004-17.335 39.004-39.004v-511.381z" />
<glyph unicode="&#xea5a;" glyph-name="CONFIGURACIONES" d="M611.057 873.325c47.671-10.525 91.628-29.717 131.869-54.481l49.528 49.528c6.191 6.191 16.716 6.191 23.526 0l116.392-117.011c6.81-6.191 6.81-16.716 0-22.907l-49.528-49.528c25.383-40.242 43.956-84.817 55.1-131.869h69.959c8.667 0 16.097-7.429 16.097-16.716v-165.301c0-8.667-7.429-16.097-16.097-16.097h-69.959c-11.144-47.671-29.717-91.628-55.1-131.869l49.528-49.528c6.81-6.191 6.81-16.716 0-23.526l-116.392-116.392c-6.191-6.81-17.335-6.81-23.526 0l-49.528 49.528c-40.242-25.383-84.198-43.956-131.869-55.1v-69.959c0-8.667-7.429-16.097-16.097-16.097h-165.301c-9.287 0-16.716 7.429-16.716 16.097v69.959c-47.052 11.144-91.628 29.717-131.869 55.1l-49.528-49.528c-6.191-6.81-16.716-6.81-22.907 0l-117.011 116.392c-6.191 6.81-6.191 17.335 0 23.526l49.528 49.528c-24.764 40.242-43.956 84.198-54.481 131.869h-69.959c-9.287 0-16.716 7.429-16.716 16.097v165.301c0 9.287 7.429 16.716 16.716 16.716h69.959c10.525 47.052 29.717 91.628 54.481 131.869l-49.528 49.528c-6.191 6.191-6.191 16.716 0 22.907l117.011 117.011c6.191 6.191 16.716 6.191 22.907 0l49.528-49.528c40.242 24.764 84.817 43.956 131.869 54.481v69.959c0 9.287 7.429 16.716 16.716 16.716h165.301c8.667 0 16.097-7.429 16.097-16.716v-69.959zM788.121 723.502c-70.578 70.578-168.397 114.534-276.121 114.534s-204.924-43.956-275.502-114.534c-70.578-70.578-114.534-167.778-114.534-275.502s43.956-205.543 114.534-276.121c70.578-70.578 167.778-113.915 275.502-113.915s205.543 43.337 276.121 113.915c70.578 70.578 113.915 168.397 113.915 276.121s-43.337 204.924-113.915 275.502z" />
<glyph unicode="&#xea5b;" glyph-name="UBICACION" d="M512 960c124.44 0 236.498-50.148 318.22-131.869 81.103-81.103 131.869-193.78 131.869-317.601 0-110.82-64.387-237.117-146.109-342.984-102.152-131.25-233.403-231.545-303.981-231.545s-201.828 100.295-303.981 231.545c-81.722 105.867-145.49 232.164-145.49 342.984 0 123.821 50.148 236.498 131.869 317.601 81.103 81.722 193.78 131.869 317.601 131.869zM514.476 667.163c42.099 0 79.865-16.716 107.105-44.576v0c27.241-27.241 44.576-65.006 44.576-106.486 0-42.099-17.335-79.865-44.576-107.105s-65.006-44.576-107.105-44.576c-41.48 0-79.245 17.335-106.486 44.576h-0.619c-27.241 27.241-43.956 65.006-43.956 107.105 0 41.48 16.716 79.245 43.956 106.486h0.619c27.241 27.86 65.006 44.576 106.486 44.576zM592.484 593.49c-19.811 20.43-47.671 32.813-78.007 32.813s-58.196-12.382-78.007-32.193v-0.619c-19.811-19.811-32.193-47.052-32.193-77.388 0-30.955 12.382-58.196 32.193-78.007v0c19.811-20.43 47.671-32.193 78.007-32.193s58.196 12.382 78.007 32.193c19.811 19.811 32.193 47.052 32.193 78.007 0 30.336-12.382 57.577-32.193 77.388v0zM801.122 799.033c-74.293 74.293-176.445 120.106-289.122 120.106s-214.83-45.814-289.122-120.106c-73.674-73.674-119.487-175.826-119.487-288.503 0-100.914 60.672-218.544 137.441-317.601 94.723-122.583 212.353-216.068 271.168-216.068 59.434 0 177.064 93.485 271.787 216.068 76.769 99.057 136.822 216.687 136.822 317.601 0 112.677-45.814 214.83-119.487 288.503z" />
<glyph unicode="&#xea5c;" glyph-name="ICONO-LUPA" d="M725.333 229.926l4.741 4.741c71.111 71.111 116.148 170.667 116.148 279.704s-42.667 208.593-113.778 279.704l-2.37 2.37c-71.111 71.111-170.667 116.148-279.704 116.148-111.407 0-210.963-45.037-282.074-116.148-71.111-73.481-116.148-173.037-116.148-282.074s45.037-208.593 116.148-279.704c71.111-73.481 170.667-116.148 282.074-116.148 106.667 0 203.852 40.296 274.963 111.407zM775.111 213.333l234.667-234.667c9.481-9.481 9.481-23.704 0-33.185-7.111-9.481-23.704-9.481-33.185 0l-234.667 234.667c-78.222-68.741-180.148-109.037-291.556-109.037-123.259 0-234.667 49.778-315.259 130.37-80.593 78.222-130.37 189.63-130.37 312.889s49.778 234.667 130.37 315.259c80.593 80.593 192 130.37 315.259 130.37 120.889 0 232.296-49.778 312.889-130.37l2.37-2.37c78.222-80.593 128-189.63 128-312.889 0-116.148-45.037-222.815-118.519-301.037z" />
<glyph unicode="&#xea5d;" d="M80.176 670.242h858.022v-620.308h-858.022v620.308z" />
<glyph unicode="&#xea5e;" d="M187.077 621.011h648.44v-483.868h-648.44v483.868z" />
<glyph unicode="&#xea5f;" d="M969.143 27.429c0-21.099-15.473-36.571-36.571-36.571h-846.769c-19.692 0-36.571 15.473-36.571 36.571 0 19.692 16.879 36.571 36.571 36.571h846.769c21.099 0 36.571-16.879 36.571-36.571z" />
<glyph unicode="&#xea60;" d="M104.088 798.242c-1.407 0-1.407 1.407-1.407 1.407 0 1.407 0 2.813 1.407 4.22-1.407 0-1.407 1.407-1.407 2.813s0 2.813 0 4.22c0-1.407 0-2.813 0-4.22s0-2.813 1.407-2.813c0-1.407 0-2.813 0-4.22 0 0 0-1.407 0-1.407zM113.934 557.714c0 1.407 0 2.813 0 4.22 0 0 0 1.407 0 2.813v265.846h-113.934v-265.846c0-29.538 25.319-54.857 54.857-54.857h5.626c26.725 0 47.824 18.286 53.451 43.604 0 0 0 1.407 0 1.407 0 1.407 0 2.813 0 2.813z" />
<glyph unicode="&#xea61;" d="M113.934 832l70.33 71.736h-67.516l-116.747-71.736v-1.407h113.934z" />
<glyph unicode="&#xea62;" d="M113.934 830.593h112.527v1.407l46.418 71.736h-88.615l-70.33-71.736z" />
<glyph unicode="&#xea63;" d="M226.462 830.593h-112.527v-265.846c0-1.407 0-2.813 0-2.813 0-1.407 0-2.813 0-4.22 0 0 0-1.407 0-2.813 0 0 0-1.407 0-1.407 5.626-25.319 28.132-43.604 53.451-43.604h5.626c29.538 0 53.451 22.505 56.264 50.637-1.407 5.626-2.813 9.846-2.813 14.066v256z" />
<glyph unicode="&#xea64;" d="M340.396 830.593h-112.527l-1.407-256c0-4.22 1.407-8.44 2.813-14.066 5.626-22.505 26.725-40.791 53.451-40.791h4.22c28.132 0 49.231 19.692 54.857 45.011-1.407 2.813-1.407 7.033-1.407 9.846v256z" />
<glyph unicode="&#xea65;" d="M227.868 830.593h112.527v1.407l25.319 71.736h-92.835l-46.418-71.736h1.407z" />
<glyph unicode="&#xea66;" d="M340.396 830.593h113.934v74.549l-88.615-1.407-25.319-71.736z" />
<glyph unicode="&#xea67;" d="M454.33 830.593h-113.934v-256c0-2.813 0-7.033 1.407-9.846 4.22-25.319 26.725-45.011 53.451-45.011h5.626c26.725 0 47.824 18.286 53.451 42.198 0 2.813 0 5.626 0 8.44v260.22z" />
<glyph unicode="&#xea68;" d="M568.264 830.593v74.549h-113.934v-74.549z" />
<glyph unicode="&#xea69;" d="M568.264 830.593h-113.934v-260.22c0-2.813 0-5.626 0-8.44 4.22-26.725 26.725-46.418 54.857-46.418h5.626c26.725 0 49.231 18.286 53.451 43.604 0 4.22 0 7.033 0 11.253v260.22z" />
<glyph unicode="&#xea6a;" d="M568.264 832v-1.407h112.527v1.407l-28.132 73.143h-84.396v-73.143z" />
<glyph unicode="&#xea6b;" d="M680.791 830.593h-112.527v-260.22c0-4.22 0-7.033 0-11.253 5.626-25.319 28.132-43.604 54.857-43.604h5.626c29.538 0 53.451 22.505 54.857 50.637-1.407 5.626-2.813 9.846-2.813 15.473v248.967z" />
<glyph unicode="&#xea6c;" d="M794.725 830.593h-113.934v-248.967c0-5.626 1.407-9.846 2.813-15.473 5.626-22.505 28.132-40.791 53.451-40.791h4.22c26.725 0 49.231 18.286 54.857 43.604-1.407 1.407-1.407 4.22-1.407 7.033v254.593z" />
<glyph unicode="&#xea6d;" d="M680.791 830.593h113.934v1.407l-25.319 37.978-23.912 35.165h-92.835l28.132-73.143z" />
<glyph unicode="&#xea6e;" d="M794.725 832v-1.407h113.934v1.407l-77.363 73.143h-85.802l23.912-35.165 25.319-37.978z" />
<glyph unicode="&#xea6f;" d="M908.659 830.593h-113.934v-254.593c0-2.813 0-5.626 1.407-7.033 2.813-26.725 26.725-47.824 53.451-47.824h5.626c26.725 0 49.231 18.286 54.857 45.011-1.407 2.813-1.407 5.626-1.407 9.846v254.593z" />
<glyph unicode="&#xea70;" d="M1024 830.593v1.407l-106.901 73.143h-85.802l77.363-73.143v-1.407z" />
<glyph unicode="&#xea71;" d="M908.659 830.593v-254.593c0-4.22 0-7.033 1.407-9.846 4.22-26.725 26.725-45.011 53.451-45.011h5.626c30.945 0 54.857 23.912 54.857 54.857v254.593h-115.341z" />
<glyph unicode="&#xea72;" d="M510.593 490.198c61.89 0 113.934-43.604 126.593-102.681v0 0 0 0c0 0 0-1.407 0-1.407 0-2.813-2.813-5.626-5.626-5.626h-60.484c-8.44 25.319-32.352 43.604-60.484 43.604-35.165 0-63.297-28.132-63.297-63.297s28.132-64.703 63.297-64.703c28.132 0 52.044 18.286 60.484 43.604h60.484c2.813 0 5.626-1.407 5.626-5.626 0 0 0 0 0 0v0 0-1.407c-12.659-57.67-64.703-101.275-126.593-101.275-71.736 0-129.407 57.67-129.407 129.407s57.67 129.407 129.407 129.407zM486.681 360.791c0 12.659 11.253 23.912 23.912 23.912s23.912-11.253 23.912-23.912c0-14.066-11.253-23.912-23.912-23.912s-23.912 9.846-23.912 23.912z" />
</font>
</defs>
</svg>
