<?xml version="1.0" encoding="UTF-8"?>
<!DOCTYPE svg PUBLIC "-//W3C//DTD SVG 1.1//EN" "http://www.w3.org/Graphics/SVG/1.1/DTD/svg11.dtd">
<!-- Creator: CorelDRAW X8 -->
<svg xmlns="http://www.w3.org/2000/svg" xml:space="preserve" width="47.074mm" height="10.587mm" version="1.1" style="shape-rendering:geometricPrecision; text-rendering:geometricPrecision; image-rendering:optimizeQuality; fill-rule:evenodd; clip-rule:evenodd"
viewBox="0 0 4707 1059"
 xmlns:xlink="http://www.w3.org/1999/xlink">
 <defs>
  <style type="text/css">
   <![CDATA[
    .fil2 {fill:#939393}
    .fil0 {fill:#DD0000}
    .fil1 {fill:#262626;fill-rule:nonzero}
   ]]>
  </style>
 </defs>
 <g id="Capa_x0020_1">
  <metadata id="CorelCorpID_0Corel-Layer"/>
  <g id="_2902261561328">
   <path class="fil0" d="M482 65c232,0 425,163 471,381l0 0 0 0 0 1 0 0c1,1 1,2 1,3 0,13 -10,23 -23,23l-223 0c-31,-95 -121,-164 -226,-164 -132,0 -238,107 -238,238 0,132 106,238 238,238 105,0 195,-68 226,-163l224 0c12,0 21,10 21,22 0,1 0,3 0,4l0 0 0 0 0 0c-46,217 -240,380 -471,380 -266,0 -482,-215 -482,-481 0,-267 216,-482 482,-482zm-89 482c0,-49 40,-89 89,-89 49,0 89,40 89,89 0,49 -40,89 -89,89 -49,0 -89,-40 -89,-89z"/>
   <path class="fil1" d="M1986 811c52,0 83,-28 107,-58l0 52 103 0 0 -365 -103 0 0 203c0,49 -25,75 -65,75 -39,0 -62,-26 -62,-75l0 -203 -104 0 0 236c0,84 46,135 124,135zm489 0c86,0 165,-66 165,-188 0,-123 -81,-189 -165,-189 -54,0 -89,25 -114,59l0 -184 -103 0 0 496 103 0 0 -48c25,29 59,54 114,54zm-27 -87c-48,0 -88,-40 -88,-101 0,-62 40,-102 88,-102 48,0 89,40 89,101 0,62 -41,102 -89,102zm243 81l103 0 0 -365 -103 0 0 365zm6 -405l79 0 87 -81 -89 -39 -77 120zm335 413c73,0 114,-28 149,-67l-60 -61c-25,24 -49,39 -84,39 -56,0 -92,-45 -92,-101 0,-55 36,-100 88,-100 41,0 63,14 85,36l61 -62c-34,-38 -77,-63 -145,-63 -112,0 -191,85 -191,189 0,105 80,190 189,190zm289 -2c50,0 85,-18 110,-46l0 40 100 0 0 -212c0,-49 -12,-89 -39,-116 -26,-26 -67,-41 -123,-41 -62,0 -101,12 -142,29l26 79c34,-12 61,-19 101,-19 51,0 78,23 78,66l0 6c-26,-9 -52,-15 -89,-15 -86,0 -147,37 -147,117 0,73 57,112 125,112zm31 -71c-33,0 -56,-16 -56,-44 0,-34 27,-52 71,-52 26,0 49,6 66,14l0 18c0,37 -32,64 -81,64zm242 65l104 0 0 -496 -104 0 0 496zm349 8c113,0 198,-85 198,-190 0,-106 -84,-189 -197,-189 -113,0 -197,84 -197,189 0,106 83,190 196,190zm1 -89c-57,0 -96,-47 -96,-101 0,-55 36,-100 95,-100 57,0 96,46 96,100 0,55 -36,101 -95,101zm369 87c78,0 139,-36 139,-117 0,-68 -59,-93 -110,-110 -40,-13 -74,-23 -74,-43 0,-16 13,-27 38,-27 26,0 62,13 98,34l40 -71c-40,-26 -90,-42 -136,-42 -74,0 -133,41 -133,115 0,72 57,96 108,111 40,12 76,20 76,42 0,18 -14,29 -44,29 -34,0 -75,-15 -115,-44l-44 68c49,38 106,55 157,55z"/>
   <path class="fil1" d="M4589 198c20,0 39,5 58,15 19,10 34,25 45,44 10,19 15,39 15,59 0,21 -5,40 -15,59 -11,19 -25,34 -44,44 -19,11 -39,16 -59,16 -21,0 -40,-5 -59,-16 -19,-10 -33,-25 -44,-44 -10,-19 -16,-38 -16,-59 0,-20 6,-40 16,-59 11,-19 26,-34 45,-44 19,-10 38,-15 58,-15zm0 19c-17,0 -33,5 -49,13 -15,9 -28,21 -37,37 -9,16 -13,32 -13,49 0,17 4,34 13,49 9,16 21,28 37,37 16,9 32,13 49,13 17,0 33,-4 49,-13 16,-9 28,-21 37,-37 8,-15 13,-32 13,-49 0,-17 -5,-33 -14,-49 -8,-16 -21,-28 -36,-37 -16,-8 -32,-13 -49,-13zm-52 165l0 -128 44 0c15,0 26,2 32,4 7,2 12,6 16,12 4,6 6,12 6,19 0,9 -3,17 -10,24 -6,7 -15,11 -26,12 4,2 8,4 11,7 5,5 11,13 19,25l15 25 -25 0 -11 -20c-9,-16 -16,-26 -22,-30 -4,-3 -9,-4 -16,-4l-12 0 0 54 -21 0zm21 -72l25 0c11,0 20,-2 24,-5 4,-4 6,-8 6,-14 0,-4 -1,-7 -3,-10 -2,-3 -5,-6 -8,-7 -4,-1 -11,-2 -21,-2l-23 0 0 38z"/>
   <polygon class="fil2" points="1385,0 1419,0 1419,1059 1385,1059 "/>
  </g>
 </g>
</svg>
