<?xml version="1.0" encoding="UTF-8"?>
<!DOCTYPE svg PUBLIC "-//W3C//DTD SVG 1.1//EN" "http://www.w3.org/Graphics/SVG/1.1/DTD/svg11.dtd">
<!-- Creator: CorelDRAW X8 -->
<svg xmlns="http://www.w3.org/2000/svg" xml:space="preserve" width="26.781mm" height="7.214mm" version="1.1" style="shape-rendering:geometricPrecision; text-rendering:geometricPrecision; image-rendering:optimizeQuality; fill-rule:evenodd; clip-rule:evenodd"
viewBox="0 0 2678 721"
 xmlns:xlink="http://www.w3.org/1999/xlink">
 <defs>
  <style type="text/css">
   <![CDATA[
    .fil0 {fill:#E63A52;fill-rule:nonzero}
   ]]>
  </style>
 </defs>
 <g id="Capa_x0020_1">
  <metadata id="CorelCorpID_0Corel-Layer"/>
  <path class="fil0" d="M550 432l0 -63 -63 0 0 -26 63 0 0 -64 27 0 0 64 63 0 0 26 -63 0 0 63 -27 0zm221 38l0 -232 87 0c18,0 32,3 43,7 11,5 19,12 25,22 6,10 9,20 9,31 0,10 -3,19 -8,28 -5,8 -13,15 -24,21 14,4 25,11 32,21 8,10 11,21 11,35 0,11 -2,21 -6,30 -5,9 -11,17 -17,22 -7,5 -16,8 -26,11 -10,3 -22,4 -37,4l-89 0zm31 -134l50 0c14,0 24,-1 29,-3 8,-2 14,-6 18,-12 4,-5 6,-12 6,-20 0,-7 -2,-14 -6,-20 -3,-6 -8,-10 -15,-12 -7,-2 -19,-3 -35,-3l-47 0 0 70zm0 107l58 0c10,0 17,-1 21,-1 7,-2 13,-4 17,-7 5,-3 9,-7 12,-13 3,-5 5,-12 5,-19 0,-9 -2,-16 -7,-23 -4,-6 -10,-11 -18,-13 -8,-3 -19,-4 -34,-4l-54 0 0 80zm338 -205l31 0 0 134c0,23 -3,42 -8,56 -5,13 -15,24 -28,33 -14,9 -32,13 -54,13 -22,0 -40,-4 -54,-11 -13,-8 -23,-19 -29,-33 -6,-14 -9,-33 -9,-58l0 -134 31 0 0 134c0,20 2,35 5,45 4,9 11,16 20,22 9,5 20,7 33,7 22,0 38,-5 48,-15 9,-10 14,-30 14,-59l0 -134zm72 158l29 -3c1,12 4,21 9,29 5,7 13,13 24,18 10,4 22,7 35,7 12,0 22,-2 31,-6 9,-3 16,-8 20,-14 4,-6 7,-13 7,-20 0,-7 -3,-13 -7,-19 -4,-5 -11,-10 -21,-13 -6,-3 -20,-7 -41,-12 -21,-5 -36,-10 -45,-14 -11,-6 -19,-13 -24,-22 -6,-8 -8,-18 -8,-29 0,-11 3,-22 10,-32 6,-11 16,-18 29,-24 12,-5 27,-7 42,-7 17,0 32,2 46,8 13,5 23,13 30,24 7,11 11,23 11,37l-29 2c-2,-15 -7,-26 -16,-33 -9,-8 -23,-11 -41,-11 -18,0 -32,3 -40,10 -9,7 -13,15 -13,24 0,9 3,16 9,21 6,5 21,11 46,16 25,6 42,11 52,15 13,6 23,14 29,24 7,9 10,20 10,33 0,12 -4,24 -11,34 -7,11 -17,20 -30,26 -13,6 -28,9 -45,9 -20,0 -38,-3 -52,-9 -14,-6 -25,-16 -33,-28 -8,-12 -13,-26 -13,-41zm391 -7l30 7c-6,26 -18,45 -34,58 -17,13 -37,20 -61,20 -25,0 -46,-5 -61,-15 -16,-11 -28,-25 -36,-45 -8,-19 -12,-39 -12,-62 0,-24 5,-45 14,-63 9,-18 22,-31 39,-40 17,-10 36,-14 56,-14 23,0 43,5 58,17 16,12 27,29 33,50l-30 7c-5,-17 -13,-29 -23,-37 -10,-7 -23,-11 -38,-11 -18,0 -33,4 -45,13 -12,8 -20,20 -25,34 -5,14 -7,29 -7,44 0,20 2,37 8,52 6,15 15,25 27,33 12,7 25,11 39,11 17,0 32,-5 43,-15 12,-10 20,-25 25,-44zm43 81l89 -232 33 0 95 232 -35 0 -27 -70 -98 0 -25 70 -32 0zm66 -95l79 0 -24 -64c-7,-20 -13,-36 -16,-49 -4,15 -8,30 -13,45l-26 68zm175 95l0 -232 80 0c18,0 31,2 41,4 13,3 24,8 34,16 12,11 21,24 27,40 6,16 9,34 9,55 0,18 -2,33 -6,47 -4,13 -9,25 -16,33 -6,9 -13,16 -21,21 -7,5 -17,9 -27,12 -11,3 -24,4 -38,4l-83 0zm31 -27l49 0c15,0 27,-2 36,-4 9,-3 15,-7 21,-12 7,-8 12,-18 17,-30 4,-12 6,-27 6,-45 0,-24 -4,-42 -12,-55 -8,-14 -18,-22 -29,-27 -8,-3 -22,-4 -40,-4l-48 0 0 177zm193 -86c0,-38 10,-68 31,-90 21,-22 47,-32 80,-32 21,0 41,5 58,15 17,10 30,24 39,43 9,18 14,38 14,62 0,23 -5,44 -15,63 -9,18 -23,32 -40,42 -17,9 -36,14 -56,14 -22,0 -42,-5 -59,-16 -17,-10 -30,-25 -39,-43 -9,-18 -13,-37 -13,-58zm32 1c0,28 7,50 22,66 15,16 34,24 57,24 23,0 42,-8 57,-25 14,-16 22,-39 22,-68 0,-19 -3,-36 -10,-50 -6,-14 -15,-25 -28,-32 -12,-8 -26,-12 -41,-12 -22,0 -40,8 -56,22 -15,15 -23,40 -23,75z"/>
 </g>
</svg>
