<?xml version="1.0" encoding="UTF-8"?>
<!DOCTYPE svg PUBLIC "-//W3C//DTD SVG 1.1//EN" "http://www.w3.org/Graphics/SVG/1.1/DTD/svg11.dtd">
<!-- Creator: CorelDRAW X8 -->
<svg xmlns="http://www.w3.org/2000/svg" xml:space="preserve" width="13.982mm" height="2.565mm" version="1.1" style="shape-rendering:geometricPrecision; text-rendering:geometricPrecision; image-rendering:optimizeQuality; fill-rule:evenodd; clip-rule:evenodd"
viewBox="0 0 1398 256"
 xmlns:xlink="http://www.w3.org/1999/xlink">
 <defs>
  <style type="text/css">
   <![CDATA[
    .fil0 {fill:#657686;fill-rule:nonzero}
   ]]>
  </style>
 </defs>
 <g id="Capa_x0020_1">
  <metadata id="CorelCorpID_0Corel-Layer"/>
  <path class="fil0" d="M152 182l26 7c-5,22 -15,39 -30,50 -14,12 -32,18 -53,18 -22,0 -40,-5 -53,-14 -14,-9 -24,-21 -31,-38 -7,-17 -11,-35 -11,-54 0,-21 4,-40 12,-55 8,-16 20,-28 34,-36 15,-8 31,-12 49,-12 20,0 37,5 51,15 14,10 24,25 29,43l-26 7c-5,-15 -12,-26 -21,-32 -9,-7 -20,-10 -33,-10 -16,0 -29,3 -39,11 -10,7 -18,17 -22,30 -4,12 -6,25 -6,38 0,18 2,33 7,45 5,13 13,23 23,29 11,7 22,10 35,10 15,0 27,-5 38,-13 10,-9 17,-22 21,-39zm51 -27c0,-34 9,-60 27,-79 18,-19 42,-28 70,-28 19,0 36,4 51,13 14,9 26,21 34,37 8,16 12,34 12,54 0,21 -5,39 -13,55 -8,17 -20,29 -35,37 -15,8 -32,13 -49,13 -19,0 -36,-5 -51,-14 -15,-9 -26,-22 -34,-38 -8,-16 -12,-32 -12,-50zm28 0c0,25 6,44 20,58 13,14 29,21 49,21 20,0 36,-7 49,-22 13,-14 20,-34 20,-60 0,-16 -3,-30 -8,-43 -6,-12 -14,-21 -25,-28 -11,-7 -22,-10 -36,-10 -19,0 -35,6 -49,19 -13,13 -20,35 -20,65zm199 98l0 -202 40 0 48 143c5,13 8,23 10,30 2,-7 6,-18 11,-32l48 -141 36 0 0 202 -26 0 0 -169 -59 169 -24 0 -58 -172 0 172 -26 0zm236 0l0 -202 76 0c14,0 24,1 31,2 10,2 18,5 25,9 7,5 12,12 16,20 4,8 6,17 6,27 0,18 -5,32 -16,44 -11,12 -31,18 -59,18l-52 0 0 82 -27 0zm27 -106l52 0c17,0 30,-3 37,-10 7,-6 11,-15 11,-27 0,-8 -2,-15 -7,-22 -4,-6 -10,-10 -17,-11 -4,-2 -12,-2 -24,-2l-52 0 0 72zm162 106l0 -202 89 0c18,0 32,2 41,6 10,3 17,10 23,19 6,9 8,19 8,30 0,14 -4,27 -14,36 -9,10 -23,16 -43,19 8,4 13,7 17,10 7,7 15,16 22,27l35 55 -34 0 -27 -42c-7,-12 -14,-21 -19,-28 -5,-6 -9,-11 -13,-13 -4,-3 -8,-5 -13,-6 -3,0 -7,-1 -14,-1l-31 0 0 90 -27 0zm27 -113l57 0c12,0 22,-1 29,-4 7,-2 12,-6 15,-12 4,-5 6,-11 6,-18 0,-9 -4,-17 -11,-23 -7,-7 -18,-10 -32,-10l-64 0 0 67zm154 113l77 -202 30 0 82 202 -30 0 -24 -61 -85 0 -22 61 -28 0zm58 -83l69 0 -21 -56c-6,-17 -11,-31 -15,-42 -2,13 -6,26 -11,39l-22 59zm144 18l25 -2c1,10 4,18 8,25 4,6 11,12 20,16 10,4 20,6 31,6 11,0 20,-2 27,-5 8,-3 14,-7 18,-12 4,-6 5,-11 5,-18 0,-6 -1,-11 -5,-16 -4,-5 -10,-9 -18,-12 -6,-2 -18,-5 -36,-10 -19,-4 -32,-9 -39,-13 -10,-5 -17,-11 -22,-18 -4,-8 -7,-16 -7,-26 0,-10 3,-19 9,-28 6,-9 14,-16 25,-20 11,-5 24,-7 37,-7 15,0 29,2 40,7 11,5 20,12 26,21 6,10 10,20 10,32l-25 2c-2,-13 -6,-22 -14,-29 -8,-6 -20,-10 -36,-10 -16,0 -28,3 -35,9 -7,6 -11,13 -11,22 0,7 3,13 8,18 5,4 18,9 40,14 22,5 37,9 45,13 11,5 20,12 26,20 5,9 8,18 8,29 0,11 -3,21 -9,30 -6,10 -15,17 -27,23 -11,5 -24,8 -38,8 -19,0 -34,-3 -46,-8 -13,-6 -22,-14 -29,-25 -7,-10 -11,-22 -11,-36z"/>
 </g>
</svg>
