<?xml version="1.0" encoding="UTF-8"?>
<!DOCTYPE svg PUBLIC "-//W3C//DTD SVG 1.1//EN" "http://www.w3.org/Graphics/SVG/1.1/DTD/svg11.dtd">
<!-- Creator: CorelDRAW X8 -->
<svg xmlns="http://www.w3.org/2000/svg" xml:space="preserve" width="37.054mm" height="7.214mm" version="1.1" style="shape-rendering:geometricPrecision; text-rendering:geometricPrecision; image-rendering:optimizeQuality; fill-rule:evenodd; clip-rule:evenodd"
viewBox="0 0 3705 721"
 xmlns:xlink="http://www.w3.org/1999/xlink">
 <defs>
  <style type="text/css">
   <![CDATA[
    .fil0 {fill:#657686;fill-rule:nonzero}
   ]]>
  </style>
 </defs>
 <g id="Capa_x0020_1">
  <metadata id="CorelCorpID_0Corel-Layer"/>
  <path class="fil0" d="M336 470l0 -232 167 0 0 28 -136 0 0 71 128 0 0 27 -128 0 0 79 142 0 0 27 -173 0zm215 0l0 -232 31 0 122 182 0 -182 29 0 0 232 -31 0 -122 -182 0 182 -29 0zm293 0l0 -204 -77 0 0 -28 184 0 0 28 -77 0 0 204 -30 0zm139 0l0 -232 103 0c20,0 36,3 47,7 10,4 19,11 25,22 7,10 10,22 10,35 0,16 -5,30 -16,41 -11,11 -27,18 -49,22 8,3 14,7 18,11 9,8 18,19 26,31l40 63 -39 0 -30 -48c-9,-14 -17,-25 -22,-32 -6,-8 -11,-13 -16,-16 -4,-3 -9,-5 -14,-6 -3,0 -9,-1 -17,-1l-35 0 0 103 -31 0zm31 -129l65 0c14,0 25,-2 33,-5 8,-3 14,-7 18,-14 4,-6 6,-13 6,-20 0,-11 -4,-20 -12,-27 -8,-8 -20,-11 -37,-11l-73 0 0 77zm202 129l0 -232 168 0 0 28 -137 0 0 71 128 0 0 27 -128 0 0 79 142 0 0 27 -173 0zm274 0l0 -204 -76 0 0 -28 183 0 0 28 -76 0 0 204 -31 0zm140 0l0 -232 167 0 0 28 -137 0 0 71 128 0 0 27 -128 0 0 79 142 0 0 27 -172 0zm214 0l0 -232 32 0 121 182 0 -182 30 0 0 232 -32 0 -121 -182 0 182 -30 0zm239 0l0 -232 31 0 0 232 -31 0zm84 0l0 -232 46 0 55 164c5,16 9,27 11,35 3,-9 7,-21 13,-38l55 -161 41 0 0 232 -29 0 0 -194 -68 194 -27 0 -67 -197 0 197 -30 0zm276 0l0 -232 30 0 0 232 -30 0zm85 0l0 -232 167 0 0 28 -136 0 0 71 127 0 0 27 -127 0 0 79 142 0 0 27 -173 0zm215 0l0 -232 31 0 122 182 0 -182 29 0 0 232 -32 0 -121 -182 0 182 -29 0zm292 0l0 -204 -76 0 0 -28 183 0 0 28 -76 0 0 204 -31 0zm124 -113c0,-38 10,-68 31,-90 20,-22 47,-32 80,-32 21,0 40,5 57,15 18,10 31,24 40,43 9,18 13,38 13,62 0,23 -4,44 -14,63 -9,18 -23,32 -40,42 -18,9 -36,14 -56,14 -22,0 -42,-5 -59,-16 -17,-10 -30,-25 -39,-43 -9,-18 -13,-37 -13,-58zm31 1c0,28 8,50 23,66 15,16 34,24 56,24 23,0 42,-8 57,-25 15,-16 23,-39 23,-68 0,-19 -4,-36 -10,-50 -6,-14 -16,-25 -28,-32 -12,-8 -26,-12 -41,-12 -22,0 -40,8 -56,22 -16,15 -24,40 -24,75z"/>
 </g>
</svg>
