<?xml version="1.0" encoding="UTF-8"?>
<!DOCTYPE svg PUBLIC "-//W3C//DTD SVG 1.1//EN" "http://www.w3.org/Graphics/SVG/1.1/DTD/svg11.dtd">
<!-- Creator: CorelDRAW X8 -->
<svg xmlns="http://www.w3.org/2000/svg" xml:space="preserve" width="44.212mm" height="2.565mm" version="1.1" style="shape-rendering:geometricPrecision; text-rendering:geometricPrecision; image-rendering:optimizeQuality; fill-rule:evenodd; clip-rule:evenodd"
viewBox="0 0 4421 257"
 xmlns:xlink="http://www.w3.org/1999/xlink">
 <defs>
  <style type="text/css">
   <![CDATA[
    .fil0 {fill:#657686;fill-rule:nonzero}
   ]]>
  </style>
 </defs>
 <g id="Capa_x0020_1">
  <metadata id="CorelCorpID_0Corel-Layer"/>
  <path class="fil0" d="M152 182l26 7c-5,22 -15,39 -30,50 -14,12 -32,18 -53,18 -22,0 -40,-5 -53,-14 -14,-9 -24,-21 -31,-38 -7,-17 -11,-35 -11,-54 0,-21 4,-40 12,-55 8,-16 20,-28 34,-36 15,-8 31,-12 49,-12 20,0 37,5 51,15 14,10 24,25 29,43l-26 7c-5,-15 -12,-26 -21,-32 -9,-7 -20,-10 -33,-10 -16,0 -29,3 -39,11 -10,7 -18,17 -22,30 -4,12 -6,25 -6,38 0,18 2,33 7,45 5,13 13,23 23,29 11,7 22,10 35,10 15,0 27,-5 38,-13 10,-9 17,-22 21,-39zm51 -27c0,-34 9,-60 27,-79 18,-19 42,-28 70,-28 19,0 36,4 51,13 14,9 26,21 34,37 8,16 12,34 12,54 0,21 -5,39 -13,55 -8,17 -20,29 -35,37 -15,8 -32,13 -49,13 -19,0 -36,-5 -51,-14 -15,-9 -26,-22 -34,-38 -8,-16 -12,-32 -12,-50zm28 0c0,25 6,44 20,58 13,14 29,21 49,21 20,0 36,-7 49,-22 13,-14 20,-34 20,-60 0,-16 -3,-30 -8,-43 -6,-12 -14,-21 -25,-28 -11,-7 -22,-10 -36,-10 -19,0 -35,6 -49,19 -13,13 -20,35 -20,65zm200 98l0 -202 27 0 106 159 0 -159 26 0 0 202 -28 0 -106 -158 0 158 -25 0zm195 -65l25 -2c1,10 4,18 8,25 5,6 12,12 21,16 9,4 19,6 31,6 10,0 19,-2 27,-5 8,-3 13,-7 17,-12 4,-6 6,-11 6,-18 0,-6 -2,-11 -6,-16 -3,-5 -9,-9 -18,-12 -5,-2 -17,-5 -36,-10 -18,-4 -31,-9 -39,-13 -9,-5 -17,-11 -21,-18 -5,-8 -7,-16 -7,-26 0,-10 3,-19 8,-28 6,-9 15,-16 26,-20 11,-5 23,-7 37,-7 15,0 28,2 39,7 12,5 21,12 27,21 6,10 9,20 10,32l-26 2c-1,-13 -6,-22 -14,-29 -8,-6 -20,-10 -35,-10 -16,0 -28,3 -36,9 -7,6 -11,13 -11,22 0,7 3,13 8,18 5,4 19,9 40,14 22,5 37,9 45,13 12,5 21,12 26,20 6,9 9,18 9,29 0,11 -3,21 -10,30 -6,10 -15,17 -26,23 -12,5 -25,8 -39,8 -18,0 -34,-3 -46,-8 -12,-6 -22,-14 -29,-25 -7,-10 -11,-22 -11,-36zm248 65l0 -178 -66 0 0 -24 160 0 0 24 -67 0 0 178 -27 0zm122 0l0 -202 90 0c18,0 31,2 41,6 9,3 16,10 22,19 6,9 8,19 8,30 0,14 -4,27 -14,36 -9,10 -23,16 -42,19 7,4 12,7 16,10 7,7 15,16 22,27l35 55 -34 0 -26 -42c-8,-12 -15,-21 -20,-28 -5,-6 -9,-11 -13,-13 -4,-3 -8,-5 -12,-6 -3,0 -8,-1 -15,-1l-31 0 0 90 -27 0zm27 -113l57 0c12,0 22,-1 29,-4 7,-2 12,-6 15,-12 4,-5 6,-11 6,-18 0,-9 -4,-17 -11,-23 -7,-7 -17,-10 -32,-10l-64 0 0 67zm309 -89l26 0 0 117c0,20 -2,36 -6,48 -5,12 -13,22 -25,29 -12,8 -28,12 -47,12 -19,0 -35,-4 -47,-10 -12,-7 -20,-16 -26,-29 -5,-12 -7,-29 -7,-50l0 -117 27 0 0 117c0,17 1,30 4,39 4,8 9,14 17,19 8,4 18,7 29,7 20,0 34,-5 42,-14 8,-9 13,-26 13,-51l0 -117zm215 131l27 7c-6,22 -16,39 -30,50 -15,12 -33,18 -54,18 -22,0 -39,-5 -53,-14 -13,-9 -24,-21 -31,-38 -7,-17 -11,-35 -11,-54 0,-21 4,-40 12,-55 8,-16 20,-28 35,-36 15,-8 31,-12 49,-12 20,0 37,5 51,15 13,10 23,25 28,43l-26 7c-5,-15 -11,-26 -20,-32 -9,-7 -20,-10 -34,-10 -15,0 -28,3 -39,11 -10,7 -17,17 -22,30 -4,12 -6,25 -6,38 0,18 3,33 8,45 5,13 12,23 23,29 10,7 22,10 34,10 15,0 28,-5 38,-13 10,-9 17,-22 21,-39zm204 0l27 7c-6,22 -16,39 -31,50 -14,12 -32,18 -53,18 -22,0 -39,-5 -53,-14 -14,-9 -24,-21 -31,-38 -7,-17 -11,-35 -11,-54 0,-21 4,-40 12,-55 8,-16 20,-28 35,-36 14,-8 31,-12 48,-12 21,0 38,5 51,15 14,10 24,25 29,43l-26 7c-5,-15 -12,-26 -20,-32 -9,-7 -21,-10 -34,-10 -15,0 -28,3 -39,11 -10,7 -18,17 -22,30 -4,12 -6,25 -6,38 0,18 2,33 7,45 5,13 13,23 24,29 10,7 22,10 34,10 15,0 27,-5 38,-13 10,-9 17,-22 21,-39zm64 71l0 -202 27 0 0 202 -27 0zm66 -98c0,-34 9,-60 27,-79 18,-19 41,-28 70,-28 18,0 35,4 50,13 15,9 27,21 34,37 8,16 12,34 12,54 0,21 -4,39 -12,55 -9,17 -20,29 -35,37 -16,8 -32,13 -49,13 -20,0 -37,-5 -52,-14 -14,-9 -26,-22 -34,-38 -7,-16 -11,-32 -11,-50zm28 0c0,25 6,44 19,58 13,14 30,21 49,21 21,0 37,-7 50,-22 13,-14 20,-34 20,-60 0,-16 -3,-30 -9,-43 -5,-12 -13,-21 -24,-28 -11,-7 -23,-10 -36,-10 -19,0 -35,6 -49,19 -14,13 -20,35 -20,65zm48 -116l18 -39 33 0 -30 39 -21 0zm151 214l0 -202 28 0 106 159 0 -159 25 0 0 202 -27 0 -106 -158 0 158 -26 0zm335 0l0 -85 -78 -117 32 0 40 61c7,12 14,23 21,34 6,-10 13,-22 22,-35l39 -60 31 0 -81 117 0 85 -26 0zm205 0l0 -202 146 0 0 24 -119 0 0 62 111 0 0 24 -111 0 0 68 124 0 0 24 -151 0zm188 0l0 -202 69 0c16,0 28,1 36,3 12,3 22,7 30,14 10,9 18,21 24,35 5,14 8,30 8,48 0,15 -2,29 -6,41 -3,12 -8,21 -14,29 -5,8 -11,14 -18,19 -7,4 -15,7 -24,10 -10,2 -20,3 -33,3l-72 0zm26 -24l43 0c14,0 24,-1 32,-3 7,-3 13,-6 18,-11 6,-6 11,-15 15,-25 3,-11 5,-24 5,-39 0,-22 -4,-38 -10,-49 -7,-12 -16,-19 -26,-23 -7,-3 -18,-4 -34,-4l-43 0 0 154zm182 24l0 -202 27 0 0 202 -27 0zm75 0l0 -202 136 0 0 24 -109 0 0 63 95 0 0 23 -95 0 0 92 -27 0zm176 0l0 -202 26 0 0 202 -26 0zm217 -71l27 7c-5,22 -15,39 -30,50 -14,12 -32,18 -53,18 -22,0 -40,-5 -53,-14 -14,-9 -24,-21 -31,-38 -8,-17 -11,-35 -11,-54 0,-21 4,-40 12,-55 8,-16 19,-28 34,-36 15,-8 31,-12 49,-12 20,0 37,5 51,15 14,10 23,25 29,43l-26 7c-5,-15 -12,-26 -21,-32 -9,-7 -20,-10 -33,-10 -16,0 -29,3 -39,11 -11,7 -18,17 -22,30 -4,12 -6,25 -6,38 0,18 2,33 7,45 5,13 13,23 23,29 11,7 22,10 35,10 14,0 27,-5 37,-13 11,-9 18,-22 21,-39zm38 71l78 -202 29 0 82 202 -30 0 -23 -61 -86 0 -21 61 -29 0zm58 -83l69 0 -21 -56c-6,-17 -11,-31 -14,-42 -3,13 -7,26 -12,39l-22 59zm297 12l26 7c-5,22 -15,39 -30,50 -14,12 -32,18 -53,18 -22,0 -40,-5 -53,-14 -14,-9 -24,-21 -31,-38 -7,-17 -11,-35 -11,-54 0,-21 4,-40 12,-55 8,-16 19,-28 34,-36 15,-8 31,-12 49,-12 20,0 37,5 51,15 14,10 24,25 29,43l-26 7c-5,-15 -12,-26 -21,-32 -9,-7 -20,-10 -33,-10 -16,0 -29,3 -39,11 -11,7 -18,17 -22,30 -4,12 -6,25 -6,38 0,18 2,33 7,45 5,13 13,23 23,29 11,7 22,10 35,10 15,0 27,-5 37,-13 11,-9 18,-22 22,-39zm64 71l0 -202 27 0 0 202 -27 0zm66 -98c0,-34 9,-60 27,-79 18,-19 41,-28 69,-28 19,0 36,4 51,13 15,9 26,21 34,37 8,16 12,34 12,54 0,21 -4,39 -12,55 -9,17 -20,29 -36,37 -15,8 -31,13 -49,13 -19,0 -36,-5 -51,-14 -15,-9 -26,-22 -34,-38 -8,-16 -11,-32 -11,-50zm27 0c0,25 7,44 20,58 13,14 29,21 49,21 20,0 37,-7 50,-22 13,-14 19,-34 19,-60 0,-16 -2,-30 -8,-43 -6,-12 -14,-21 -24,-28 -11,-7 -23,-10 -36,-10 -19,0 -36,6 -49,19 -14,13 -21,35 -21,65zm49 -116l18 -39 33 0 -31 39 -20 0zm151 214l0 -202 28 0 106 159 0 -159 25 0 0 202 -27 0 -106 -158 0 158 -26 0z"/>
 </g>
</svg>
