<?xml version="1.0" encoding="UTF-8"?>
<!DOCTYPE svg PUBLIC "-//W3C//DTD SVG 1.1//EN" "http://www.w3.org/Graphics/SVG/1.1/DTD/svg11.dtd">
<!-- Creator: CorelDRAW X8 -->
<svg xmlns="http://www.w3.org/2000/svg" xml:space="preserve" width="57.706mm" height="7.214mm" version="1.1" style="shape-rendering:geometricPrecision; text-rendering:geometricPrecision; image-rendering:optimizeQuality; fill-rule:evenodd; clip-rule:evenodd"
viewBox="0 0 5771 721"
 xmlns:xlink="http://www.w3.org/1999/xlink">
 <defs>
  <style type="text/css">
   <![CDATA[
    .fil0 {fill:#657686;fill-rule:nonzero}
   ]]>
  </style>
 </defs>
 <g id="Capa_x0020_1">
  <metadata id="CorelCorpID_0Corel-Layer"/>
  <path class="fil0" d="M521 389l31 7c-7,26 -18,45 -35,58 -17,13 -37,20 -61,20 -25,0 -45,-5 -61,-15 -16,-11 -27,-25 -36,-45 -8,-19 -12,-39 -12,-62 0,-24 5,-45 14,-63 9,-18 22,-31 39,-40 17,-10 36,-14 56,-14 24,0 43,5 59,17 16,12 27,29 33,50l-30 7c-6,-17 -13,-29 -24,-37 -10,-7 -23,-11 -38,-11 -18,0 -33,4 -45,13 -12,8 -20,20 -25,34 -5,14 -7,29 -7,44 0,20 3,37 9,52 5,15 14,25 26,33 12,7 25,11 39,11 18,0 32,-5 44,-15 12,-10 20,-25 24,-44zm59 -32c0,-38 10,-68 31,-90 21,-22 47,-32 80,-32 21,0 41,5 58,15 17,10 30,24 39,43 9,18 14,38 14,62 0,23 -5,44 -15,63 -9,18 -23,32 -40,42 -17,9 -36,14 -56,14 -22,0 -41,-5 -59,-16 -17,-10 -30,-25 -39,-43 -8,-18 -13,-37 -13,-58zm32 1c0,28 7,50 22,66 15,16 34,24 57,24 23,0 42,-8 57,-25 15,-16 22,-39 22,-68 0,-19 -3,-36 -10,-50 -6,-14 -15,-25 -28,-32 -12,-8 -26,-12 -41,-12 -21,0 -40,8 -56,22 -15,15 -23,40 -23,75zm229 112l0 -232 31 0 122 182 0 -182 29 0 0 232 -31 0 -122 -182 0 182 -29 0zm224 -74l28 -3c2,12 5,21 10,29 5,7 13,13 23,18 11,4 22,7 36,7 11,0 22,-2 31,-6 9,-3 15,-8 20,-14 4,-6 6,-13 6,-20 0,-7 -2,-13 -6,-19 -4,-5 -11,-10 -21,-13 -6,-3 -20,-7 -41,-12 -22,-5 -36,-10 -45,-14 -11,-6 -19,-13 -25,-22 -5,-8 -8,-18 -8,-29 0,-11 4,-22 10,-32 7,-11 16,-18 29,-24 13,-5 27,-7 43,-7 17,0 32,2 45,8 13,5 23,13 30,24 7,11 11,23 12,37l-30 2c-1,-15 -7,-26 -16,-33 -9,-8 -22,-11 -40,-11 -19,0 -32,3 -41,10 -8,7 -12,15 -12,24 0,9 3,16 9,21 6,5 21,11 46,16 25,6 42,11 51,15 14,6 24,14 30,24 6,9 10,20 10,33 0,12 -4,24 -11,34 -7,11 -17,20 -30,26 -14,6 -28,9 -45,9 -21,0 -38,-3 -53,-9 -14,-6 -25,-16 -33,-28 -8,-12 -12,-26 -12,-41zm284 74l0 -204 -76 0 0 -28 183 0 0 28 -76 0 0 204 -31 0zm139 0l0 -232 103 0c21,0 36,3 47,7 11,4 19,11 26,22 6,10 9,22 9,35 0,16 -5,30 -16,41 -10,11 -27,18 -49,22 8,3 14,7 19,11 9,8 17,19 25,31l40 63 -38 0 -31 -48c-9,-14 -16,-25 -22,-32 -6,-8 -11,-13 -15,-16 -5,-3 -10,-5 -14,-6 -4,0 -10,-1 -17,-1l-36 0 0 103 -31 0zm31 -129l66 0c14,0 25,-2 33,-5 7,-3 13,-7 18,-14 4,-6 6,-13 6,-20 0,-11 -4,-20 -12,-27 -8,-8 -21,-11 -38,-11l-73 0 0 77zm354 -103l31 0 0 134c0,23 -3,42 -8,56 -6,13 -15,24 -29,33 -13,9 -31,13 -54,13 -21,0 -39,-4 -53,-11 -14,-8 -23,-19 -29,-33 -6,-14 -9,-33 -9,-58l0 -134 31 0 0 134c0,20 2,35 5,45 4,9 10,16 19,22 9,5 21,7 34,7 22,0 38,-5 48,-15 9,-10 14,-30 14,-59l0 -134zm247 151l30 7c-6,26 -18,45 -34,58 -17,13 -37,20 -61,20 -25,0 -45,-5 -61,-15 -16,-11 -28,-25 -36,-45 -8,-19 -12,-39 -12,-62 0,-24 5,-45 14,-63 9,-18 22,-31 39,-40 17,-10 36,-14 56,-14 23,0 43,5 59,17 15,12 26,29 33,50l-31 7c-5,-17 -13,-29 -23,-37 -10,-7 -23,-11 -38,-11 -18,0 -33,4 -45,13 -12,8 -20,20 -25,34 -5,14 -7,29 -7,44 0,20 3,37 8,52 6,15 15,25 27,33 12,7 25,11 39,11 17,0 32,-5 44,-15 11,-10 19,-25 24,-44zm233 0l31 7c-6,26 -18,45 -35,58 -16,13 -37,20 -61,20 -25,0 -45,-5 -61,-15 -15,-11 -27,-25 -35,-45 -8,-19 -12,-39 -12,-62 0,-24 4,-45 13,-63 10,-18 23,-31 40,-40 17,-10 35,-14 56,-14 23,0 42,5 58,17 16,12 27,29 33,50l-30 7c-5,-17 -13,-29 -23,-37 -11,-7 -23,-11 -39,-11 -18,0 -32,4 -44,13 -12,8 -21,20 -25,34 -5,14 -8,29 -8,44 0,20 3,37 9,52 6,15 14,25 27,33 12,7 25,11 39,11 17,0 31,-5 43,-15 12,-10 20,-25 24,-44zm74 81l0 -232 31 0 0 232 -31 0zm75 -113c0,-38 11,-68 31,-90 21,-22 48,-32 80,-32 22,0 41,5 58,15 17,10 30,24 39,43 9,18 14,38 14,62 0,23 -5,44 -14,63 -10,18 -23,32 -41,42 -17,9 -36,14 -56,14 -22,0 -41,-5 -58,-16 -18,-10 -31,-25 -39,-43 -9,-18 -14,-37 -14,-58zm32 1c0,28 7,50 22,66 15,16 34,24 57,24 23,0 42,-8 57,-25 15,-16 22,-39 22,-68 0,-19 -3,-36 -9,-50 -7,-14 -16,-25 -28,-32 -13,-8 -26,-12 -42,-12 -21,0 -40,8 -56,22 -15,15 -23,40 -23,75zm56 -134l20 -44 38 0 -35 44 -23 0zm173 246l0 -232 31 0 122 182 0 -182 29 0 0 232 -31 0 -122 -182 0 182 -29 0zm383 0l0 -98 -89 -134 37 0 45 70c9,13 17,26 24,39 7,-12 16,-25 26,-40l44 -69 36 0 -92 134 0 98 -31 0zm235 0l0 -232 167 0 0 28 -136 0 0 71 128 0 0 27 -128 0 0 79 142 0 0 27 -173 0zm215 0l0 -232 80 0c18,0 32,2 41,4 13,3 25,8 34,16 12,11 21,24 27,40 7,16 10,34 10,55 0,18 -3,33 -7,47 -4,13 -9,25 -15,33 -7,9 -14,16 -22,21 -7,5 -16,9 -27,12 -11,3 -23,4 -37,4l-84 0zm31 -27l49 0c15,0 27,-2 36,-4 9,-3 16,-7 21,-12 7,-8 13,-18 17,-30 4,-12 6,-27 6,-45 0,-24 -4,-42 -12,-55 -8,-14 -18,-22 -29,-27 -8,-3 -21,-4 -40,-4l-48 0 0 177zm208 27l0 -232 31 0 0 232 -31 0zm86 0l0 -232 156 0 0 28 -125 0 0 72 108 0 0 27 -108 0 0 105 -31 0zm201 0l0 -232 31 0 0 232 -31 0zm250 -81l30 7c-6,26 -17,45 -34,58 -17,13 -37,20 -61,20 -25,0 -45,-5 -61,-15 -16,-11 -28,-25 -36,-45 -8,-19 -12,-39 -12,-62 0,-24 5,-45 14,-63 9,-18 22,-31 39,-40 17,-10 36,-14 56,-14 23,0 43,5 59,17 15,12 26,29 33,50l-30 7c-6,-17 -14,-29 -24,-37 -10,-7 -23,-11 -38,-11 -18,0 -33,4 -45,13 -12,8 -20,20 -25,34 -5,14 -7,29 -7,44 0,20 3,37 8,52 6,15 15,25 27,33 12,7 25,11 39,11 17,0 32,-5 44,-15 12,-10 20,-25 24,-44zm43 81l89 -232 33 0 95 232 -35 0 -27 -70 -97 0 -26 70 -32 0zm67 -95l78 0 -24 -64c-7,-20 -12,-36 -16,-49 -3,15 -8,30 -13,45l-25 68zm339 14l31 7c-7,26 -18,45 -35,58 -17,13 -37,20 -61,20 -25,0 -45,-5 -61,-15 -15,-11 -27,-25 -35,-45 -9,-19 -13,-39 -13,-62 0,-24 5,-45 14,-63 9,-18 22,-31 39,-40 17,-10 36,-14 56,-14 24,0 43,5 59,17 16,12 27,29 33,50l-30 7c-6,-17 -13,-29 -24,-37 -10,-7 -23,-11 -38,-11 -18,0 -33,4 -45,13 -12,8 -20,20 -25,34 -5,14 -7,29 -7,44 0,20 3,37 9,52 5,15 14,25 26,33 12,7 25,11 39,11 18,0 32,-5 44,-15 12,-10 20,-25 24,-44zm74 81l0 -232 30 0 0 232 -30 0zm75 -113c0,-38 10,-68 31,-90 21,-22 47,-32 80,-32 21,0 41,5 58,15 17,10 30,24 39,43 9,18 14,38 14,62 0,23 -5,44 -15,63 -9,18 -23,32 -40,42 -17,9 -36,14 -56,14 -22,0 -42,-5 -59,-16 -17,-10 -30,-25 -39,-43 -9,-18 -13,-37 -13,-58zm32 1c0,28 7,50 22,66 15,16 34,24 57,24 23,0 42,-8 57,-25 14,-16 22,-39 22,-68 0,-19 -3,-36 -10,-50 -6,-14 -15,-25 -28,-32 -12,-8 -26,-12 -41,-12 -22,0 -40,8 -56,22 -15,15 -23,40 -23,75zm55 -134l21 -44 38 0 -35 44 -24 0zm174 246l0 -232 31 0 122 182 0 -182 29 0 0 232 -32 0 -121 -182 0 182 -29 0z"/>
 </g>
</svg>
