<?xml version="1.0" encoding="UTF-8"?>
<!DOCTYPE svg PUBLIC "-//W3C//DTD SVG 1.1//EN" "http://www.w3.org/Graphics/SVG/1.1/DTD/svg11.dtd">
<!-- Creator: CorelDRAW X8 -->
<svg xmlns="http://www.w3.org/2000/svg" xml:space="preserve" width="28.926mm" height="2.565mm" version="1.1" style="shape-rendering:geometricPrecision; text-rendering:geometricPrecision; image-rendering:optimizeQuality; fill-rule:evenodd; clip-rule:evenodd"
viewBox="0 0 2893 257"
 xmlns:xlink="http://www.w3.org/1999/xlink">
 <defs>
  <style type="text/css">
   <![CDATA[
    .fil0 {fill:#657686;fill-rule:nonzero}
   ]]>
  </style>
 </defs>
 <g id="Capa_x0020_1">
  <metadata id="CorelCorpID_0Corel-Layer"/>
  <path class="fil0" d="M152 182l26 7c-5,22 -15,39 -30,50 -14,12 -32,18 -53,18 -22,0 -40,-5 -53,-14 -14,-9 -24,-21 -31,-38 -7,-17 -11,-35 -11,-54 0,-21 4,-40 12,-55 8,-16 20,-28 34,-36 15,-8 31,-12 49,-12 21,0 37,5 51,15 14,10 24,25 29,43l-26 7c-5,-15 -12,-26 -21,-32 -9,-7 -20,-10 -33,-10 -16,0 -29,3 -39,11 -10,7 -18,17 -22,30 -4,12 -6,25 -6,38 0,18 2,33 7,45 5,13 13,23 23,29 11,7 22,10 35,10 15,0 27,-5 38,-13 10,-9 17,-22 21,-39zm192 -131l27 0 0 117c0,20 -3,36 -7,48 -5,12 -13,22 -25,29 -12,8 -28,12 -47,12 -19,0 -35,-4 -47,-10 -12,-7 -20,-16 -25,-29 -5,-12 -8,-29 -8,-50l0 -117 27 0 0 117c0,17 1,30 5,39 3,8 9,14 16,19 8,4 18,7 29,7 20,0 34,-5 42,-14 9,-9 13,-26 13,-51l0 -117zm76 202l0 -202 27 0 0 202 -27 0zm74 0l0 -202 69 0c16,0 28,1 36,3 12,3 22,7 30,14 11,9 19,21 24,35 5,14 8,30 8,48 0,15 -2,29 -6,41 -3,12 -8,21 -13,29 -6,8 -12,14 -19,19 -6,4 -15,7 -24,10 -9,2 -20,3 -32,3l-73 0zm26 -24l44 0c13,0 23,-1 31,-3 7,-3 13,-6 18,-11 6,-6 11,-15 15,-25 3,-11 5,-24 5,-39 0,-22 -3,-38 -10,-49 -7,-12 -16,-19 -26,-23 -7,-3 -18,-4 -34,-4l-43 0 0 154zm155 24l78 -202 29 0 83 202 -31 0 -23 -61 -85 0 -22 61 -29 0zm58 -83l69 0 -21 -56c-6,-17 -11,-31 -14,-42 -3,13 -7,26 -11,39l-23 59zm153 83l0 -202 69 0c16,0 28,1 36,3 12,3 22,7 30,14 11,9 19,21 24,35 5,14 8,30 8,48 0,15 -2,29 -6,41 -3,12 -8,21 -13,29 -6,8 -12,14 -19,19 -6,4 -14,7 -24,10 -9,2 -20,3 -32,3l-73 0zm27 -24l43 0c13,0 23,-1 31,-3 8,-3 14,-6 18,-11 6,-6 11,-15 15,-25 3,-11 5,-24 5,-39 0,-22 -3,-38 -10,-49 -7,-12 -16,-19 -26,-23 -7,-3 -18,-4 -34,-4l-42 0 0 154zm168 -74c0,-34 9,-60 27,-79 18,-19 42,-28 70,-28 19,0 36,4 51,13 15,9 26,21 34,37 8,16 12,34 12,54 0,21 -4,39 -13,55 -8,17 -20,29 -35,37 -15,8 -31,13 -49,13 -19,0 -36,-5 -51,-14 -15,-9 -26,-22 -34,-38 -8,-16 -12,-32 -12,-50zm28 0c0,25 7,44 20,58 13,14 29,21 49,21 20,0 37,-7 50,-22 13,-14 19,-34 19,-60 0,-16 -3,-30 -8,-43 -6,-12 -14,-21 -25,-28 -10,-7 -22,-10 -36,-10 -19,0 -35,6 -49,19 -13,13 -20,35 -20,65zm278 98l0 -202 77 0c13,0 23,1 31,2 9,2 18,5 24,9 7,5 13,12 17,20 4,8 6,17 6,27 0,18 -6,32 -17,44 -10,12 -30,18 -59,18l-52 0 0 82 -27 0zm27 -106l52 0c18,0 30,-3 37,-10 8,-6 11,-15 11,-27 0,-8 -2,-15 -6,-21 -4,-7 -10,-11 -17,-12 -5,-2 -13,-2 -25,-2l-52 0 0 72zm162 106l0 -202 146 0 0 24 -119 0 0 62 112 0 0 24 -112 0 0 68 124 0 0 24 -151 0zm189 0l0 -202 89 0c18,0 32,2 41,6 9,3 17,10 23,19 5,9 8,19 8,30 0,14 -5,27 -14,36 -9,10 -24,16 -43,19 7,4 13,7 16,10 8,7 15,16 22,27l35 55 -33 0 -27 -42c-8,-12 -14,-21 -19,-28 -5,-6 -10,-11 -14,-13 -4,-3 -8,-5 -12,-6 -3,0 -8,-1 -15,-1l-31 0 0 90 -26 0zm26 -113l58 0c12,0 21,-1 28,-4 7,-2 12,-6 16,-12 3,-5 5,-11 5,-18 0,-9 -3,-17 -10,-23 -7,-7 -18,-10 -33,-10l-64 0 0 67zm168 48l25 -2c1,10 4,18 8,25 5,6 12,12 21,16 9,4 19,6 31,6 10,0 19,-2 27,-5 8,-3 13,-7 17,-12 4,-6 6,-11 6,-18 0,-6 -2,-11 -6,-16 -3,-5 -9,-9 -18,-12 -5,-2 -17,-5 -36,-10 -18,-4 -31,-9 -39,-13 -9,-5 -17,-11 -21,-18 -5,-8 -7,-16 -7,-26 0,-10 3,-19 8,-28 6,-9 15,-16 26,-20 11,-5 23,-7 37,-7 15,0 28,2 39,7 12,5 21,12 27,21 6,10 9,20 10,32l-26 2c-1,-13 -6,-22 -14,-29 -8,-6 -20,-10 -35,-10 -16,0 -28,3 -36,9 -7,6 -11,13 -11,22 0,7 3,13 8,18 5,4 19,9 40,14 22,5 37,9 45,13 12,5 21,12 26,20 6,9 9,18 9,29 0,11 -3,21 -10,30 -6,10 -15,17 -26,23 -12,5 -25,8 -39,8 -18,0 -34,-3 -46,-8 -12,-6 -22,-14 -29,-25 -7,-10 -11,-22 -11,-36zm189 -33c0,-34 9,-60 27,-79 18,-19 41,-28 70,-28 18,0 35,4 50,13 15,9 26,21 34,37 8,16 12,34 12,54 0,21 -4,39 -12,55 -9,17 -20,29 -35,37 -16,8 -32,13 -50,13 -19,0 -36,-5 -51,-14 -15,-9 -26,-22 -34,-38 -7,-16 -11,-32 -11,-50zm27 0c0,25 7,44 20,58 13,14 30,21 49,21 20,0 37,-7 50,-22 13,-14 19,-34 19,-60 0,-16 -2,-30 -8,-43 -5,-12 -14,-21 -24,-28 -11,-7 -23,-10 -36,-10 -19,0 -35,6 -49,19 -14,13 -21,35 -21,65zm200 98l0 -202 28 0 106 159 0 -159 25 0 0 202 -27 0 -106 -158 0 158 -26 0zm182 0l78 -202 29 0 82 202 -30 0 -23 -61 -86 0 -21 61 -29 0zm58 -83l69 0 -21 -56c-6,-17 -11,-31 -14,-42 -3,13 -7,26 -12,39l-22 59zm151 83l0 -202 27 0 0 178 100 0 0 24 -127 0z"/>
 </g>
</svg>
