<?xml version="1.0" encoding="UTF-8"?>
<!DOCTYPE svg PUBLIC "-//W3C//DTD SVG 1.1//EN" "http://www.w3.org/Graphics/SVG/1.1/DTD/svg11.dtd">
<!-- Creator: CorelDRAW X8 -->
<svg xmlns="http://www.w3.org/2000/svg" xml:space="preserve" width="30.876mm" height="7.214mm" version="1.1" style="shape-rendering:geometricPrecision; text-rendering:geometricPrecision; image-rendering:optimizeQuality; fill-rule:evenodd; clip-rule:evenodd"
viewBox="0 0 3088 721"
 xmlns:xlink="http://www.w3.org/1999/xlink">
 <defs>
  <style type="text/css">
   <![CDATA[
    .fil0 {fill:#657686;fill-rule:nonzero}
   ]]>
  </style>
 </defs>
 <g id="Capa_x0020_1">
  <metadata id="CorelCorpID_0Corel-Layer"/>
  <path class="fil0" d="M464 379l0 -27 98 0 0 86c-15,12 -30,21 -46,27 -16,6 -33,9 -49,9 -23,0 -44,-5 -62,-15 -19,-9 -33,-24 -43,-42 -9,-18 -14,-39 -14,-62 0,-22 5,-43 14,-63 10,-19 23,-34 41,-43 18,-10 38,-14 61,-14 17,0 32,2 46,8 13,5 24,13 31,22 8,10 14,23 18,38l-28 8c-3,-12 -8,-21 -13,-28 -5,-7 -12,-12 -22,-16 -9,-4 -20,-6 -32,-6 -14,0 -26,2 -36,6 -10,4 -18,10 -25,17 -6,7 -11,15 -14,23 -6,14 -9,30 -9,47 0,20 4,38 11,52 7,13 17,24 31,31 13,6 28,10 43,10 13,0 26,-3 39,-8 12,-5 22,-11 28,-17l0 -43 -68 0zm118 91l89 -232 34 0 94 232 -35 0 -27 -70 -97 0 -25 70 -33 0zm67 -95l79 0 -24 -64c-8,-20 -13,-36 -17,-49 -3,15 -8,30 -13,45l-25 68zm164 21l29 -3c1,12 5,21 10,29 5,7 12,13 23,18 10,4 22,7 35,7 12,0 22,-2 31,-6 9,-3 16,-8 20,-14 5,-6 7,-13 7,-20 0,-7 -2,-13 -7,-19 -4,-5 -11,-10 -20,-13 -7,-3 -20,-7 -42,-12 -21,-5 -36,-10 -44,-14 -11,-6 -20,-13 -25,-22 -5,-8 -8,-18 -8,-29 0,-11 3,-22 10,-32 7,-11 16,-18 29,-24 13,-5 27,-7 42,-7 18,0 33,2 46,8 13,5 23,13 30,24 7,11 11,23 11,37l-29 2c-2,-15 -7,-26 -16,-33 -9,-8 -23,-11 -40,-11 -19,0 -32,3 -41,10 -8,7 -13,15 -13,24 0,9 3,16 9,21 6,5 22,11 47,16 24,6 42,11 51,15 13,6 23,14 30,24 6,9 9,20 9,33 0,12 -3,24 -10,34 -7,11 -18,20 -31,26 -13,6 -28,9 -44,9 -21,0 -39,-3 -53,-9 -14,-6 -25,-16 -33,-28 -8,-12 -12,-26 -13,-41zm285 74l0 -204 -77 0 0 -28 184 0 0 28 -77 0 0 204 -30 0zm139 0l0 -232 103 0c20,0 36,3 47,7 10,4 19,11 25,22 7,10 10,22 10,35 0,16 -5,30 -16,41 -11,11 -27,18 -49,22 8,3 14,7 18,11 9,8 18,19 26,31l40 63 -39 0 -30 -48c-9,-14 -16,-25 -22,-32 -6,-8 -11,-13 -16,-16 -4,-3 -9,-5 -14,-6 -3,0 -9,-1 -17,-1l-35 0 0 103 -31 0zm31 -129l66 0c14,0 24,-2 32,-5 8,-3 14,-7 18,-14 4,-6 6,-13 6,-20 0,-11 -4,-20 -12,-27 -7,-8 -20,-11 -37,-11l-73 0 0 77zm193 16c0,-38 10,-68 31,-90 20,-22 47,-32 79,-32 22,0 41,5 58,15 17,10 31,24 40,43 9,18 13,38 13,62 0,23 -5,44 -14,63 -10,18 -23,32 -40,42 -18,9 -37,14 -57,14 -22,0 -41,-5 -58,-16 -17,-10 -30,-25 -39,-43 -9,-18 -13,-37 -13,-58zm31 1c0,28 8,50 23,66 15,16 34,24 56,24 23,0 42,-8 57,-25 15,-16 22,-39 22,-68 0,-19 -3,-36 -9,-50 -7,-14 -16,-25 -28,-32 -12,-8 -26,-12 -41,-12 -22,0 -41,8 -56,22 -16,15 -24,40 -24,75zm229 112l0 -232 32 0 121 182 0 -182 30 0 0 232 -32 0 -121 -182 0 182 -30 0zm225 -113c0,-38 10,-68 31,-90 20,-22 47,-32 80,-32 21,0 40,5 57,15 17,10 31,24 40,43 9,18 13,38 13,62 0,23 -5,44 -14,63 -10,18 -23,32 -40,42 -18,9 -37,14 -57,14 -21,0 -41,-5 -58,-16 -17,-10 -30,-25 -39,-43 -9,-18 -13,-37 -13,-58zm31 1c0,28 8,50 23,66 15,16 34,24 56,24 23,0 42,-8 57,-25 15,-16 22,-39 22,-68 0,-19 -3,-36 -9,-50 -6,-14 -16,-25 -28,-32 -12,-8 -26,-12 -41,-12 -22,0 -41,8 -56,22 -16,15 -24,40 -24,75zm229 112l0 -232 46 0 55 164c5,16 8,27 11,35 2,-9 6,-21 12,-38l56 -161 41 0 0 232 -30 0 0 -194 -67 194 -28 0 -67 -197 0 197 -29 0zm275 0l0 -232 31 0 0 232 -31 0zm-9 -246l20 -44 38 0 -35 44 -23 0zm68 246l89 -232 34 0 94 232 -35 0 -27 -70 -97 0 -25 70 -33 0zm67 -95l79 0 -24 -64c-8,-20 -13,-36 -17,-49 -3,15 -7,30 -13,45l-25 68z"/>
 </g>
</svg>
