<?xml version="1.0" encoding="UTF-8"?>
<!DOCTYPE svg PUBLIC "-//W3C//DTD SVG 1.1//EN" "http://www.w3.org/Graphics/SVG/1.1/DTD/svg11.dtd">
<!-- Creator: CorelDRAW X8 -->
<svg xmlns="http://www.w3.org/2000/svg" xml:space="preserve" width="25.847mm" height="7.214mm" version="1.1" style="shape-rendering:geometricPrecision; text-rendering:geometricPrecision; image-rendering:optimizeQuality; fill-rule:evenodd; clip-rule:evenodd"
viewBox="0 0 2585 721"
 xmlns:xlink="http://www.w3.org/1999/xlink">
 <defs>
  <style type="text/css">
   <![CDATA[
    .fil0 {fill:#657686;fill-rule:nonzero}
   ]]>
  </style>
 </defs>
 <g id="Capa_x0020_1">
  <metadata id="CorelCorpID_0Corel-Layer"/>
  <path class="fil0" d="M361 470l0 -232 31 0 0 232 -31 0zm85 0l0 -232 31 0 121 182 0 -182 30 0 0 232 -32 0 -121 -182 0 182 -29 0zm233 0l0 -232 80 0c18,0 32,2 41,4 14,3 25,8 34,16 13,11 22,24 28,40 6,16 9,34 9,55 0,18 -2,33 -6,47 -4,13 -10,25 -16,33 -7,9 -14,16 -21,21 -8,5 -17,9 -28,12 -11,3 -23,4 -37,4l-84 0zm31 -27l49 0c16,0 28,-2 36,-4 9,-3 16,-7 21,-12 7,-8 13,-18 17,-30 4,-12 6,-27 6,-45 0,-24 -4,-42 -12,-55 -8,-14 -17,-22 -29,-27 -8,-3 -21,-4 -39,-4l-49 0 0 177zm355 -205l30 0 0 134c0,23 -2,42 -8,56 -5,13 -14,24 -28,33 -14,9 -32,13 -54,13 -22,0 -39,-4 -53,-11 -14,-8 -24,-19 -30,-33 -5,-14 -8,-33 -8,-58l0 -134 30 0 0 134c0,20 2,35 6,45 4,9 10,16 19,22 9,5 20,7 33,7 23,0 39,-5 48,-15 10,-10 15,-30 15,-59l0 -134zm71 158l29 -3c2,12 5,21 10,29 5,7 12,13 23,18 10,4 22,7 36,7 11,0 21,-2 30,-6 9,-3 16,-8 20,-14 5,-6 7,-13 7,-20 0,-7 -2,-13 -6,-19 -5,-5 -12,-10 -21,-13 -6,-3 -20,-7 -41,-12 -22,-5 -37,-10 -45,-14 -11,-6 -19,-13 -25,-22 -5,-8 -8,-18 -8,-29 0,-11 3,-22 10,-32 7,-11 16,-18 29,-24 13,-5 27,-7 43,-7 17,0 32,2 45,8 13,5 23,13 30,24 7,11 11,23 12,37l-30 2c-1,-15 -7,-26 -16,-33 -9,-8 -22,-11 -40,-11 -19,0 -32,3 -41,10 -8,7 -12,15 -12,24 0,9 3,16 9,21 5,5 21,11 46,16 25,6 42,11 51,15 13,6 23,14 30,24 6,9 9,20 9,33 0,12 -3,24 -10,34 -7,11 -17,20 -31,26 -13,6 -28,9 -44,9 -21,0 -39,-3 -53,-9 -14,-6 -25,-16 -33,-28 -8,-12 -12,-26 -13,-41zm285 74l0 -204 -76 0 0 -28 183 0 0 28 -76 0 0 204 -31 0zm139 0l0 -232 103 0c21,0 36,3 47,7 11,4 19,11 26,22 6,10 9,22 9,35 0,16 -5,30 -16,41 -10,11 -27,18 -49,22 8,3 14,7 19,11 8,8 17,19 25,31l40 63 -38 0 -31 -48c-9,-14 -16,-25 -22,-32 -6,-8 -11,-13 -16,-16 -4,-3 -9,-5 -14,-6 -3,0 -9,-1 -17,-1l-35 0 0 103 -31 0zm31 -129l66 0c14,0 25,-2 32,-5 8,-3 14,-7 18,-14 4,-6 7,-13 7,-20 0,-11 -4,-20 -12,-27 -8,-8 -21,-11 -38,-11l-73 0 0 77zm207 129l0 -232 31 0 0 232 -31 0zm60 0l88 -232 34 0 94 232 -35 0 -26 -70 -98 0 -25 70 -32 0zm66 -95l79 0 -24 -64c-7,-20 -13,-36 -17,-49 -3,15 -7,30 -12,45l-26 68zm173 95l0 -232 31 0 0 205 114 0 0 27 -145 0z"/>
 </g>
</svg>
