<?xml version="1.0" encoding="UTF-8"?>
<!DOCTYPE svg PUBLIC "-//W3C//DTD SVG 1.1//EN" "http://www.w3.org/Graphics/SVG/1.1/DTD/svg11.dtd">
<!-- Creator: CorelDRAW X8 -->
<svg xmlns="http://www.w3.org/2000/svg" xml:space="preserve" width="22.972mm" height="7.214mm" version="1.1" style="shape-rendering:geometricPrecision; text-rendering:geometricPrecision; image-rendering:optimizeQuality; fill-rule:evenodd; clip-rule:evenodd"
viewBox="0 0 2297 721"
 xmlns:xlink="http://www.w3.org/1999/xlink">
 <defs>
  <style type="text/css">
   <![CDATA[
    .fil0 {fill:#657686;fill-rule:nonzero}
   ]]>
  </style>
 </defs>
 <g id="Capa_x0020_1">
  <metadata id="CorelCorpID_0Corel-Layer"/>
  <path class="fil0" d="M521 389l31 7c-7,26 -18,45 -35,58 -17,13 -37,20 -61,20 -25,0 -45,-5 -61,-15 -15,-11 -27,-25 -35,-45 -9,-19 -13,-39 -13,-62 0,-24 5,-45 14,-63 9,-18 22,-31 39,-40 17,-10 36,-14 56,-14 24,0 43,5 59,17 16,12 27,29 33,50l-30 7c-6,-17 -13,-29 -24,-37 -10,-7 -23,-11 -38,-11 -18,0 -33,4 -45,13 -12,8 -20,20 -25,34 -5,14 -7,29 -7,44 0,20 3,37 9,52 5,15 14,25 26,33 12,7 25,11 39,11 18,0 32,-5 44,-15 12,-10 20,-25 24,-44zm59 -32c0,-38 11,-68 31,-90 21,-22 47,-32 80,-32 21,0 41,5 58,15 17,10 30,24 39,43 9,18 14,38 14,62 0,23 -5,44 -15,63 -9,18 -22,32 -40,42 -17,9 -36,14 -56,14 -22,0 -41,-5 -59,-16 -17,-10 -30,-25 -39,-43 -8,-18 -13,-37 -13,-58zm32 1c0,28 7,50 22,66 15,16 34,24 57,24 23,0 42,-8 57,-25 15,-16 22,-39 22,-68 0,-19 -3,-36 -10,-50 -6,-14 -15,-25 -27,-32 -13,-8 -27,-12 -42,-12 -21,0 -40,8 -56,22 -15,15 -23,40 -23,75zm228 112l0 -232 46 0 55 164c5,16 9,27 11,35 3,-9 7,-21 13,-38l55 -161 41 0 0 232 -29 0 0 -194 -68 194 -27 0 -67 -197 0 197 -30 0zm270 0l0 -232 88 0c15,0 27,1 35,3 11,2 21,5 29,10 7,6 14,13 18,23 5,9 7,20 7,31 0,20 -6,37 -19,50 -12,14 -35,21 -67,21l-60 0 0 94 -31 0zm31 -122l60 0c20,0 34,-3 42,-11 8,-7 13,-17 13,-31 0,-9 -3,-18 -8,-25 -5,-7 -11,-11 -19,-13 -5,-2 -15,-2 -29,-2l-59 0 0 82zm186 122l0 -232 102 0c21,0 37,3 47,7 11,4 20,11 26,22 7,10 10,22 10,35 0,16 -6,30 -16,41 -11,11 -27,18 -49,22 8,3 14,7 18,11 9,8 17,19 25,31l40 63 -38 0 -30 -48c-9,-14 -17,-25 -23,-32 -5,-8 -10,-13 -15,-16 -5,-3 -9,-5 -14,-6 -3,0 -9,-1 -17,-1l-36 0 0 103 -30 0zm30 -129l66 0c14,0 25,-2 33,-5 8,-3 14,-7 18,-14 4,-6 6,-13 6,-20 0,-11 -4,-20 -12,-27 -8,-8 -20,-11 -37,-11l-74 0 0 77zm177 129l89 -232 34 0 94 232 -35 0 -27 -70 -97 0 -25 70 -33 0zm67 -95l79 0 -24 -64c-8,-20 -13,-36 -17,-49 -3,15 -7,30 -13,45l-25 68zm164 21l29 -3c1,12 5,21 10,29 5,7 12,13 23,18 10,4 22,7 35,7 12,0 22,-2 31,-6 9,-3 16,-8 20,-14 5,-6 7,-13 7,-20 0,-7 -2,-13 -6,-19 -5,-5 -12,-10 -21,-13 -7,-3 -20,-7 -42,-12 -21,-5 -36,-10 -44,-14 -11,-6 -19,-13 -25,-22 -5,-8 -8,-18 -8,-29 0,-11 3,-22 10,-32 7,-11 16,-18 29,-24 13,-5 27,-7 42,-7 18,0 33,2 46,8 13,5 23,13 30,24 7,11 11,23 11,37l-29 2c-2,-15 -7,-26 -16,-33 -9,-8 -23,-11 -40,-11 -19,0 -32,3 -41,10 -8,7 -13,15 -13,24 0,9 3,16 9,21 6,5 22,11 47,16 25,6 42,11 51,15 13,6 23,14 30,24 6,9 9,20 9,33 0,12 -3,24 -10,34 -7,11 -17,20 -31,26 -13,6 -28,9 -44,9 -21,0 -39,-3 -53,-9 -14,-6 -25,-16 -33,-28 -8,-12 -12,-26 -13,-41z"/>
 </g>
</svg>
