<?xml version="1.0" encoding="UTF-8"?>
<!DOCTYPE svg PUBLIC "-//W3C//DTD SVG 1.1//EN" "http://www.w3.org/Graphics/SVG/1.1/DTD/svg11.dtd">
<!-- Creator: CorelDRAW X8 -->
<svg xmlns="http://www.w3.org/2000/svg" xml:space="preserve" width="43.998mm" height="7.214mm" version="1.1" style="shape-rendering:geometricPrecision; text-rendering:geometricPrecision; image-rendering:optimizeQuality; fill-rule:evenodd; clip-rule:evenodd"
viewBox="0 0 4400 721"
 xmlns:xlink="http://www.w3.org/1999/xlink">
 <defs>
  <style type="text/css">
   <![CDATA[
    .fil0 {fill:#657686;fill-rule:nonzero}
   ]]>
  </style>
 </defs>
 <g id="Capa_x0020_1">
  <metadata id="CorelCorpID_0Corel-Layer"/>
  <path class="fil0" d="M346 396l29 -3c1,12 4,21 9,29 5,7 13,13 24,18 10,4 22,7 35,7 12,0 22,-2 31,-6 9,-3 16,-8 20,-14 4,-6 7,-13 7,-20 0,-7 -3,-13 -7,-19 -4,-5 -11,-10 -21,-13 -6,-3 -20,-7 -41,-12 -21,-5 -36,-10 -45,-14 -11,-6 -19,-13 -24,-22 -6,-8 -8,-18 -8,-29 0,-11 3,-22 10,-32 6,-11 16,-18 29,-24 12,-5 27,-7 42,-7 17,0 32,2 46,8 13,5 23,13 30,24 7,11 11,23 11,37l-29 2c-2,-15 -7,-26 -16,-33 -9,-8 -23,-11 -41,-11 -18,0 -32,3 -40,10 -9,7 -13,15 -13,24 0,9 3,16 9,21 6,5 21,11 46,16 25,6 42,11 52,15 13,6 23,14 29,24 7,9 10,20 10,33 0,12 -4,24 -11,34 -7,11 -17,20 -30,26 -13,6 -28,9 -45,9 -20,0 -38,-3 -52,-9 -14,-6 -25,-16 -33,-28 -8,-12 -13,-26 -13,-41zm226 74l0 -232 167 0 0 28 -136 0 0 71 128 0 0 27 -128 0 0 79 142 0 0 27 -173 0zm216 0l0 -232 103 0c20,0 36,3 47,7 10,4 19,11 25,22 7,10 10,22 10,35 0,16 -5,30 -16,41 -11,11 -27,18 -49,22 8,3 14,7 18,11 9,8 18,19 26,31l40 63 -39 0 -30 -48c-9,-14 -16,-25 -22,-32 -6,-8 -11,-13 -16,-16 -4,-3 -9,-5 -14,-6 -3,-1 -9,-1 -17,-1l-35 0 0 103 -31 0zm31 -129l65 0c14,0 25,-2 33,-5 8,-3 14,-7 18,-14 4,-6 6,-13 6,-20 0,-11 -4,-20 -12,-27 -8,-8 -20,-11 -37,-11l-73 0 0 77zm262 129l-89 -232 33 0 60 169c5,13 9,26 12,38 4,-13 8,-26 12,-38l63 -169 31 0 -90 232 -32 0zm155 0l0 -232 31 0 0 232 -31 0zm249 -81l31 7c-6,26 -18,45 -34,58 -17,13 -37,20 -62,20 -24,0 -45,-5 -60,-15 -16,-11 -28,-25 -36,-45 -8,-19 -12,-39 -12,-62 0,-24 4,-45 14,-63 9,-18 22,-31 39,-41 17,-9 36,-13 56,-13 23,0 43,5 58,17 16,12 27,29 33,50l-30 7c-5,-17 -13,-29 -23,-37 -10,-7 -23,-11 -39,-11 -17,0 -32,4 -44,13 -12,8 -20,19 -25,34 -5,14 -7,29 -7,44 0,20 2,37 8,52 6,15 15,25 27,33 12,7 25,11 39,11 17,0 32,-5 43,-15 12,-10 20,-25 24,-44zm74 81l0 -232 31 0 0 232 -31 0zm76 -113c0,-38 10,-68 31,-90 20,-22 47,-32 79,-32 22,0 41,5 58,15 17,10 31,24 40,43 9,18 13,38 13,62 0,23 -5,44 -14,63 -10,18 -23,32 -40,42 -18,9 -37,14 -57,14 -22,0 -41,-5 -58,-16 -17,-10 -30,-25 -39,-43 -9,-18 -13,-37 -13,-58zm31 1c0,28 8,50 23,66 15,16 34,24 56,24 23,0 42,-8 57,-25 15,-16 22,-39 22,-68 0,-19 -3,-36 -9,-50 -7,-14 -16,-25 -28,-32 -12,-8 -26,-12 -41,-12 -22,0 -41,7 -56,22 -16,15 -24,40 -24,75zm219 38l29 -3c2,12 5,21 10,29 5,7 13,13 23,18 11,4 22,7 36,7 11,0 22,-2 30,-6 9,-3 16,-8 20,-14 5,-6 7,-13 7,-20 0,-7 -2,-13 -6,-19 -5,-5 -11,-10 -21,-13 -6,-3 -20,-7 -41,-12 -22,-5 -37,-10 -45,-14 -11,-6 -19,-13 -25,-22 -5,-8 -8,-18 -8,-29 0,-11 4,-22 10,-32 7,-11 16,-18 29,-24 13,-5 27,-7 43,-7 17,0 32,2 45,8 13,5 23,13 30,24 7,11 11,23 12,37l-30 2c-1,-15 -7,-26 -16,-33 -9,-8 -22,-11 -40,-11 -19,0 -32,3 -41,10 -8,7 -12,15 -12,24 0,9 3,16 9,21 6,5 21,11 46,16 25,6 42,11 51,15 13,6 23,14 30,24 6,9 9,20 9,33 0,12 -3,24 -10,34 -7,11 -17,20 -30,26 -14,6 -29,9 -45,9 -21,0 -38,-3 -53,-9 -14,-6 -25,-16 -33,-28 -8,-12 -12,-26 -13,-41zm316 74l0 -232 80 0c18,0 31,1 41,4 13,3 25,8 34,16 12,11 21,24 27,40 6,16 9,34 9,55 0,18 -2,33 -6,47 -4,13 -9,25 -16,33 -6,9 -13,16 -21,21 -7,5 -16,9 -27,12 -11,3 -23,4 -37,4l-84 0zm31 -27l49 0c15,0 27,-2 36,-4 9,-3 16,-7 21,-12 7,-8 13,-18 17,-30 4,-12 6,-27 6,-45 0,-24 -4,-42 -12,-55 -8,-14 -18,-22 -29,-27 -8,-3 -22,-4 -40,-4l-48 0 0 177zm203 27l0 -232 167 0 0 28 -136 0 0 71 128 0 0 27 -128 0 0 79 142 0 0 27 -173 0zm214 0l0 -232 31 0 0 205 113 0 0 27 -144 0zm260 0l0 -232 31 0 0 96 119 0 0 -96 31 0 0 232 -31 0 0 -109 -119 0 0 109 -31 0zm223 -113c0,-38 10,-68 31,-90 21,-22 47,-32 80,-32 21,0 41,5 58,15 17,10 30,24 39,43 9,18 13,38 13,62 0,23 -4,44 -14,63 -9,18 -23,32 -40,42 -17,9 -36,14 -56,14 -22,0 -42,-5 -59,-16 -17,-10 -30,-25 -39,-43 -9,-18 -13,-37 -13,-58zm32 1c0,28 7,50 22,66 15,16 34,24 57,24 23,0 42,-8 56,-25 15,-16 23,-39 23,-68 0,-19 -3,-36 -10,-50 -6,-14 -15,-25 -28,-32 -12,-8 -26,-12 -41,-12 -22,0 -40,7 -56,22 -16,15 -23,40 -23,75zm337 21l0 -27 98 0 0 86c-15,12 -30,21 -46,27 -16,6 -33,9 -50,9 -22,0 -43,-5 -62,-15 -18,-9 -32,-24 -42,-42 -9,-18 -14,-39 -14,-62 0,-22 5,-43 14,-63 10,-19 23,-34 41,-43 18,-10 38,-14 61,-14 17,0 32,2 45,8 14,5 25,13 32,22 8,10 14,23 18,38l-28 8c-3,-12 -8,-21 -13,-28 -5,-7 -12,-12 -22,-16 -10,-4 -20,-6 -32,-6 -14,0 -26,2 -36,6 -10,4 -19,10 -25,17 -6,7 -11,15 -14,23 -6,14 -9,30 -9,47 0,20 3,38 10,52 8,13 18,24 31,31 14,6 28,10 44,10 13,0 26,-3 38,-8 13,-5 23,-11 29,-17l0 -43 -68 0zm118 91l89 -232 34 0 94 232 -35 0 -27 -70 -97 0 -25 70 -33 0zm67 -95l79 0 -25 -64c-7,-20 -12,-36 -16,-49 -3,15 -8,30 -13,45l-25 68zm175 95l0 -232 102 0c21,0 37,3 47,7 11,4 20,11 26,22 7,10 10,22 10,35 0,16 -6,30 -16,41 -11,11 -27,18 -49,22 8,3 14,7 18,11 9,8 17,19 25,31l40 63 -38 0 -30 -48c-9,-14 -17,-25 -23,-32 -5,-8 -11,-13 -15,-16 -5,-3 -9,-5 -14,-6 -4,-1 -9,-1 -17,-1l-36 0 0 103 -30 0zm30 -129l66 0c14,0 25,-2 33,-5 8,-3 14,-7 18,-14 4,-6 6,-13 6,-20 0,-11 -4,-20 -12,-27 -8,-8 -20,-11 -37,-11l-74 0 0 77z"/>
 </g>
</svg>
