<?xml version="1.0" encoding="UTF-8"?>
<!DOCTYPE svg PUBLIC "-//W3C//DTD SVG 1.1//EN" "http://www.w3.org/Graphics/SVG/1.1/DTD/svg11.dtd">
<!-- Creator: CorelDRAW X8 -->
<svg xmlns="http://www.w3.org/2000/svg" xml:space="preserve" width="25.31mm" height="7.214mm" version="1.1" style="shape-rendering:geometricPrecision; text-rendering:geometricPrecision; image-rendering:optimizeQuality; fill-rule:evenodd; clip-rule:evenodd"
viewBox="0 0 2531 721"
 xmlns:xlink="http://www.w3.org/1999/xlink">
 <defs>
  <style type="text/css">
   <![CDATA[
    .fil0 {fill:#657686;fill-rule:nonzero}
   ]]>
  </style>
 </defs>
 <g id="Capa_x0020_1">
  <metadata id="CorelCorpID_0Corel-Layer"/>
  <path class="fil0" d="M361 470l0 -232 31 0 0 232 -31 0zm85 0l0 -232 31 0 121 182 0 -182 30 0 0 232 -32 0 -121 -182 0 182 -29 0zm233 0l0 -232 46 0 54 164c5,16 9,27 11,35 3,-9 7,-21 13,-38l56 -161 41 0 0 232 -30 0 0 -194 -67 194 -28 0 -67 -197 0 197 -29 0zm421 -232l31 0 0 134c0,23 -3,42 -8,56 -5,13 -15,24 -28,33 -14,9 -32,13 -54,13 -22,0 -40,-4 -53,-11 -14,-8 -24,-19 -30,-33 -6,-14 -9,-33 -9,-58l0 -134 31 0 0 134c0,20 2,35 6,45 3,9 10,16 19,22 9,5 20,7 33,7 23,0 39,-5 48,-15 10,-10 14,-30 14,-59l0 -134zm83 232l0 -232 167 0 0 28 -136 0 0 71 127 0 0 27 -127 0 0 79 142 0 0 27 -173 0zm214 0l0 -232 87 0c17,0 31,3 42,7 11,5 19,12 25,22 6,10 9,20 9,31 0,10 -2,19 -8,28 -5,8 -13,15 -24,21 14,4 25,11 32,21 8,10 12,21 12,35 0,11 -3,21 -7,30 -5,9 -11,17 -17,22 -7,5 -16,8 -26,11 -10,3 -22,4 -37,4l-88 0zm30 -134l50 0c14,0 24,-1 30,-3 7,-2 13,-6 17,-12 4,-5 6,-12 6,-20 0,-7 -2,-14 -5,-20 -4,-6 -9,-10 -16,-12 -7,-2 -19,-3 -35,-3l-47 0 0 70zm0 107l58 0c10,0 17,-1 21,-1 7,-2 13,-4 18,-7 4,-3 8,-7 11,-13 3,-5 5,-12 5,-19 0,-9 -2,-16 -7,-23 -4,-6 -10,-11 -18,-13 -8,-3 -19,-4 -34,-4l-54 0 0 80zm185 27l0 -232 31 0 0 205 114 0 0 27 -145 0zm182 0l0 -232 167 0 0 28 -136 0 0 71 128 0 0 27 -128 0 0 79 142 0 0 27 -173 0zm205 -74l29 -3c1,12 4,21 9,29 5,7 13,13 24,18 10,4 22,7 35,7 12,0 22,-2 31,-6 9,-3 16,-8 20,-14 4,-6 7,-13 7,-20 0,-7 -2,-13 -7,-19 -4,-5 -11,-10 -20,-13 -7,-3 -20,-7 -42,-12 -21,-5 -36,-10 -44,-14 -11,-6 -20,-13 -25,-22 -5,-8 -8,-18 -8,-29 0,-11 3,-22 10,-32 6,-11 16,-18 29,-24 13,-5 27,-7 42,-7 17,0 33,2 46,8 13,5 23,13 30,24 7,11 11,23 11,37l-29 2c-2,-15 -7,-26 -16,-33 -9,-8 -23,-11 -40,-11 -19,0 -33,3 -41,10 -8,7 -13,15 -13,24 0,9 3,16 9,21 6,5 22,11 46,16 25,6 42,11 52,15 13,6 23,14 29,24 7,9 10,20 10,33 0,12 -3,24 -10,34 -8,11 -18,20 -31,26 -13,6 -28,9 -44,9 -21,0 -39,-3 -53,-9 -14,-6 -25,-16 -33,-28 -8,-12 -12,-26 -13,-41z"/>
 </g>
</svg>
