<?xml version="1.0" encoding="UTF-8"?>
<!DOCTYPE svg PUBLIC "-//W3C//DTD SVG 1.1//EN" "http://www.w3.org/Graphics/SVG/1.1/DTD/svg11.dtd">
<!-- Creator: CorelDRAW X8 -->
<svg xmlns="http://www.w3.org/2000/svg" xml:space="preserve" width="27.824mm" height="7.214mm" version="1.1" style="shape-rendering:geometricPrecision; text-rendering:geometricPrecision; image-rendering:optimizeQuality; fill-rule:evenodd; clip-rule:evenodd"
viewBox="0 0 2782 721"
 xmlns:xlink="http://www.w3.org/1999/xlink">
 <defs>
  <style type="text/css">
   <![CDATA[
    .fil0 {fill:#657686;fill-rule:nonzero}
   ]]>
  </style>
 </defs>
 <g id="Capa_x0020_1">
  <metadata id="CorelCorpID_0Corel-Layer"/>
  <path class="fil0" d="M415 470l0 -204 -76 0 0 -28 183 0 0 28 -76 0 0 204 -31 0zm139 0l0 -232 167 0 0 28 -136 0 0 71 128 0 0 27 -128 0 0 79 142 0 0 27 -173 0zm380 -81l31 7c-7,26 -18,45 -35,58 -16,13 -37,20 -61,20 -25,0 -45,-5 -61,-15 -15,-11 -27,-25 -35,-45 -8,-19 -13,-39 -13,-62 0,-24 5,-45 14,-63 10,-18 23,-31 40,-40 17,-10 35,-14 56,-14 23,0 42,5 58,17 16,12 27,29 33,50l-30 7c-5,-17 -13,-29 -23,-37 -11,-7 -23,-11 -39,-11 -18,0 -33,4 -44,13 -12,8 -21,20 -26,34 -4,14 -7,29 -7,44 0,20 3,37 9,52 5,15 14,25 26,33 13,7 26,11 40,11 17,0 31,-5 43,-15 12,-10 20,-25 24,-44zm68 81l0 -232 32 0 121 182 0 -182 30 0 0 232 -32 0 -121 -182 0 182 -30 0zm225 -113c0,-38 10,-68 31,-90 21,-22 47,-32 80,-32 21,0 40,5 58,15 17,10 30,24 39,43 9,18 13,38 13,62 0,23 -4,44 -14,63 -9,18 -23,32 -40,42 -18,9 -36,14 -56,14 -22,0 -42,-5 -59,-16 -17,-10 -30,-25 -39,-43 -9,-18 -13,-37 -13,-58zm32 1c0,28 7,50 22,66 15,16 34,24 56,24 24,0 42,-8 57,-25 15,-16 23,-39 23,-68 0,-19 -3,-36 -10,-50 -6,-14 -16,-25 -28,-32 -12,-8 -26,-12 -41,-12 -22,0 -40,8 -56,22 -16,15 -23,40 -23,75zm227 112l0 -232 31 0 0 205 114 0 0 27 -145 0zm172 -113c0,-38 11,-68 31,-90 21,-22 47,-32 80,-32 22,0 41,5 58,15 17,10 30,24 39,43 9,18 14,38 14,62 0,23 -5,44 -14,63 -10,18 -23,32 -41,42 -17,9 -36,14 -56,14 -22,0 -41,-5 -58,-16 -18,-10 -31,-25 -39,-43 -9,-18 -14,-37 -14,-58zm32 1c0,28 7,50 22,66 15,16 34,24 57,24 23,0 42,-8 57,-25 15,-16 22,-39 22,-68 0,-19 -3,-36 -9,-50 -7,-14 -16,-25 -28,-32 -13,-8 -26,-12 -42,-12 -21,0 -40,8 -56,22 -15,15 -23,40 -23,75zm337 21l0 -27 98 0 0 86c-15,12 -30,21 -46,27 -16,6 -33,9 -49,9 -23,0 -44,-5 -62,-15 -19,-9 -33,-24 -42,-42 -10,-18 -15,-39 -15,-62 0,-22 5,-43 15,-63 9,-19 22,-34 40,-43 18,-10 38,-14 61,-14 17,0 32,2 46,8 13,5 24,13 31,22 8,10 14,23 18,38l-28 8c-3,-12 -8,-21 -13,-28 -5,-7 -12,-12 -22,-16 -9,-4 -20,-6 -32,-6 -14,0 -26,2 -36,6 -10,4 -18,10 -25,17 -6,7 -11,15 -14,23 -6,14 -9,30 -9,47 0,20 4,38 11,52 7,13 17,24 31,31 13,6 28,10 43,10 13,0 26,-3 39,-8 12,-5 22,-11 28,-17l0 -43 -68 0zm149 91l0 -232 31 0 0 232 -31 0zm-10 -246l21 -44 38 0 -35 44 -24 0zm69 246l89 -232 34 0 94 232 -35 0 -27 -70 -97 0 -25 70 -33 0zm67 -95l79 0 -25 -64c-7,-20 -12,-36 -16,-49 -3,15 -8,30 -13,45l-25 68z"/>
 </g>
</svg>
