<?xml version="1.0" encoding="UTF-8"?>
<!DOCTYPE svg PUBLIC "-//W3C//DTD SVG 1.1//EN" "http://www.w3.org/Graphics/SVG/1.1/DTD/svg11.dtd">
<!-- Creator: CorelDRAW X8 -->
<svg xmlns="http://www.w3.org/2000/svg" xml:space="preserve" width="44.476mm" height="7.214mm" version="1.1" style="shape-rendering:geometricPrecision; text-rendering:geometricPrecision; image-rendering:optimizeQuality; fill-rule:evenodd; clip-rule:evenodd"
viewBox="0 0 4448 721"
 xmlns:xlink="http://www.w3.org/1999/xlink">
 <defs>
  <style type="text/css">
   <![CDATA[
    .fil0 {fill:#657686;fill-rule:nonzero}
   ]]>
  </style>
 </defs>
 <g id="Capa_x0020_1">
  <metadata id="CorelCorpID_0Corel-Layer"/>
  <path class="fil0" d="M415 470l0 -204 -76 0 0 -28 183 0 0 28 -76 0 0 204 -31 0zm139 0l0 -232 103 0c20,0 36,3 47,7 11,4 19,11 26,22 6,10 9,22 9,35 0,16 -5,30 -16,41 -10,11 -27,18 -49,22 8,3 14,7 18,11 9,8 18,19 26,31l40 63 -38 0 -31 -48c-9,-14 -16,-25 -22,-32 -6,-8 -11,-13 -16,-16 -4,-3 -9,-5 -14,-6 -3,-1 -9,-1 -17,-1l-35 0 0 103 -31 0zm31 -129l66 0c14,0 25,-2 32,-5 8,-3 14,-7 18,-14 4,-6 6,-13 6,-20 0,-11 -3,-20 -11,-27 -8,-8 -21,-11 -38,-11l-73 0 0 77zm177 129l88 -232 34 0 94 232 -34 0 -27 -70 -98 0 -25 70 -32 0zm66 -95l79 0 -24 -64c-7,-20 -13,-36 -17,-49 -3,15 -7,30 -12,45l-26 68zm174 95l0 -232 32 0 121 182 0 -182 30 0 0 232 -32 0 -121 -182 0 182 -30 0zm224 -74l29 -3c1,12 5,21 10,29 5,7 12,13 23,18 10,4 22,7 35,7 12,0 22,-2 31,-6 9,-3 16,-8 20,-14 5,-6 7,-13 7,-20 0,-7 -2,-13 -6,-19 -5,-5 -12,-10 -21,-13 -7,-3 -20,-7 -42,-12 -21,-5 -36,-10 -44,-14 -11,-6 -20,-13 -25,-22 -5,-8 -8,-18 -8,-29 0,-11 3,-22 10,-32 7,-11 16,-18 29,-24 13,-5 27,-7 42,-7 18,0 33,2 46,8 13,5 23,13 30,24 7,11 11,23 11,37l-29 2c-2,-15 -7,-26 -16,-33 -9,-8 -23,-11 -40,-11 -19,0 -32,3 -41,10 -8,7 -13,15 -13,24 0,9 3,16 9,21 6,5 22,11 47,16 24,6 42,11 51,15 13,6 23,14 30,24 6,9 9,20 9,33 0,12 -3,24 -10,34 -7,11 -17,20 -31,26 -13,6 -28,9 -44,9 -21,0 -39,-3 -53,-9 -14,-6 -25,-16 -33,-28 -8,-12 -12,-26 -13,-41zm226 74l0 -232 87 0c16,0 27,1 36,3 11,2 21,5 28,10 8,6 14,13 19,23 4,9 7,20 7,31 0,20 -6,37 -19,50 -13,14 -35,21 -68,21l-59 0 0 94 -31 0zm31 -122l59 0c20,0 34,-3 43,-11 8,-7 12,-17 12,-31 0,-9 -2,-18 -7,-25 -5,-7 -12,-11 -20,-13 -5,-2 -14,-2 -28,-2l-59 0 0 82zm175 9c0,-38 11,-68 31,-90 21,-22 47,-32 80,-32 22,0 41,5 58,15 17,10 30,24 39,43 9,18 14,38 14,62 0,23 -5,44 -14,63 -10,18 -23,32 -41,42 -17,9 -36,14 -56,14 -22,0 -41,-5 -58,-16 -18,-10 -31,-25 -40,-43 -8,-18 -13,-37 -13,-58zm32 1c0,28 7,50 22,66 15,16 34,24 57,24 23,0 42,-8 57,-25 15,-16 22,-39 22,-68 0,-19 -3,-36 -9,-50 -7,-14 -16,-25 -28,-32 -13,-8 -26,-12 -42,-12 -21,0 -40,7 -56,22 -15,15 -23,40 -23,75zm230 112l0 -232 102 0c21,0 37,3 47,7 11,4 20,11 26,22 7,10 10,22 10,35 0,16 -6,30 -16,41 -11,11 -27,18 -49,22 8,3 14,7 18,11 9,8 17,19 25,31l40 63 -38 0 -30 -48c-9,-14 -17,-25 -22,-32 -6,-8 -11,-13 -16,-16 -5,-3 -9,-5 -14,-6 -3,-1 -9,-1 -17,-1l-36 0 0 103 -30 0zm30 -129l66 0c14,0 25,-2 33,-5 8,-3 14,-7 18,-14 4,-6 6,-13 6,-20 0,-11 -4,-20 -12,-27 -8,-8 -20,-11 -37,-11l-74 0 0 77zm256 129l0 -204 -77 0 0 -28 184 0 0 28 -77 0 0 204 -30 0zm139 0l0 -232 167 0 0 28 -136 0 0 71 127 0 0 27 -127 0 0 79 142 0 0 27 -173 0zm364 0l0 -98 -89 -134 37 0 46 70c8,13 16,26 23,39 7,-12 16,-25 26,-40l45 -69 36 0 -93 134 0 98 -31 0zm234 0l0 -232 46 0 55 164c5,16 9,27 11,35 2,-9 7,-21 12,-38l56 -161 41 0 0 232 -29 0 0 -194 -68 194 -28 0 -66 -197 0 197 -30 0zm261 -113c0,-38 10,-68 31,-90 20,-22 47,-32 80,-32 21,0 40,5 57,15 18,10 31,24 40,43 9,18 13,38 13,62 0,23 -5,44 -14,63 -9,18 -23,32 -40,42 -18,9 -36,14 -57,14 -21,0 -41,-5 -58,-16 -17,-10 -30,-25 -39,-43 -9,-18 -13,-37 -13,-58zm31 1c0,28 8,50 23,66 15,16 34,24 56,24 23,0 42,-8 57,-25 15,-16 23,-39 23,-68 0,-19 -4,-36 -10,-50 -6,-14 -16,-25 -28,-32 -12,-8 -26,-12 -41,-12 -22,0 -41,7 -56,22 -16,15 -24,40 -24,75zm288 112l0 -204 -76 0 0 -28 184 0 0 28 -77 0 0 204 -31 0zm124 -113c0,-38 10,-68 31,-90 21,-22 47,-32 80,-32 21,0 41,5 58,15 17,10 30,24 39,43 9,18 13,38 13,62 0,23 -4,44 -14,63 -9,18 -23,32 -40,42 -17,9 -36,14 -56,14 -22,0 -42,-5 -59,-16 -17,-10 -30,-25 -39,-43 -9,-18 -13,-37 -13,-58zm32 1c0,28 7,50 22,66 15,16 34,24 57,24 23,0 42,-8 56,-25 15,-16 23,-39 23,-68 0,-19 -3,-36 -10,-50 -6,-14 -15,-25 -28,-32 -12,-8 -26,-12 -41,-12 -22,0 -40,7 -56,22 -16,15 -23,40 -23,75zm230 112l0 -232 102 0c21,0 36,3 47,7 11,4 19,11 26,22 6,10 9,22 9,35 0,16 -5,30 -15,41 -11,11 -27,18 -50,22 8,3 15,7 19,11 9,8 17,19 25,31l40 63 -38 0 -31 -48c-9,-14 -16,-25 -22,-32 -6,-8 -11,-13 -15,-16 -5,-3 -10,-5 -14,-6 -4,-1 -9,-1 -17,-1l-36 0 0 103 -30 0zm30 -129l66 0c14,0 25,-2 33,-5 8,-3 14,-7 18,-14 4,-6 6,-13 6,-20 0,-11 -4,-20 -12,-27 -8,-8 -21,-11 -38,-11l-73 0 0 77z"/>
 </g>
</svg>
