<?xml version="1.0" encoding="UTF-8"?>
<!DOCTYPE svg PUBLIC "-//W3C//DTD SVG 1.1//EN" "http://www.w3.org/Graphics/SVG/1.1/DTD/svg11.dtd">
<!-- Creator: CorelDRAW X8 -->
<svg xmlns="http://www.w3.org/2000/svg" xml:space="preserve" width="21.532mm" height="7.214mm" version="1.1" style="shape-rendering:geometricPrecision; text-rendering:geometricPrecision; image-rendering:optimizeQuality; fill-rule:evenodd; clip-rule:evenodd"
viewBox="0 0 2153 721"
 xmlns:xlink="http://www.w3.org/1999/xlink">
 <defs>
  <style type="text/css">
   <![CDATA[
    .fil0 {fill:#657686;fill-rule:nonzero}
   ]]>
  </style>
 </defs>
 <g id="Capa_x0020_1">
  <metadata id="CorelCorpID_0Corel-Layer"/>
  <path class="fil0" d="M415 470l0 -204 -76 0 0 -28 183 0 0 28 -76 0 0 204 -31 0zm290 -232l31 0 0 134c0,23 -3,42 -8,56 -5,13 -15,24 -28,33 -14,9 -32,13 -54,13 -22,0 -40,-4 -53,-11 -14,-8 -24,-19 -30,-33 -6,-14 -9,-33 -9,-58l0 -134 31 0 0 134c0,20 2,35 6,45 3,9 10,16 19,22 9,5 20,7 33,7 22,0 38,-5 48,-15 9,-10 14,-30 14,-59l0 -134zm83 232l0 -232 102 0c21,0 37,3 47,7 11,4 20,11 26,22 6,10 10,22 10,35 0,16 -6,30 -16,41 -11,11 -27,18 -49,22 8,3 14,7 18,11 9,8 17,19 25,31l40 63 -38 0 -31 -48c-8,-14 -16,-25 -22,-32 -5,-8 -11,-13 -15,-16 -5,-3 -9,-5 -14,-6 -4,0 -9,-1 -17,-1l-36 0 0 103 -30 0zm30 -129l66 0c14,0 25,-2 33,-5 8,-3 14,-7 18,-14 4,-6 6,-13 6,-20 0,-11 -4,-20 -12,-27 -8,-8 -20,-11 -37,-11l-74 0 0 77zm208 129l0 -232 30 0 0 232 -30 0zm74 -74l29 -3c2,12 5,21 10,29 5,7 12,13 23,18 11,4 22,7 36,7 11,0 22,-2 30,-6 9,-3 16,-8 20,-14 5,-6 7,-13 7,-20 0,-7 -2,-13 -6,-19 -5,-5 -11,-10 -21,-13 -6,-3 -20,-7 -41,-12 -22,-5 -37,-10 -45,-14 -11,-6 -19,-13 -25,-22 -5,-8 -8,-18 -8,-29 0,-11 3,-22 10,-32 7,-11 16,-18 29,-24 13,-5 27,-7 43,-7 17,0 32,2 45,8 13,5 23,13 30,24 7,11 11,23 12,37l-30 2c-1,-15 -7,-26 -16,-33 -9,-8 -22,-11 -40,-11 -19,0 -32,3 -41,10 -8,7 -12,15 -12,24 0,9 3,16 9,21 5,5 21,11 46,16 25,6 42,11 51,15 13,6 23,14 30,24 6,9 9,20 9,33 0,12 -3,24 -10,34 -7,11 -17,20 -31,26 -13,6 -28,9 -44,9 -21,0 -39,-3 -53,-9 -14,-6 -25,-16 -33,-28 -8,-12 -12,-26 -13,-41zm225 74l0 -232 46 0 55 164c5,16 9,27 11,35 3,-9 7,-21 13,-38l55 -161 41 0 0 232 -29 0 0 -194 -68 194 -27 0 -67 -197 0 197 -30 0zm261 -113c0,-38 10,-68 31,-90 21,-22 47,-32 80,-32 21,0 41,5 58,15 17,10 30,24 39,43 9,18 14,38 14,62 0,23 -5,44 -15,63 -9,18 -23,32 -40,42 -17,9 -36,14 -56,14 -22,0 -41,-5 -59,-16 -17,-10 -30,-25 -39,-43 -8,-18 -13,-37 -13,-58zm32 1c0,28 7,50 22,66 15,16 34,24 57,24 23,0 42,-8 57,-25 14,-16 22,-39 22,-68 0,-19 -3,-36 -10,-50 -6,-14 -15,-25 -28,-32 -12,-8 -26,-12 -41,-12 -22,0 -40,8 -56,22 -15,15 -23,40 -23,75z"/>
 </g>
</svg>
