<?xml version="1.0" encoding="UTF-8"?>
<!DOCTYPE svg PUBLIC "-//W3C//DTD SVG 1.1//EN" "http://www.w3.org/Graphics/SVG/1.1/DTD/svg11.dtd">
<!-- Creator: CorelDRAW X8 -->
<svg xmlns="http://www.w3.org/2000/svg" xml:space="preserve" width="40.043mm" height="7.214mm" version="1.1" style="shape-rendering:geometricPrecision; text-rendering:geometricPrecision; image-rendering:optimizeQuality; fill-rule:evenodd; clip-rule:evenodd"
viewBox="0 0 4004 721"
 xmlns:xlink="http://www.w3.org/1999/xlink">
 <defs>
  <style type="text/css">
   <![CDATA[
    .fil0 {fill:#657686;fill-rule:nonzero}
   ]]>
  </style>
 </defs>
 <g id="Capa_x0020_1">
  <metadata id="CorelCorpID_0Corel-Layer"/>
  <path class="fil0" d="M521 389l31 7c-7,26 -18,45 -35,58 -17,13 -37,20 -61,20 -25,0 -45,-5 -61,-15 -15,-11 -27,-25 -35,-45 -9,-19 -13,-39 -13,-62 0,-24 5,-45 14,-63 9,-18 22,-31 39,-40 17,-10 36,-14 56,-14 24,0 43,5 59,17 16,12 27,29 33,50l-30 7c-6,-17 -13,-29 -24,-37 -10,-7 -23,-11 -38,-11 -18,0 -33,4 -45,13 -12,8 -20,20 -25,34 -5,14 -7,29 -7,44 0,20 3,37 9,52 5,15 14,25 26,33 12,7 25,11 39,11 18,0 32,-5 44,-15 12,-10 20,-25 24,-44zm220 -151l31 0 0 134c0,23 -3,42 -8,56 -5,13 -15,24 -28,33 -14,9 -32,13 -54,13 -22,0 -40,-4 -54,-11 -13,-8 -23,-19 -29,-33 -6,-14 -9,-33 -9,-58l0 -134 31 0 0 134c0,20 2,35 6,45 3,9 10,16 19,22 9,5 20,7 33,7 22,0 38,-5 48,-15 9,-10 14,-30 14,-59l0 -134zm87 232l0 -232 31 0 0 232 -31 0zm85 0l0 -232 80 0c18,0 31,2 41,4 13,3 24,8 34,16 12,11 21,24 27,40 6,16 9,34 9,55 0,18 -2,33 -6,47 -4,13 -9,25 -16,33 -6,9 -13,16 -21,21 -7,5 -17,9 -27,12 -11,3 -24,4 -38,4l-83 0zm31 -27l49 0c15,0 27,-2 36,-4 9,-3 15,-7 21,-12 7,-8 13,-18 17,-30 4,-12 6,-27 6,-45 0,-24 -4,-42 -12,-55 -8,-14 -18,-22 -29,-27 -8,-3 -22,-4 -40,-4l-48 0 0 177zm177 27l89 -232 34 0 94 232 -35 0 -27 -70 -97 0 -25 70 -33 0zm67 -95l79 0 -25 -64c-7,-20 -12,-36 -16,-49 -3,15 -8,30 -13,45l-25 68zm174 95l0 -232 80 0c18,0 32,2 41,4 13,3 25,8 34,16 12,11 21,24 27,40 7,16 10,34 10,55 0,18 -3,33 -7,47 -4,13 -9,25 -15,33 -7,9 -14,16 -22,21 -7,5 -16,9 -27,12 -11,3 -23,4 -37,4l-84 0zm31 -27l49 0c15,0 27,-2 36,-4 9,-3 16,-7 21,-12 7,-8 13,-18 17,-30 4,-12 6,-27 6,-45 0,-24 -4,-42 -12,-55 -8,-14 -18,-22 -29,-27 -8,-3 -21,-4 -40,-4l-48 0 0 177zm193 -86c0,-38 11,-68 31,-90 21,-22 47,-32 80,-32 22,0 41,5 58,15 17,10 30,24 39,43 9,18 14,38 14,62 0,23 -5,44 -14,63 -10,18 -23,32 -41,42 -17,9 -36,14 -56,14 -22,0 -41,-5 -58,-16 -18,-10 -31,-25 -40,-43 -8,-18 -13,-37 -13,-58zm32 1c0,28 7,50 22,66 15,16 34,24 57,24 23,0 42,-8 57,-25 15,-16 22,-39 22,-68 0,-19 -3,-36 -9,-50 -7,-14 -16,-25 -28,-32 -13,-8 -26,-12 -42,-12 -21,0 -40,8 -56,22 -15,15 -23,40 -23,75zm319 112l0 -232 87 0c16,0 27,1 36,3 11,2 21,5 28,10 8,6 14,13 19,23 5,9 7,20 7,31 0,20 -6,37 -19,50 -12,14 -35,21 -68,21l-59 0 0 94 -31 0zm31 -122l60 0c19,0 33,-3 42,-11 8,-7 12,-17 12,-31 0,-9 -2,-18 -7,-25 -5,-7 -12,-11 -20,-13 -5,-2 -14,-2 -28,-2l-59 0 0 82zm185 122l0 -232 167 0 0 28 -136 0 0 71 128 0 0 27 -128 0 0 79 142 0 0 27 -173 0zm216 0l0 -232 103 0c20,0 36,3 47,7 10,4 19,11 25,22 7,10 10,22 10,35 0,16 -5,30 -16,41 -11,11 -27,18 -49,22 8,3 14,7 18,11 9,8 18,19 26,31l40 63 -39 0 -30 -48c-9,-14 -17,-25 -22,-32 -6,-8 -11,-13 -16,-16 -4,-3 -9,-5 -14,-6 -3,0 -9,-1 -17,-1l-35 0 0 103 -31 0zm31 -129l65 0c14,0 25,-2 33,-5 8,-3 14,-7 18,-14 4,-6 6,-13 6,-20 0,-11 -4,-20 -12,-27 -8,-8 -20,-11 -37,-11l-73 0 0 77zm192 55l29 -3c1,12 4,21 9,29 5,7 13,13 23,18 11,4 23,7 36,7 12,0 22,-2 31,-6 9,-3 15,-8 20,-14 4,-6 6,-13 6,-20 0,-7 -2,-13 -6,-19 -4,-5 -11,-10 -21,-13 -6,-3 -20,-7 -41,-12 -21,-5 -36,-10 -45,-14 -11,-6 -19,-13 -24,-22 -6,-8 -8,-18 -8,-29 0,-11 3,-22 10,-32 6,-11 16,-18 29,-24 12,-5 26,-7 42,-7 17,0 32,2 45,8 14,5 24,13 31,24 7,11 10,23 11,37l-29 2c-2,-15 -7,-26 -16,-33 -10,-8 -23,-11 -41,-11 -18,0 -32,3 -40,10 -9,7 -13,15 -13,24 0,9 3,16 9,21 6,5 21,11 46,16 25,6 42,11 51,15 14,6 24,14 30,24 7,9 10,20 10,33 0,12 -4,24 -11,34 -7,11 -17,20 -30,26 -13,6 -28,9 -45,9 -21,0 -38,-3 -52,-9 -14,-6 -25,-16 -33,-28 -9,-12 -13,-26 -13,-41zm216 -39c0,-38 11,-68 31,-90 21,-22 47,-32 80,-32 21,0 41,5 58,15 17,10 30,24 39,43 9,18 14,38 14,62 0,23 -5,44 -15,63 -9,18 -22,32 -40,42 -17,9 -36,14 -56,14 -22,0 -41,-5 -59,-16 -17,-10 -30,-25 -39,-43 -8,-18 -13,-37 -13,-58zm32 1c0,28 7,50 22,66 15,16 34,24 57,24 23,0 42,-8 57,-25 15,-16 22,-39 22,-68 0,-19 -3,-36 -10,-50 -6,-14 -15,-25 -27,-32 -13,-8 -27,-12 -42,-12 -21,0 -40,8 -56,22 -15,15 -23,40 -23,75zm229 112l0 -232 31 0 122 182 0 -182 29 0 0 232 -31 0 -122 -182 0 182 -29 0zm208 0l89 -232 34 0 94 232 -35 0 -27 -70 -97 0 -25 70 -33 0zm67 -95l79 0 -24 -64c-8,-20 -13,-36 -17,-49 -3,15 -7,30 -13,45l-25 68zm173 95l0 -232 31 0 0 205 114 0 0 27 -145 0z"/>
 </g>
</svg>
