<?xml version="1.0" encoding="UTF-8"?>
<!DOCTYPE svg PUBLIC "-//W3C//DTD SVG 1.1//EN" "http://www.w3.org/Graphics/SVG/1.1/DTD/svg11.dtd">
<!-- Creator: CorelDRAW X8 -->
<svg xmlns="http://www.w3.org/2000/svg" xml:space="preserve" width="26.025mm" height="7.214mm" version="1.1" style="shape-rendering:geometricPrecision; text-rendering:geometricPrecision; image-rendering:optimizeQuality; fill-rule:evenodd; clip-rule:evenodd"
viewBox="0 0 2603 721"
 xmlns:xlink="http://www.w3.org/1999/xlink">
 <defs>
  <style type="text/css">
   <![CDATA[
    .fil0 {fill:#657686;fill-rule:nonzero}
   ]]>
  </style>
 </defs>
 <g id="Capa_x0020_1">
  <metadata id="CorelCorpID_0Corel-Layer"/>
  <path class="fil0" d="M357 470l0 -232 167 0 0 28 -137 0 0 71 128 0 0 27 -128 0 0 79 142 0 0 27 -172 0zm215 0l0 -232 79 0c18,0 32,2 42,4 13,3 24,8 34,16 12,11 21,24 27,40 6,16 9,34 9,55 0,18 -2,33 -6,47 -4,13 -9,25 -16,33 -6,9 -13,16 -21,21 -8,5 -17,9 -28,12 -10,3 -23,4 -37,4l-83 0zm30 -27l50 0c15,0 27,-2 36,-4 8,-3 15,-7 20,-12 8,-8 13,-18 17,-30 4,-12 6,-27 6,-45 0,-24 -4,-42 -11,-55 -8,-14 -18,-22 -29,-27 -9,-3 -22,-4 -40,-4l-49 0 0 177zm355 -205l31 0 0 134c0,23 -3,42 -8,56 -6,13 -15,24 -29,33 -13,9 -31,13 -54,13 -21,0 -39,-4 -53,-11 -14,-8 -23,-19 -29,-33 -6,-14 -9,-33 -9,-58l0 -134 31 0 0 134c0,20 1,35 5,45 4,9 10,16 19,22 9,5 21,7 34,7 22,0 38,-5 48,-15 9,-10 14,-30 14,-59l0 -134zm247 151l30 7c-6,26 -18,45 -34,58 -17,13 -37,20 -61,20 -25,0 -46,-5 -61,-15 -16,-11 -28,-25 -36,-45 -8,-19 -12,-39 -12,-62 0,-24 5,-45 14,-63 9,-18 22,-31 39,-40 17,-10 36,-14 56,-14 23,0 43,5 58,17 16,12 27,29 33,50l-30 7c-5,-17 -13,-29 -23,-37 -10,-7 -23,-11 -38,-11 -18,0 -33,4 -45,13 -12,8 -20,20 -25,34 -5,14 -7,29 -7,44 0,20 3,37 8,52 6,15 15,25 27,33 12,7 25,11 39,11 17,0 32,-5 44,-15 11,-10 19,-25 24,-44zm43 81l89 -232 33 0 95 232 -35 0 -27 -70 -98 0 -25 70 -32 0zm66 -95l79 0 -24 -64c-7,-20 -13,-36 -16,-49 -4,15 -8,30 -13,45l-26 68zm340 14l31 7c-7,26 -18,45 -35,58 -17,13 -37,20 -61,20 -25,0 -45,-5 -61,-15 -16,-11 -27,-25 -36,-45 -8,-19 -12,-39 -12,-62 0,-24 5,-45 14,-63 9,-18 22,-31 39,-40 17,-10 36,-14 56,-14 23,0 43,5 59,17 15,12 26,29 33,50l-30 7c-6,-17 -14,-29 -24,-37 -10,-7 -23,-11 -38,-11 -18,0 -33,4 -45,13 -12,8 -20,20 -25,34 -5,14 -7,29 -7,44 0,20 3,37 8,52 6,15 15,25 27,33 12,7 25,11 39,11 17,0 32,-5 44,-15 12,-10 20,-25 24,-44zm74 81l0 -232 30 0 0 232 -30 0zm75 -113c0,-38 10,-68 31,-90 21,-22 47,-32 80,-32 21,0 40,5 58,15 17,10 30,24 39,43 9,18 13,38 13,62 0,23 -4,44 -14,63 -9,18 -23,32 -40,42 -17,9 -36,14 -56,14 -22,0 -42,-5 -59,-16 -17,-10 -30,-25 -39,-43 -9,-18 -13,-37 -13,-58zm32 1c0,28 7,50 22,66 15,16 34,24 56,24 24,0 42,-8 57,-25 15,-16 23,-39 23,-68 0,-19 -3,-36 -10,-50 -6,-14 -16,-25 -28,-32 -12,-8 -26,-12 -41,-12 -22,0 -40,8 -56,22 -16,15 -23,40 -23,75zm55 -134l21 -44 37 0 -34 44 -24 0zm173 246l0 -232 32 0 121 182 0 -182 30 0 0 232 -32 0 -121 -182 0 182 -30 0z"/>
 </g>
</svg>
