<?xml version="1.0" encoding="UTF-8"?>
<!DOCTYPE svg PUBLIC "-//W3C//DTD SVG 1.1//EN" "http://www.w3.org/Graphics/SVG/1.1/DTD/svg11.dtd">
<!-- Creator: CorelDRAW X8 -->
<svg xmlns="http://www.w3.org/2000/svg" xml:space="preserve" width="43.875mm" height="7.214mm" version="1.1" style="shape-rendering:geometricPrecision; text-rendering:geometricPrecision; image-rendering:optimizeQuality; fill-rule:evenodd; clip-rule:evenodd"
viewBox="0 0 4388 721"
 xmlns:xlink="http://www.w3.org/1999/xlink">
 <defs>
  <style type="text/css">
   <![CDATA[
    .fil0 {fill:#657686;fill-rule:nonzero}
   ]]>
  </style>
 </defs>
 <g id="Capa_x0020_1">
  <metadata id="CorelCorpID_0Corel-Layer"/>
  <path class="fil0" d="M358 470l0 -232 156 0 0 28 -126 0 0 72 109 0 0 27 -109 0 0 105 -30 0zm201 0l0 -232 30 0 0 232 -30 0zm84 0l0 -232 32 0 121 182 0 -182 29 0 0 232 -31 0 -122 -182 0 182 -29 0zm208 0l89 -232 34 0 94 232 -35 0 -26 -70 -98 0 -25 70 -33 0zm67 -95l79 0 -24 -64c-7,-20 -13,-36 -17,-49 -3,15 -7,30 -13,45l-25 68zm174 95l0 -232 32 0 121 182 0 -182 30 0 0 232 -32 0 -121 -182 0 182 -30 0zm216 0l0 -28 118 -149c9,-10 17,-19 24,-27l-129 0 0 -28 166 0 0 28 -130 160 -14 17 148 0 0 27 -183 0zm190 0l89 -232 34 0 94 232 -35 0 -27 -70 -97 0 -25 70 -33 0zm67 -95l79 0 -24 -64c-8,-20 -13,-36 -17,-49 -3,15 -7,30 -13,45l-25 68zm164 21l29 -3c1,12 5,21 10,29 5,7 12,13 23,18 10,4 22,7 35,7 12,0 22,-2 31,-6 9,-3 16,-8 20,-14 5,-6 7,-13 7,-20 0,-7 -2,-13 -6,-19 -5,-5 -12,-10 -21,-13 -7,-3 -20,-7 -42,-12 -21,-5 -36,-10 -44,-14 -11,-6 -19,-13 -25,-22 -5,-8 -8,-18 -8,-29 0,-11 3,-22 10,-32 7,-11 16,-18 29,-24 13,-5 27,-7 42,-7 18,0 33,2 46,8 13,5 23,13 30,24 7,11 11,23 11,37l-29 2c-2,-15 -7,-26 -16,-33 -9,-8 -23,-11 -40,-11 -19,0 -32,3 -41,10 -8,7 -13,15 -13,24 0,9 3,16 9,21 6,5 22,11 47,16 24,6 42,11 51,15 13,6 23,14 30,24 6,9 9,20 9,33 0,12 -3,24 -10,34 -7,11 -17,20 -31,26 -13,6 -28,9 -44,9 -21,0 -39,-3 -53,-9 -14,-6 -25,-16 -33,-28 -8,-12 -12,-26 -13,-41zm375 74l0 -98 -89 -134 37 0 46 70c8,13 16,26 23,39 7,-12 16,-25 26,-40l45 -69 35 0 -92 134 0 98 -31 0zm219 -66l28 -4c0,18 4,30 10,37 5,6 14,10 24,10 8,0 14,-2 20,-6 5,-3 9,-8 11,-14 2,-6 4,-16 4,-29l0 -160 30 0 0 158c0,20 -2,35 -7,45 -4,11 -12,19 -22,24 -10,6 -22,9 -36,9 -20,0 -36,-6 -46,-18 -11,-11 -16,-29 -16,-52zm329 -166l31 0 0 134c0,23 -3,42 -8,56 -5,13 -15,24 -29,33 -13,9 -31,13 -54,13 -21,0 -39,-4 -53,-11 -13,-8 -23,-19 -29,-33 -6,-14 -9,-33 -9,-58l0 -134 31 0 0 134c0,20 2,35 5,45 4,9 10,16 20,22 9,5 20,7 33,7 22,0 38,-5 48,-15 9,-10 14,-30 14,-59l0 -134zm83 232l0 -232 102 0c21,0 36,3 47,7 11,4 19,11 26,22 6,10 9,22 9,35 0,16 -5,30 -15,41 -11,11 -27,18 -50,22 8,3 15,7 19,11 9,8 17,19 25,31l40 63 -38 0 -31 -48c-9,-14 -16,-25 -22,-32 -6,-8 -11,-13 -15,-16 -5,-3 -10,-5 -14,-6 -4,0 -9,-1 -17,-1l-36 0 0 103 -30 0zm30 -129l66 0c14,0 25,-2 33,-5 8,-3 14,-7 18,-14 4,-6 6,-13 6,-20 0,-11 -4,-20 -12,-27 -8,-8 -20,-11 -38,-11l-73 0 0 77zm208 129l0 -232 30 0 0 232 -30 0zm-10 -246l21 -44 37 0 -34 44 -24 0zm94 246l0 -232 80 0c18,0 32,2 41,4 13,3 25,8 34,16 12,11 22,24 28,40 6,16 9,34 9,55 0,18 -2,33 -6,47 -5,13 -10,25 -16,33 -7,9 -14,16 -21,21 -8,5 -17,9 -28,12 -11,3 -23,4 -37,4l-84 0zm31 -27l49 0c16,0 28,-2 36,-4 9,-3 16,-7 21,-12 7,-8 13,-18 17,-30 4,-12 6,-27 6,-45 0,-24 -4,-42 -12,-55 -8,-14 -18,-22 -29,-27 -8,-3 -21,-4 -39,-4l-49 0 0 177zm208 27l0 -232 31 0 0 232 -31 0zm250 -81l30 7c-6,26 -18,45 -34,58 -17,13 -37,20 -61,20 -25,0 -46,-5 -61,-15 -16,-11 -28,-25 -36,-45 -8,-19 -12,-39 -12,-62 0,-24 4,-45 14,-63 9,-18 22,-31 39,-40 17,-10 36,-14 56,-14 23,0 43,5 58,17 16,12 27,29 33,50l-30 7c-5,-17 -13,-29 -23,-37 -10,-7 -23,-11 -39,-11 -17,0 -32,4 -44,13 -12,8 -20,20 -25,34 -5,14 -7,29 -7,44 0,20 2,37 8,52 6,15 15,25 27,33 12,7 25,11 39,11 17,0 32,-5 43,-15 12,-10 20,-25 25,-44zm59 -32c0,-38 10,-68 31,-90 20,-22 47,-32 80,-32 21,0 40,5 57,15 18,10 31,24 40,43 9,18 13,38 13,62 0,23 -5,44 -14,63 -9,18 -23,32 -40,42 -18,9 -36,14 -57,14 -21,0 -41,-5 -58,-16 -17,-10 -30,-25 -39,-43 -9,-18 -13,-37 -13,-58zm31 1c0,28 8,50 23,66 15,16 34,24 56,24 23,0 42,-8 57,-25 15,-16 23,-39 23,-68 0,-19 -4,-36 -10,-50 -6,-14 -16,-25 -28,-32 -12,-8 -26,-12 -41,-12 -22,0 -41,8 -56,22 -16,15 -24,40 -24,75zm220 38l28 -3c2,12 5,21 10,29 5,7 13,13 23,18 11,4 23,7 36,7 11,0 22,-2 31,-6 9,-3 15,-8 20,-14 4,-6 6,-13 6,-20 0,-7 -2,-13 -6,-19 -4,-5 -11,-10 -21,-13 -6,-3 -20,-7 -41,-12 -22,-5 -36,-10 -45,-14 -11,-6 -19,-13 -25,-22 -5,-8 -8,-18 -8,-29 0,-11 4,-22 10,-32 7,-11 17,-18 29,-24 13,-5 27,-7 43,-7 17,0 32,2 45,8 13,5 23,13 30,24 7,11 11,23 12,37l-30 2c-1,-15 -7,-26 -16,-33 -9,-8 -22,-11 -40,-11 -19,0 -32,3 -41,10 -8,7 -12,15 -12,24 0,9 3,16 9,21 6,5 21,11 46,16 25,6 42,11 51,15 14,6 24,14 30,24 6,9 10,20 10,33 0,12 -4,24 -11,34 -7,11 -17,20 -30,26 -14,6 -28,9 -45,9 -21,0 -38,-3 -52,-9 -15,-6 -26,-16 -34,-28 -8,-12 -12,-26 -12,-41z"/>
 </g>
</svg>
