<?xml version="1.0" encoding="UTF-8"?>
<!DOCTYPE svg PUBLIC "-//W3C//DTD SVG 1.1//EN" "http://www.w3.org/Graphics/SVG/1.1/DTD/svg11.dtd">
<!-- Creator: CorelDRAW X8 -->
<svg xmlns="http://www.w3.org/2000/svg" xml:space="preserve" width="39.33mm" height="7.214mm" version="1.1" style="shape-rendering:geometricPrecision; text-rendering:geometricPrecision; image-rendering:optimizeQuality; fill-rule:evenodd; clip-rule:evenodd"
viewBox="0 0 3933 721"
 xmlns:xlink="http://www.w3.org/1999/xlink">
 <defs>
  <style type="text/css">
   <![CDATA[
    .fil0 {fill:#657686;fill-rule:nonzero}
   ]]>
  </style>
 </defs>
 <g id="Capa_x0020_1">
  <metadata id="CorelCorpID_0Corel-Layer"/>
  <path class="fil0" d="M346 396l29 -3c1,12 4,21 9,29 5,7 13,13 24,18 10,4 22,7 35,7 12,0 22,-2 31,-6 9,-3 16,-8 20,-14 4,-6 7,-13 7,-20 0,-7 -3,-13 -7,-19 -4,-5 -11,-10 -21,-13 -6,-3 -20,-7 -41,-12 -21,-5 -36,-10 -45,-14 -11,-6 -19,-13 -24,-22 -6,-8 -8,-18 -8,-29 0,-11 3,-22 10,-32 6,-11 16,-18 29,-24 12,-5 27,-7 42,-7 17,0 32,2 46,8 13,5 23,13 30,24 7,11 11,23 11,37l-29 2c-2,-15 -7,-26 -16,-33 -9,-8 -23,-11 -41,-11 -18,0 -32,3 -40,10 -9,7 -13,15 -13,24 0,9 3,16 9,21 6,5 21,11 46,16 25,6 42,11 52,15 13,6 23,14 29,24 7,9 10,20 10,33 0,12 -4,24 -11,34 -7,11 -17,20 -30,26 -13,6 -28,9 -44,9 -21,0 -39,-3 -53,-9 -14,-6 -25,-16 -33,-28 -8,-12 -13,-26 -13,-41zm200 74l89 -232 34 0 94 232 -35 0 -27 -70 -97 0 -25 70 -33 0zm67 -95l79 0 -24 -64c-8,-20 -13,-36 -17,-49 -3,15 -7,30 -13,45l-25 68zm173 95l0 -232 31 0 0 205 114 0 0 27 -145 0zm333 -232l31 0 0 134c0,23 -3,42 -8,56 -6,13 -15,24 -29,33 -13,9 -31,13 -54,13 -21,0 -39,-4 -53,-11 -14,-8 -23,-19 -29,-33 -6,-14 -9,-33 -9,-58l0 -134 31 0 0 134c0,20 1,35 5,45 4,9 10,16 19,22 9,5 21,7 34,7 22,0 38,-5 48,-15 9,-10 14,-30 14,-59l0 -134zm82 232l0 -232 79 0c18,0 32,2 42,4 13,3 24,8 34,16 12,11 21,24 27,40 6,16 9,34 9,55 0,18 -2,33 -6,47 -4,13 -9,25 -16,33 -6,9 -13,16 -21,21 -7,5 -17,9 -27,12 -11,3 -24,4 -38,4l-83 0zm30 -27l50 0c15,0 27,-2 36,-4 8,-3 15,-7 20,-12 8,-8 13,-18 17,-30 4,-12 6,-27 6,-45 0,-24 -4,-42 -11,-55 -8,-14 -18,-22 -29,-27 -9,-3 -22,-4 -40,-4l-49 0 0 177zm353 27l0 -98 -90 -134 37 0 46 70c8,13 16,26 24,39 7,-12 15,-25 25,-40l45 -69 36 0 -93 134 0 98 -30 0zm233 0l0 -232 87 0c17,0 31,3 42,7 11,5 19,12 25,22 6,10 9,20 9,31 0,10 -2,19 -8,28 -5,8 -13,15 -24,21 14,4 25,11 32,21 8,10 12,21 12,35 0,11 -3,21 -7,30 -5,9 -11,17 -17,22 -7,5 -15,8 -26,11 -10,3 -22,4 -37,4l-88 0zm30 -134l50 0c14,0 24,-1 30,-3 7,-2 13,-6 17,-12 4,-5 6,-12 6,-20 0,-7 -2,-14 -5,-20 -4,-6 -9,-10 -16,-12 -7,-2 -19,-3 -35,-3l-47 0 0 70zm0 107l58 0c10,0 17,-1 21,-1 7,-2 13,-4 18,-7 4,-3 8,-7 11,-13 3,-5 5,-12 5,-19 0,-9 -2,-16 -7,-23 -4,-6 -10,-11 -18,-13 -8,-3 -19,-4 -34,-4l-54 0 0 80zm192 27l0 -232 31 0 0 232 -31 0zm85 0l0 -232 167 0 0 28 -136 0 0 71 128 0 0 27 -128 0 0 79 142 0 0 27 -173 0zm215 0l0 -232 31 0 122 182 0 -182 29 0 0 232 -31 0 -122 -182 0 182 -29 0zm234 0l0 -232 168 0 0 28 -137 0 0 71 128 0 0 27 -128 0 0 79 142 0 0 27 -173 0zm205 -74l29 -3c1,12 5,21 10,29 5,7 12,13 23,18 10,4 22,7 35,7 12,0 22,-2 31,-6 9,-3 16,-8 20,-14 5,-6 7,-13 7,-20 0,-7 -2,-13 -6,-19 -5,-5 -12,-10 -21,-13 -6,-3 -20,-7 -41,-12 -22,-5 -37,-10 -45,-14 -11,-6 -19,-13 -25,-22 -5,-8 -8,-18 -8,-29 0,-11 3,-22 10,-32 7,-11 16,-18 29,-24 13,-5 27,-7 43,-7 17,0 32,2 45,8 13,5 23,13 30,24 7,11 11,23 12,37l-30 2c-1,-15 -7,-26 -16,-33 -9,-8 -22,-11 -40,-11 -19,0 -32,3 -41,10 -8,7 -12,15 -12,24 0,9 3,16 9,21 5,5 21,11 46,16 25,6 42,11 51,15 13,6 23,14 30,24 6,9 9,20 9,33 0,12 -3,24 -10,34 -7,11 -17,20 -31,26 -13,6 -28,9 -44,9 -21,0 -39,-3 -53,-9 -14,-6 -25,-16 -33,-28 -8,-12 -12,-26 -13,-41zm285 74l0 -204 -76 0 0 -28 183 0 0 28 -76 0 0 204 -31 0zm89 0l89 -232 34 0 94 232 -35 0 -27 -70 -97 0 -25 70 -33 0zm67 -95l79 0 -24 -64c-8,-20 -13,-36 -17,-49 -3,15 -7,30 -13,45l-25 68zm175 95l0 -232 103 0c20,0 36,3 47,7 10,4 19,11 25,22 7,10 10,22 10,35 0,16 -5,30 -16,41 -11,11 -27,18 -49,22 8,3 14,7 18,11 9,8 18,19 26,31l40 63 -39 0 -30 -48c-9,-14 -17,-25 -22,-32 -6,-8 -11,-13 -16,-16 -4,-3 -9,-5 -14,-6 -3,0 -9,-1 -17,-1l-35 0 0 103 -31 0zm31 -129l65 0c14,0 25,-2 33,-5 8,-3 14,-7 18,-14 4,-6 6,-13 6,-20 0,-11 -4,-20 -12,-27 -8,-8 -20,-11 -37,-11l-73 0 0 77z"/>
 </g>
</svg>
