<?xml version="1.0" encoding="UTF-8"?>
<!DOCTYPE svg PUBLIC "-//W3C//DTD SVG 1.1//EN" "http://www.w3.org/Graphics/SVG/1.1/DTD/svg11.dtd">
<!-- Creator: CorelDRAW X8 -->
<svg xmlns="http://www.w3.org/2000/svg" xml:space="preserve" width="4.553mm" height="2.241mm" version="1.1" style="shape-rendering:geometricPrecision; text-rendering:geometricPrecision; image-rendering:optimizeQuality; fill-rule:evenodd; clip-rule:evenodd"
viewBox="0 0 455 224"
 xmlns:xlink="http://www.w3.org/1999/xlink">
 <defs>
  <style type="text/css">
   <![CDATA[
    .fil0 {fill:#F22947}
    .fil1 {fill:white;fill-rule:nonzero}
   ]]>
  </style>
 </defs>
 <g id="Capa_x0020_1">
  <metadata id="CorelCorpID_0Corel-Layer"/>
  <g id="_2389841475360">
   <path class="fil0" d="M26 0l403 0c15,0 26,12 26,26l0 172c0,14 -11,26 -26,26l-403 0c-14,0 -26,-12 -26,-26l0 -172c0,-14 12,-26 26,-26z"/>
   <path class="fil1" d="M128 173l47 -124 18 0 51 124 -19 0 -14 -37 -52 0 -14 37 -17 0zm35 -51l43 0 -13 -34c-4,-11 -7,-19 -9,-26 -2,8 -4,16 -7,24l-14 36zm150 51l0 -11c-5,9 -14,13 -25,13 -7,0 -14,-2 -20,-6 -6,-4 -10,-9 -14,-16 -3,-7 -5,-15 -5,-25 0,-9 2,-17 5,-24 3,-7 7,-13 13,-17 6,-4 13,-6 21,-6 5,0 10,1 14,4 4,2 8,5 10,9l0 -45 16 0 0 124 -15 0zm-48 -45c0,12 3,20 7,26 5,6 11,9 18,9 6,0 12,-3 17,-8 4,-6 7,-14 7,-25 0,-13 -3,-22 -7,-27 -5,-6 -11,-9 -18,-9 -7,0 -12,3 -17,8 -5,6 -7,14 -7,26z"/>
  </g>
 </g>
</svg>
