<?xml version="1.0" encoding="UTF-8"?>
<!DOCTYPE svg PUBLIC "-//W3C//DTD SVG 1.1//EN" "http://www.w3.org/Graphics/SVG/1.1/DTD/svg11.dtd">
<!-- Creator: CorelDRAW X8 -->
<svg xmlns="http://www.w3.org/2000/svg" xml:space="preserve" width="27.8552mm" height="5.9266mm" version="1.1" style="shape-rendering:geometricPrecision; text-rendering:geometricPrecision; image-rendering:optimizeQuality; fill-rule:evenodd; clip-rule:evenodd"
viewBox="0 0 2786 593"
 xmlns:xlink="http://www.w3.org/1999/xlink">
 <defs>
  <style type="text/css">
   <![CDATA[
    .fil3 {fill:#939393}
    .fil0 {fill:#DD0000}
    .fil1 {fill:#4F4F4F;fill-rule:nonzero}
    .fil2 {fill:#4F4F4F;fill-rule:nonzero}
   ]]>
  </style>
 </defs>
 <g id="Capa_x0020_1">
  <metadata id="CorelCorpID_0Corel-Layer"/>
  <g id="_2390119562480">
   <path class="fil0" d="M294 1c142,0 260,100 288,234l0 0 0 0 0 0 0 0c1,1 1,2 1,2 0,8 -7,14 -14,14l-137 0c-19,-58 -74,-100 -138,-100 -81,0 -146,65 -146,146 0,80 65,146 146,146 64,0 119,-42 138,-101l137 0c8,1 13,7 13,14 0,1 0,2 0,2l0 0 0 0 0 0c-28,134 -147,233 -288,233 -163,0 -295,-132 -295,-295 0,-163 132,-295 295,-295zm-55 296c0,-30 25,-55 55,-55 30,0 54,25 54,55 0,30 -24,54 -54,54 -30,0 -55,-24 -55,-54z"/>
   <path class="fil1" d="M1121 450c32,0 51,-17 65,-36l0 37 63 0 0 -228 -63 0 0 124c0,30 -15,45 -39,45 -25,0 -39,-15 -39,-45l0 -124 -63 0 0 144c0,51 28,83 76,83zm1424 0c48,0 85,-23 85,-72 0,-42 -36,-57 -67,-67 -24,-8 -45,-14 -45,-27 0,-9 8,-16 23,-16 16,0 38,8 60,21l24 -44c-24,-16 -55,-26 -83,-26 -45,0 -81,26 -81,71 0,44 35,59 66,68 25,7 46,12 46,26 0,10 -8,17 -26,17 -21,0 -46,-9 -71,-26l-27 41c30,23 65,34 96,34zm-1125 0c53,0 101,-41 101,-115 0,-76 -49,-116 -101,-116 -33,0 -54,15 -70,36l0 -113 -63 0 0 309 63 0 0 -34c15,17 36,33 70,33zm-16 -54c-30,0 -54,-24 -54,-61 0,-38 24,-63 54,-63 29,0 54,25 54,62 0,38 -25,62 -54,62zm148 55l63 0 0 -228 -63 0 0 228zm0 -259l63 0 40 -50 -63 0 -40 50zm209 259c45,0 70,-17 91,-41l-37 -38c-15,15 -29,24 -51,24 -34,0 -56,-27 -56,-61 0,-34 22,-62 54,-62 25,0 38,9 52,22l37 -37c-21,-24 -47,-39 -89,-39 -68,0 -117,52 -117,116 0,64 49,116 116,116zm177 -1c31,0 52,-11 68,-28l0 29 61 0 0 -135c0,-30 -8,-54 -24,-71 -16,-16 -41,-25 -76,-25 -29,0 -51,5 -70,12 0,26 0,24 0,54 20,-7 37,-12 61,-12 32,0 48,15 48,41l0 4c-16,-6 -32,-9 -55,-9 -52,0 -89,22 -89,71 0,45 34,69 76,69zm19 -44c-20,0 -34,-10 -34,-27 0,-21 16,-31 43,-31 16,0 30,3 41,8l0 11c0,23 -20,39 -50,39zm148 45l64 0 0 -309 -64 0 0 309zm214 0c69,0 121,-52 121,-116 0,-65 -51,-116 -120,-116 -70,0 -121,52 -121,116 0,64 51,116 120,116zm1 -55c-35,0 -59,-29 -59,-61 0,-34 22,-62 58,-62 35,0 58,29 58,62 0,33 -21,61 -57,61z"/>
   <path class="fil2" d="M2714 79c13,0 24,3 36,9 12,6 21,15 27,27 7,12 10,24 10,36 0,13 -3,25 -10,36 -6,12 -15,21 -27,27 -11,7 -23,10 -36,10 -12,0 -24,-3 -36,-10 -11,-6 -20,-15 -27,-27 -6,-11 -9,-23 -9,-36 0,-12 3,-24 9,-36 7,-12 16,-21 28,-27 11,-6 23,-9 35,-9zm0 12c-10,0 -20,2 -29,8 -10,5 -18,12 -23,22 -6,10 -8,20 -8,30 0,11 2,21 8,30 5,10 13,17 22,23 10,5 20,8 30,8 11,0 21,-3 30,-8 10,-6 18,-13 23,-23 5,-9 8,-19 8,-30 0,-10 -3,-20 -8,-30 -6,-10 -13,-17 -23,-22 -10,-6 -20,-8 -30,-8zm-32 100l0 -78 27 0c9,0 16,1 20,3 4,1 8,4 10,7 2,4 4,8 4,12 0,5 -2,10 -6,14 -4,5 -10,7 -17,8 3,1 5,2 7,4 3,3 7,8 12,15l9 15 -15 0 -7 -12c-6,-10 -10,-16 -13,-18 -3,-2 -6,-3 -11,-3l-7 0 0 33 -13 0zm13 -44l15 0c8,0 13,-1 15,-3 3,-2 4,-5 4,-8 0,-3 0,-5 -2,-7 -1,-1 -3,-3 -5,-4 -2,0 -6,-1 -13,-1l-14 0 0 23z"/>
   <polygon class="fil3" points="803,1 824,1 824,591 803,591 "/>
  </g>
 </g>
</svg>
