<?xml version="1.0" encoding="UTF-8"?>
<!DOCTYPE svg PUBLIC "-//W3C//DTD SVG 1.1//EN" "http://www.w3.org/Graphics/SVG/1.1/DTD/svg11.dtd">
<!-- Creator: CorelDRAW X8 -->
<svg xmlns="http://www.w3.org/2000/svg" xml:space="preserve" width="15.222mm" height="25.241mm" version="1.1" style="shape-rendering:geometricPrecision; text-rendering:geometricPrecision; image-rendering:optimizeQuality; fill-rule:evenodd; clip-rule:evenodd"
viewBox="0 0 1522 2524"
 xmlns:xlink="http://www.w3.org/1999/xlink">
 <defs>
  <style type="text/css">
   <![CDATA[
    .fil0 {fill:#4D4D4D}
    .fil2 {fill:white}
    .fil3 {fill:white;fill-opacity:0.200000}
    .fil1 {fill:url(#id2)}
   ]]>
  </style>
    <mask id="id0">
  <radialGradient id="id1" gradientUnits="userSpaceOnUse" cx="354.73" cy="2356.12" r="0" fx="354.73" fy="2356.12">
   <stop offset="0" style="stop-opacity:0.388235; stop-color:white"/>
   <stop offset="1" style="stop-opacity:0; stop-color:white"/>
  </radialGradient>
     <rect style="fill:url(#id1)" x="345" y="2346" width="833" height="188"/>
    </mask>
  <linearGradient id="id2" gradientUnits="userSpaceOnUse" x1="761.1" y1="40" x2="761.1" y2="2395.83">
   <stop offset="0" style="stop-opacity:1; stop-color:#4286F5"/>
   <stop offset="1" style="stop-opacity:1; stop-color:#3671D1"/>
  </linearGradient>
 </defs>
 <g id="Capa_x0020_1">
  <metadata id="CorelCorpID_0Corel-Layer"/>
  <g id="_2353877670288">
   <path class="fil0" style="mask:url(#id0)" d="M761 2356c225,0 406,38 406,84 0,46 -181,84 -406,84 -224,0 -406,-38 -406,-84 0,-46 182,-84 406,-84z"/>
   <path class="fil1" d="M706 2172l0 169c0,28 21,51 48,55 7,0 0,0 7,0 8,0 0,0 8,0 27,-4 47,-27 47,-55l0 -169c0,-343 245,-635 455,-895 0,0 211,-247 211,-516 0,-398 -323,-721 -721,-721 -398,0 -721,323 -721,721 0,269 211,516 211,516 210,260 455,552 455,895z"/>
   <path class="fil2" d="M706 2172l0 169c0,28 21,51 48,55l15 0c27,-4 47,-27 47,-55l0 -169c0,-343 245,-635 455,-895 0,0 211,-247 211,-516 0,-398 -323,-721 -721,-721 -398,0 -721,323 -721,721 0,269 211,516 211,516 210,260 455,552 455,895zm-40 169l0 -169c0,-320 -227,-599 -428,-848l-17 -21c-4,-5 -221,-261 -221,-542 0,-210 85,-400 223,-538 138,-138 328,-223 538,-223 210,0 401,85 538,223 138,138 223,328 223,538 0,281 -217,537 -220,542l-18 21c-201,249 -428,528 -428,848l0 169c0,24 -9,46 -23,63l0 0c-14,15 -33,27 -55,31 -3,0 -6,1 -9,1l-15 0 0 0c-2,0 -4,0 -6,-1 -22,-3 -41,-13 -56,-28l-3 -3c-14,-17 -23,-39 -23,-63z"/>
   <path class="fil3" d="M761 83c361,0 654,276 654,617 0,11 -92,-538 -654,-538 -569,0 -654,571 -654,538 0,-341 293,-617 654,-617z"/>
   <path class="fil2" d="M771 511c135,0 247,96 274,223l0 0 0 0 0 0 0 0c0,0 0,1 0,2 0,7 -5,13 -13,13l-130 0c-18,-55 -70,-95 -131,-95 -77,0 -139,62 -139,138 0,77 62,139 139,139 61,0 113,-40 131,-95l131 0c7,0 12,6 12,13 0,1 0,1 0,2l0 0 0 0 0 0c-27,127 -140,222 -274,222 -156,0 -281,-126 -281,-281 0,-155 125,-281 281,-281zm-52 281c0,-28 23,-51 52,-51 28,0 51,23 51,51 0,29 -23,52 -51,52 -29,0 -52,-23 -52,-52z"/>
  </g>
 </g>
</svg>
