<?xml version="1.0" encoding="UTF-8"?>
<!DOCTYPE svg PUBLIC "-//W3C//DTD SVG 1.1//EN" "http://www.w3.org/Graphics/SVG/1.1/DTD/svg11.dtd">
<!-- Creator: CorelDRAW X8 -->
<svg xmlns="http://www.w3.org/2000/svg" xml:space="preserve" width="31.236mm" height="7.214mm" version="1.1" style="shape-rendering:geometricPrecision; text-rendering:geometricPrecision; image-rendering:optimizeQuality; fill-rule:evenodd; clip-rule:evenodd"
viewBox="0 0 3124 721"
 xmlns:xlink="http://www.w3.org/1999/xlink">
 <defs>
  <style type="text/css">
   <![CDATA[
    .fil0 {fill:#657686;fill-rule:nonzero}
   ]]>
  </style>
 </defs>
 <g id="Capa_x0020_1">
  <metadata id="CorelCorpID_0Corel-Layer"/>
  <path class="fil0" d="M356 470l0 -232 87 0c16,0 28,1 36,3 11,2 21,5 28,10 8,6 14,13 19,23 5,9 7,20 7,31 0,20 -6,37 -19,50 -12,14 -35,21 -68,21l-59 0 0 94 -31 0zm31 -122l60 0c19,0 33,-3 42,-11 8,-7 12,-17 12,-31 0,-9 -2,-18 -7,-25 -5,-7 -11,-11 -19,-13 -6,-2 -15,-2 -29,-2l-59 0 0 82zm185 122l0 -232 103 0c21,0 36,3 47,7 11,4 19,11 26,22 6,10 9,22 9,35 0,16 -5,30 -16,41 -10,11 -27,18 -49,22 8,3 14,7 19,11 9,8 17,19 25,31l40 63 -38 0 -31 -48c-9,-14 -16,-25 -22,-32 -6,-8 -11,-13 -15,-16 -5,-3 -10,-5 -14,-6 -4,0 -10,-1 -17,-1l-36 0 0 103 -31 0zm31 -129l66 0c14,0 25,-2 33,-5 7,-3 13,-7 17,-14 5,-6 7,-13 7,-20 0,-11 -4,-20 -12,-27 -8,-8 -21,-11 -38,-11l-73 0 0 77zm193 16c0,-38 10,-68 31,-90 20,-22 47,-32 80,-32 21,0 40,5 58,15 17,10 30,24 39,43 9,18 13,38 13,62 0,23 -4,44 -14,63 -9,18 -23,32 -40,42 -18,9 -36,14 -56,14 -22,0 -42,-5 -59,-16 -17,-10 -30,-25 -39,-43 -9,-18 -13,-37 -13,-58zm32 1c0,28 7,50 22,66 15,16 34,24 56,24 23,0 42,-8 57,-25 15,-16 23,-39 23,-68 0,-19 -4,-36 -10,-50 -6,-14 -16,-25 -28,-32 -12,-8 -26,-12 -41,-12 -22,0 -40,8 -56,22 -16,15 -23,40 -23,75zm228 112l0 -232 46 0 55 164c5,16 9,27 11,35 2,-9 7,-21 12,-38l56 -161 41 0 0 232 -29 0 0 -194 -68 194 -28 0 -66 -197 0 197 -30 0zm261 -113c0,-38 10,-68 31,-90 20,-22 47,-32 80,-32 21,0 40,5 57,15 18,10 31,24 40,43 9,18 13,38 13,62 0,23 -5,44 -14,63 -9,18 -23,32 -40,42 -18,9 -36,14 -57,14 -21,0 -41,-5 -58,-16 -17,-10 -30,-25 -39,-43 -9,-18 -13,-37 -13,-58zm31 1c0,28 8,50 23,66 15,16 34,24 56,24 23,0 42,-8 57,-25 15,-16 23,-39 23,-68 0,-19 -4,-36 -10,-50 -6,-14 -16,-25 -28,-32 -12,-8 -26,-12 -41,-12 -22,0 -41,8 -56,22 -16,15 -24,40 -24,75zm395 31l30 7c-6,26 -18,45 -34,58 -17,13 -37,20 -61,20 -25,0 -46,-5 -61,-15 -16,-11 -28,-25 -36,-45 -8,-19 -12,-39 -12,-62 0,-24 4,-45 14,-63 9,-18 22,-31 39,-40 17,-10 36,-14 56,-14 23,0 43,5 58,17 16,12 27,29 33,50l-30 7c-5,-17 -13,-29 -23,-37 -10,-7 -23,-11 -39,-11 -17,0 -32,4 -44,13 -12,8 -20,20 -25,34 -5,14 -7,29 -7,44 0,20 2,37 8,52 6,15 15,25 27,33 12,7 25,11 39,11 17,0 32,-5 43,-15 12,-10 20,-25 25,-44zm73 81l0 -232 31 0 0 232 -31 0zm76 -113c0,-38 10,-68 31,-90 20,-22 47,-32 80,-32 21,0 40,5 57,15 17,10 31,24 40,43 9,18 13,38 13,62 0,23 -5,44 -14,63 -10,18 -23,32 -40,42 -18,9 -37,14 -57,14 -21,0 -41,-5 -58,-16 -17,-10 -30,-25 -39,-43 -9,-18 -13,-37 -13,-58zm31 1c0,28 8,50 23,66 15,16 34,24 56,24 23,0 42,-8 57,-25 15,-16 22,-39 22,-68 0,-19 -3,-36 -9,-50 -6,-14 -16,-25 -28,-32 -12,-8 -26,-12 -41,-12 -22,0 -41,8 -56,22 -16,15 -24,40 -24,75zm229 112l0 -232 32 0 121 182 0 -182 30 0 0 232 -32 0 -121 -182 0 182 -30 0zm235 0l0 -232 167 0 0 28 -137 0 0 71 128 0 0 27 -128 0 0 79 142 0 0 27 -172 0zm205 -74l28 -3c2,12 5,21 10,29 5,7 13,13 23,18 11,4 23,7 36,7 11,0 22,-2 31,-6 9,-3 15,-8 20,-14 4,-6 6,-13 6,-20 0,-7 -2,-13 -6,-19 -4,-5 -11,-10 -21,-13 -6,-3 -20,-7 -41,-12 -21,-5 -36,-10 -45,-14 -11,-6 -19,-13 -24,-22 -6,-8 -9,-18 -9,-29 0,-11 4,-22 10,-32 7,-11 17,-18 29,-24 13,-5 27,-7 43,-7 17,0 32,2 45,8 13,5 23,13 31,24 7,11 10,23 11,37l-30 2c-1,-15 -6,-26 -16,-33 -9,-8 -22,-11 -40,-11 -18,0 -32,3 -40,10 -9,7 -13,15 -13,24 0,9 3,16 9,21 6,5 21,11 46,16 25,6 42,11 51,15 14,6 24,14 30,24 6,9 10,20 10,33 0,12 -4,24 -11,34 -7,11 -17,20 -30,26 -13,6 -28,9 -45,9 -21,0 -38,-3 -52,-9 -15,-6 -26,-16 -34,-28 -8,-12 -12,-26 -12,-41z"/>
 </g>
</svg>
